<svg xmlns="http://www.w3.org/2000/svg" width="150" height="35.558" viewBox="0 0 150 35.558">
  <defs>
    <style>
      .cls-1 {
        fill: #fff;
      }

      .cls-2 {
        fill: #0c234b;
      }

      .cls-3 {
        fill: #ab0520;
      }
    </style>
  </defs>
  <g id="ua_rev_horiz_rgb_1" transform="translate(75 17.779)">
    <g id="ua_rev_horiz_rgb_1-2" data-name="ua_rev_horiz_rgb_1" transform="translate(-75 -17.779)">
      <path id="Path_1457" data-name="Path 1457" class="cls-1" d="M112.106,26.262a3.93,3.93,0,0,0,.156,1.29,1.907,1.907,0,0,0,.515.748H109.67a1.868,1.868,0,0,0,.519-.748,4.034,4.034,0,0,0,.152-1.29V18.051h-.915a6.477,6.477,0,0,0-1.529.147,2.071,2.071,0,0,0-.936.479l.561-1.888h8.09l-.53,1.855a1.477,1.477,0,0,0-.663-.449,3.187,3.187,0,0,0-1.039-.144h-1.273v8.21Z" transform="translate(-69.144 -10.853)"/>
      <path id="Path_1458" data-name="Path 1458" class="cls-1" d="M134.91,28.791a3.71,3.71,0,0,0,.134,1.149,1.673,1.673,0,0,0,.461.669h-2.772a1.729,1.729,0,0,0,.456-.669,3.57,3.57,0,0,0,.138-1.149V22.144A3.542,3.542,0,0,0,133.189,21a1.679,1.679,0,0,0-.456-.658H135.5a1.626,1.626,0,0,0-.461.658,3.681,3.681,0,0,0-.134,1.148v2.3h5.444v-2.3A3.641,3.641,0,0,0,140.218,21a1.6,1.6,0,0,0-.461-.658h2.773a1.658,1.658,0,0,0-.456.658,3.545,3.545,0,0,0-.138,1.148v6.648a3.635,3.635,0,0,0,.134,1.149,1.669,1.669,0,0,0,.46.669h-2.773a1.648,1.648,0,0,0,.461-.669,3.669,3.669,0,0,0,.135-1.149V25.627H134.91v3.164Z" transform="translate(-85.805 -13.147)"/>
      <path id="Path_1459" data-name="Path 1459" class="cls-1" d="M164.249,30.609a1.7,1.7,0,0,0,.456-.669,3.539,3.539,0,0,0,.138-1.151V22.15A3.528,3.528,0,0,0,164.7,21a1.663,1.663,0,0,0-.456-.661h5.535v1.621a2.369,2.369,0,0,0-.815-.433,3.56,3.56,0,0,0-1.024-.134,5.032,5.032,0,0,0-.67.048c-.249.032-.525.082-.837.146v2.893h2.483v1.493a.954.954,0,0,0-.475-.294,4.7,4.7,0,0,0-1.094-.086h-.914v3.683c.384.058.731.1,1.042.13s.578.045.806.045a4.94,4.94,0,0,0,1.456-.209,5.358,5.358,0,0,0,1.347-.641l-.707,2.01h-6.133Z" transform="translate(-106.179 -13.147)"/>
      <path id="Path_1460" data-name="Path 1460" class="cls-1" d="M205.614,28.391v-.867a6.561,6.561,0,0,1-1.666.9,5.14,5.14,0,0,1-1.7.3,4.456,4.456,0,0,1-1.757-.33,3.546,3.546,0,0,1-1.331-.99,3.134,3.134,0,0,1-.63-1.208,7.205,7.205,0,0,1-.191-1.851V18.949a4.112,4.112,0,0,0-.149-1.279,1.838,1.838,0,0,0-.508-.735h3.08a1.813,1.813,0,0,0-.5.735,4,4,0,0,0-.149,1.279v5.034a9.931,9.931,0,0,0,.112,1.75,2.1,2.1,0,0,0,.383.907,1.962,1.962,0,0,0,.865.608,3.667,3.667,0,0,0,1.286.2,3.5,3.5,0,0,0,1.159-.187,2.748,2.748,0,0,0,.94-.539,1.636,1.636,0,0,0,.514-.771,4.394,4.394,0,0,0,.153-1.291V18.949a4.119,4.119,0,0,0-.148-1.3,1.754,1.754,0,0,0-.508-.713h3.1a1.75,1.75,0,0,0-.515.751,4,4,0,0,0-.153,1.262v7.417a3.954,3.954,0,0,0,.153,1.28,1.888,1.888,0,0,0,.515.744h-2.35Z" transform="translate(-127.789 -10.948)"/>
      <path id="Path_1461" data-name="Path 1461" class="cls-1" d="M240.847,20.338a1.577,1.577,0,0,0-.461.658,3.6,3.6,0,0,0-.134,1.146v8.705a1.831,1.831,0,0,1-1.007-.348,6.344,6.344,0,0,1-1.193-1.266l-5.223-6.686v6.241a3.724,3.724,0,0,0,.133,1.171,1.581,1.581,0,0,0,.451.649h-2.3a1.681,1.681,0,0,0,.457-.669,3.537,3.537,0,0,0,.138-1.151V22.142A3.493,3.493,0,0,0,231.573,21a1.633,1.633,0,0,0-.457-.658h2.055l5.986,7.713V22.142A3.581,3.581,0,0,0,239.02,21a1.672,1.672,0,0,0-.457-.658Z" transform="translate(-149.405 -13.147)"/>
      <path id="Path_1462" data-name="Path 1462" class="cls-1" d="M265.5,28.789a3.641,3.641,0,0,0,.134,1.151,1.646,1.646,0,0,0,.46.669h-2.773a1.664,1.664,0,0,0,.461-.669,3.693,3.693,0,0,0,.133-1.151V22.142A3.648,3.648,0,0,0,263.78,21a1.617,1.617,0,0,0-.461-.658h2.773a1.6,1.6,0,0,0-.46.658,3.6,3.6,0,0,0-.134,1.146v6.647Z" transform="translate(-170.222 -13.147)"/>
      <path id="Path_1463" data-name="Path 1463" class="cls-1" d="M278.692,30.869a2.056,2.056,0,0,1-1.1-.744,5.717,5.717,0,0,1-.847-1.711l-2.048-5.983a11.326,11.326,0,0,0-.47-1.206,7.5,7.5,0,0,0-.5-.887l2.091.007a3.522,3.522,0,0,0,.052.466,2.756,2.756,0,0,0,.093.407l2.462,7.35,2.33-6.122a4.512,4.512,0,0,0,.164-.567,2.541,2.541,0,0,0,.062-.521,1.012,1.012,0,0,0-.117-.439,3.567,3.567,0,0,0-.392-.581h2.319l-4.1,10.532Z" transform="translate(-176.95 -13.147)"/>
      <path id="Path_1464" data-name="Path 1464" class="cls-1" d="M301.358,30.609a1.691,1.691,0,0,0,.457-.669,3.532,3.532,0,0,0,.14-1.151V22.15a3.52,3.52,0,0,0-.14-1.151,1.652,1.652,0,0,0-.457-.661h5.535v1.621a2.349,2.349,0,0,0-.814-.433,3.565,3.565,0,0,0-1.026-.134,4.985,4.985,0,0,0-.666.048c-.25.032-.529.082-.838.146v2.893h2.482v1.493a.94.94,0,0,0-.475-.294,4.693,4.693,0,0,0-1.094-.086h-.913v3.683c.385.058.73.1,1.041.13s.579.045.808.045a4.935,4.935,0,0,0,1.453-.209A5.388,5.388,0,0,0,308.2,28.6l-.707,2.01h-6.134Z" transform="translate(-194.813 -13.147)"/>
      <path id="Path_1465" data-name="Path 1465" class="cls-1" d="M324.873,28.791a3.585,3.585,0,0,0,.135,1.149,1.641,1.641,0,0,0,.459.669h-2.773a1.722,1.722,0,0,0,.457-.669,3.537,3.537,0,0,0,.137-1.149V22.146A3.518,3.518,0,0,0,323.151,21a1.677,1.677,0,0,0-.457-.659h3.5a3.8,3.8,0,0,1,2.417.724,2.3,2.3,0,0,1,.922,1.887,2.2,2.2,0,0,1-.554,1.487,4.558,4.558,0,0,1-1.718,1.133l2.629,3.556a7.413,7.413,0,0,0,.559.672c.217.238.469.483.748.739l-.785.073h-.124a2.157,2.157,0,0,1-1.078-.3,2.688,2.688,0,0,1-.887-.812l-3.011-4.216a4.665,4.665,0,0,0,1.966-.834,1.708,1.708,0,0,0,.62-1.366,1.628,1.628,0,0,0-.533-1.265,1.983,1.983,0,0,0-1.4-.489,4.192,4.192,0,0,0-.474.033q-.276.035-.624.1v7.326Z" transform="translate(-208.605 -13.147)"/>
      <path id="Path_1466" data-name="Path 1466" class="cls-1" d="M347.261,29.99l-.481-1.864a7.472,7.472,0,0,0,1.707.89,4.935,4.935,0,0,0,1.647.293,2.807,2.807,0,0,0,1.673-.455,1.4,1.4,0,0,0,.631-1.179,1.448,1.448,0,0,0-.255-.806,5.5,5.5,0,0,0-1.853-1.206c-.265-.128-.472-.23-.619-.3a6.913,6.913,0,0,1-2.024-1.392,2.23,2.23,0,0,1-.55-1.51,2.338,2.338,0,0,1,1.006-1.987,4.565,4.565,0,0,1,2.752-.737A9.9,9.9,0,0,1,352,19.8q.6.065,1.312.206v1.726a4.854,4.854,0,0,0-1.26-.721,3.728,3.728,0,0,0-1.317-.238,2.349,2.349,0,0,0-1.4.378,1.16,1.16,0,0,0-.527.984,1.312,1.312,0,0,0,.418.956,7.673,7.673,0,0,0,1.856,1.111c.054.025.138.064.25.118a9.607,9.607,0,0,1,1.827,1.05,2.5,2.5,0,0,1,.7.864,2.4,2.4,0,0,1,.251,1.089,2.752,2.752,0,0,1-1.193,2.246,4.738,4.738,0,0,1-2.983.92,6.7,6.7,0,0,1-1.236-.126,12.03,12.03,0,0,1-1.443-.377Z" transform="translate(-224.176 -12.758)"/>
      <path id="Path_1467" data-name="Path 1467" class="cls-1" d="M373.593,28.789a3.608,3.608,0,0,0,.136,1.151,1.642,1.642,0,0,0,.461.669h-2.776a1.637,1.637,0,0,0,.462-.669,3.632,3.632,0,0,0,.135-1.151V22.142A3.588,3.588,0,0,0,371.876,21a1.592,1.592,0,0,0-.462-.658h2.776a1.6,1.6,0,0,0-.461.658,3.564,3.564,0,0,0-.136,1.146v6.647Z" transform="translate(-240.1 -13.147)"/>
      <path id="Path_1468" data-name="Path 1468" class="cls-1" d="M206.343,62.469l-1.675,4.276h3.315l-1.639-4.276Zm.193-3.674.914,2.229,3.475,8.7a3.95,3.95,0,0,0,1.635,2.4v.052h-3.425v-.052c.82-.37.685-.555.236-1.74L208.47,68h-4.24l-.867,2.392c-.352.949-.468,1.438.333,1.74v.052h-3.073v-.052a3.79,3.79,0,0,0,1.619-2.4l4.3-10.864V58.8Z" transform="translate(-129.693 -38.008)"/>
      <path id="Path_1469" data-name="Path 1469" class="cls-1" d="M146.408,68.047a3.643,3.643,0,0,0-2.784,1.175,4.228,4.228,0,0,0-1.1,3,4.6,4.6,0,0,0,1.085,3.132,3.44,3.44,0,0,0,2.71,1.246,3.629,3.629,0,0,0,2.779-1.179,4.26,4.26,0,0,0,1.091-3.014,4.559,4.559,0,0,0-1.083-3.124,3.439,3.439,0,0,0-2.7-1.24Zm-.055,9.662a6.265,6.265,0,0,1-2.182-.375,5.011,5.011,0,0,1-1.757-1.074,5.107,5.107,0,0,1-1.193-1.742,5.494,5.494,0,0,1-.152-3.785,5.528,5.528,0,0,1,.776-1.519,5.359,5.359,0,0,1,1.961-1.668,5.586,5.586,0,0,1,2.547-.585,6.348,6.348,0,0,1,2.2.374,4.926,4.926,0,0,1,1.758,1.076,4.979,4.979,0,0,1,1.2,1.75,5.654,5.654,0,0,1,.415,2.178,5.078,5.078,0,0,1-.465,2.1,5.707,5.707,0,0,1-1.312,1.819,5.148,5.148,0,0,1-1.726,1.083,5.806,5.806,0,0,1-2.074.367Z" transform="translate(-91.023 -43.286)"/>
      <path id="Path_1470" data-name="Path 1470" class="cls-1" d="M176.845,76.083a3.628,3.628,0,0,0,.133,1.149,1.664,1.664,0,0,0,.464.664h-2.775a1.692,1.692,0,0,0,.457-.664,3.555,3.555,0,0,0,.138-1.149v-6.64a3.575,3.575,0,0,0-.138-1.152,1.668,1.668,0,0,0-.457-.66h5.542v1.621a2.366,2.366,0,0,0-.812-.436,3.61,3.61,0,0,0-1.03-.133,5.337,5.337,0,0,0-.673.048c-.249.032-.526.081-.837.148v2.892h2.491v1.492a.933.933,0,0,0-.477-.293,4.649,4.649,0,0,0-1.1-.086h-.925v3.2Z" transform="translate(-112.913 -43.72)"/>
      <path id="Path_1471" data-name="Path 1471" class="cls-1" d="M238.669,76.086a3.6,3.6,0,0,0,.135,1.146,1.656,1.656,0,0,0,.46.664h-2.773a1.7,1.7,0,0,0,.457-.664,3.5,3.5,0,0,0,.138-1.146V69.437a3.516,3.516,0,0,0-.138-1.149,1.651,1.651,0,0,0-.457-.657h3.5a3.8,3.8,0,0,1,2.42.724,2.3,2.3,0,0,1,.919,1.887,2.21,2.21,0,0,1-.552,1.487,4.553,4.553,0,0,1-1.718,1.131l2.627,3.558a7.118,7.118,0,0,0,.562.671c.218.235.465.48.748.735l-.786.073h-.124a2.154,2.154,0,0,1-1.076-.294,2.676,2.676,0,0,1-.888-.806l-3.011-4.22a4.636,4.636,0,0,0,1.965-.833,1.715,1.715,0,0,0,.622-1.364,1.634,1.634,0,0,0-.535-1.266,1.989,1.989,0,0,0-1.4-.49,4.062,4.062,0,0,0-.472.036c-.184.021-.392.055-.626.1v7.328Z" transform="translate(-152.879 -43.72)"/>
      <path id="Path_1472" data-name="Path 1472" class="cls-1" d="M265.178,76.083a3.621,3.621,0,0,0,.133,1.149,1.632,1.632,0,0,0,.461.664H263a1.667,1.667,0,0,0,.459-.664,3.606,3.606,0,0,0,.135-1.149V69.434a3.586,3.586,0,0,0-.135-1.146,1.616,1.616,0,0,0-.459-.657h2.773a1.583,1.583,0,0,0-.461.657,3.6,3.6,0,0,0-.133,1.146v6.649Z" transform="translate(-170.015 -43.72)"/>
      <path id="Path_1473" data-name="Path 1473" class="cls-1" d="M282.413,75.976l-.736,1.921h-7.888l5.384-8.946a10.463,10.463,0,0,0-1.138-.229,7.219,7.219,0,0,0-.994-.075,4.877,4.877,0,0,0-1.293.169,5.466,5.466,0,0,0-1.269.53l.7-1.715h6.56l-5.379,8.941c.6.069,1.1.119,1.508.149s.758.047,1.055.047a8.581,8.581,0,0,0,1.914-.2,6.079,6.079,0,0,0,1.579-.594Z" transform="translate(-176.99 -43.72)"/>
      <path id="Path_1474" data-name="Path 1474" class="cls-1" d="M304.571,68.047a3.644,3.644,0,0,0-2.787,1.175,4.241,4.241,0,0,0-1.1,3,4.6,4.6,0,0,0,1.087,3.132,3.439,3.439,0,0,0,2.708,1.246,3.627,3.627,0,0,0,2.779-1.179,4.257,4.257,0,0,0,1.094-3.014,4.567,4.567,0,0,0-1.083-3.124,3.439,3.439,0,0,0-2.7-1.24Zm-.055,9.662a6.26,6.26,0,0,1-2.182-.375,5.01,5.01,0,0,1-1.76-1.074,5.12,5.12,0,0,1-1.19-1.742,5.423,5.423,0,0,1-.417-2.106,5.305,5.305,0,0,1,.265-1.679,5.452,5.452,0,0,1,2.738-3.188,5.582,5.582,0,0,1,2.547-.585,6.343,6.343,0,0,1,2.2.374,5.015,5.015,0,0,1,2.961,2.826,5.68,5.68,0,0,1,.414,2.178,5.042,5.042,0,0,1-.467,2.1,5.7,5.7,0,0,1-1.309,1.819,5.162,5.162,0,0,1-1.726,1.083,5.821,5.821,0,0,1-2.075.367Z" transform="translate(-193.267 -43.286)"/>
      <path id="Path_1475" data-name="Path 1475" class="cls-1" d="M342.489,67.631a1.569,1.569,0,0,0-.461.657,3.554,3.554,0,0,0-.134,1.146v8.7a1.842,1.842,0,0,1-1.008-.345,6.27,6.27,0,0,1-1.193-1.259l-5.222-6.687v6.243a3.73,3.73,0,0,0,.131,1.167,1.578,1.578,0,0,0,.45.646h-2.294a1.73,1.73,0,0,0,.456-.664,3.5,3.5,0,0,0,.14-1.149V69.434a3.482,3.482,0,0,0-.14-1.146,1.676,1.676,0,0,0-.456-.657h2.051l5.99,7.713v-5.91a3.53,3.53,0,0,0-.14-1.146,1.651,1.651,0,0,0-.457-.657Z" transform="translate(-215.112 -43.72)"/>
      <path id="Path_1476" data-name="Path 1476" class="cls-1" d="M364.538,73.025h2.983l-1.43-3.969-1.552,3.969Zm-1.367,3.487a1.359,1.359,0,0,0-.1.322,1.8,1.8,0,0,0-.03.341.622.622,0,0,0,.1.323,2.073,2.073,0,0,0,.341.4h-2.389a2.035,2.035,0,0,0,.534-.565,5.6,5.6,0,0,0,.485-.989l2.847-7.331a2.349,2.349,0,0,0,.131-.406,1.677,1.677,0,0,0,.043-.354.664.664,0,0,0-.081-.326,1.067,1.067,0,0,0-.275-.3h2.3l3.22,8.609a4.319,4.319,0,0,0,.485.949,4,4,0,0,0,.667.709h-2.9l.037-.037c.269-.285.4-.492.4-.624a2.178,2.178,0,0,0-.174-.693c-.017-.05-.028-.086-.037-.11l-.867-2.376h-3.773l-.966,2.457Z" transform="translate(-233.429 -43.72)"/>
      <path id="Path_1477" data-name="Path 1477" class="cls-1" d="M390.4,20.293l2.634,4.477,1.77-2.915a3.08,3.08,0,0,0,.246-.485,1.136,1.136,0,0,0,.082-.375.663.663,0,0,0-.1-.349,1.365,1.365,0,0,0-.326-.352h2.368L393.6,25.947v2.8a3.588,3.588,0,0,0,.137,1.152,1.728,1.728,0,0,0,.459.669h-2.79a1.611,1.611,0,0,0,.461-.669A3.673,3.673,0,0,0,392,28.751l0-2.834L389.626,22a1.062,1.062,0,0,0-.646-.487,3.664,3.664,0,0,0-1.034-.095H386.81v7.335a3.5,3.5,0,0,0,.138,1.15,1.681,1.681,0,0,0,.459.669h-2.776a1.666,1.666,0,0,0,.461-.669,3.743,3.743,0,0,0,.131-1.15V21.418h-.812a5.664,5.664,0,0,0-1.369.133,1.876,1.876,0,0,0-.84.429l.5-1.687Z" transform="translate(-247.075 -13.118)"/>
      <path id="Path_1478" data-name="Path 1478" class="cls-1" d="M31.031,0V11.551l-1.17-.005L34.523,24l4,.005V35.558H0V24.018l3.968,0,4.7-12.487-1.195,0L7.48,0Z"/>
      <path id="Path_1479" data-name="Path 1479" class="cls-2" d="M21.791,6.832h7.439V9.808H26.14L34.266,30.75h2.4v3.081H26.6v-3H23.771v5.877h15.9V27.948l-3.569.006L30.375,12.7h1.8V3.94H11.41V12.7h1.8L7.485,27.935l-3.569.013v8.764h15.9V30.834H16.984v3H6.913V30.75h2.4L17.442,9.808h-3.09V6.832h7.439" transform="translate(-2.531 -2.547)"/>
      <path id="Path_1480" data-name="Path 1480" class="cls-1" d="M113.34,88.655a1.469,1.469,0,0,1,0,2.087,1.548,1.548,0,0,1-2.131,0,1.47,1.47,0,0,1,0-2.087,1.543,1.543,0,0,1,2.129,0Zm-.211.177a1.2,1.2,0,0,0-1.706,0,1.255,1.255,0,0,0,0,1.734,1.206,1.206,0,0,0,1.7,0,1.254,1.254,0,0,0,0-1.734Zm-1.5.017h.681a.689.689,0,0,1,.432.122.407.407,0,0,1,.156.339.461.461,0,0,1-.157.369.571.571,0,0,1-.3.125l.489.744h-.309l-.44-.734h-.284v.733h-.267v-1.7Zm.267.74h.362a.452.452,0,0,0,.275-.067.25.25,0,0,0,.087-.211.209.209,0,0,0-.087-.186.5.5,0,0,0-.275-.059h-.362v.523Z" transform="translate(-71.611 -57.036)"/>
      <path id="Path_1481" data-name="Path 1481" class="cls-3" d="M34.324,12.2l8.25,21.393s1.057,2.6,2.774,2.6H39.341s.3.044.6-.457a1,1,0,0,0,.027-.715l-1.858-4.776H30.55L28.69,35.02a1.006,1.006,0,0,0,.03.715c.3.5.6.457.6.457H23.314c1.716,0,2.774-2.6,2.774-2.6L34.324,12.2m-.006,15.781h2.907l-2.9-7.5-2.9,7.5Z" transform="translate(-15.071 -7.884)"/>
    </g>
  </g>
</svg>