<?xml version="1.0" encoding="UTF-8"?>
<svg id="Layer_2" data-name="Layer 2" xmlns="http://www.w3.org/2000/svg" xmlns:xlink="http://www.w3.org/1999/xlink" viewBox="0 0 3678.1 3678.1">
  <defs>
    <style>
      .cls-1-color {
        fill: url(#linear-gradient);
      }

      .cls-2-color {
        fill: #fff;
      }
    </style>
    <linearGradient id="linear-gradient" x1="927.25" y1="3174.54" x2="2918.17" y2="1183.63" gradientUnits="userSpaceOnUse">
      <stop offset="0" stop-color="#0c234b"/>
      <stop offset=".15" stop-color="#2b1d42"/>
      <stop offset=".44" stop-color="#611233"/>
      <stop offset=".68" stop-color="#890b29"/>
      <stop offset=".88" stop-color="#a20622"/>
      <stop offset="1" stop-color="#ab0520"/>
    </linearGradient>
  </defs>
  <g>
    <g>
      <path class="cls-2-color" d="M1754.61,3107.52c-16.57,0-30,13.43-30,30v540.58h60v-540.58c0-16.57-13.43-30-30-30Z"/>
      <path class="cls-2-color" d="M1931.1,3392.81c-16.57,0-30,13.43-30,30v255.29h60v-255.29c0-16.57-13.43-30-30-30Z"/>
      <path class="cls-1-color" d="M2204.62,3391.02c16.57,0,30-13.43,30-30s-13.43-30-30-30h-78.82v-151.77h78.82c16.57,0,30-13.43,30-30s-13.43-30-30-30h-78.82v-167.9c93.13-3.55,183.53-23.62,269.12-59.83,91.51-38.71,173.69-94.11,244.25-164.67s125.96-152.74,164.67-244.25c15.86-37.5,28.62-75.93,38.25-115.1h85.53c16.57,0,30-13.43,30-30s-13.43-30-30-30h-73.3c6.6-40.71,9.92-82.12,9.92-124.02v-27.74h78.82c16.57,0,30-13.43,30-30s-13.43-30-30-30h-78.82v-151.76h78.82c16.57,0,30-13.43,30-30s-13.43-30-30-30h-78.82v-151.77h78.82c16.57,0,30-13.43,30-30s-13.43-30-30-30h-78.82v-151.76h78.82c16.57,0,30-13.43,30-30s-13.43-30-30-30h-79.59c-8.83-101.41-94.19-181.24-197.85-181.24-109.52,0-198.62,89.1-198.62,198.62v88.51h-78.82c-16.57,0-30,13.43-30,30s13.43,30,30,30h78.82v151.76h-78.82c-16.57,0-30,13.43-30,30s13.43,30,30,30h78.82v151.77h-78.82c-16.57,0-30,13.43-30,30s13.43,30,30,30h78.82v48.54c0,99.15-38.61,192.37-108.72,262.48-62.99,62.99-144.64,100.53-232.48,107.51v-100.9h78.82c16.57,0,30-13.43,30-30s-13.43-30-30-30h-78.82v-151.77h78.82c16.57,0,30-13.43,30-30s-13.43-30-30-30h-78.82v-151.76h78.82c16.57,0,30-13.43,30-30s-13.43-30-30-30h-78.82v-151.77h78.82c16.57,0,30-13.43,30-30s-13.43-30-30-30h-78.82v-151.76h78.82c16.57,0,30-13.43,30-30s-13.43-30-30-30h-78.82v-151.76h78.82c16.57,0,30-13.43,30-30s-13.43-30-30-30h-78.82v-151.76h78.82c16.57,0,30-13.43,30-30s-13.43-30-30-30h-78.82v-75.89c0-75.58-29.43-146.63-82.87-200.07-53.44-53.44-124.49-82.87-200.07-82.87s-146.63,29.43-200.07,82.87c-46.3,46.3-74.57,105.83-81.29,170.07h-80.4c-16.57,0-30,13.43-30,30s13.43,30,30,30h78.82v151.76h-78.82c-16.57,0-30,13.43-30,30s13.43,30,30,30h78.82v151.76h-78.82c-16.57,0-30,13.43-30,30s13.43,30,30,30h78.82v151.76h-78.82c-16.57,0-30,13.43-30,30s13.43,30,30,30h78.82v151.76h-78.82c-16.57,0-30,13.43-30,30s13.43,30,30,30h78.82v151.77h-78.82c-16.57,0-30,13.43-30,30s13.43,30,30,30h78.82v151.76h-78.82c-16.57,0-30,13.43-30,30s13.43,30,30,30h78.82v151.77h-78.82c-16.57,0-30,13.43-30,30s13.43,30,30,30h78.82v172.04c-90.73-5.36-175.29-43.23-240.09-108.04-70.11-70.11-108.72-163.33-108.72-262.48v-101.53h78.82c16.57,0,30-13.43,30-30s-13.43-30-30-30h-78.82v-151.76h78.82c16.57,0,30-13.43,30-30s-13.43-30-30-30h-78.82v-11.29c0-109.52-89.1-198.62-198.62-198.62-99.37,0-181.92,73.35-196.37,168.75h-81.07c-16.57,0-30,13.43-30,30s13.43,30,30,30h78.82v151.77h-78.82c-16.57,0-30,13.43-30,30s13.43,30,30,30h78.82v151.76h-78.82c-16.57,0-30,13.43-30,30s13.43,30,30,30h78.82v16.01c0,45.94,3.99,91.27,11.92,135.76h-90.74c-16.57,0-30,13.43-30,30s13.43,30,30,30h103.96c9.24,35.12,20.99,69.61,35.27,103.36,38.7,91.51,94.11,173.69,164.67,244.25s152.74,125.97,244.25,164.67c87.92,37.19,180.92,57.36,276.74,60.07v132.35h-78.82c-16.57,0-30,13.43-30,30s13.43,30,30,30h78.82v151.77h-78.82c-16.57,0-30,13.43-30,30s13.43,30,30,30h78.82v145.88h164.7v-540.58c0-16.57,13.43-30,30-30s30,13.43,30,30v540.58h116.49v-255.29c0-16.57,13.43-30,30-30s30,13.43,30,30v255.29h164.7v-287.07h78.82ZM2629.03,1663.05c0-16.57,13.43-30,30-30s30,13.43,30,30v421.51c0,16.57-13.43,30-30,30s-30-13.43-30-30v-421.51ZM2253.64,2646c69.56-9.17,136.44-35.41,193.4-75.86,55.55-39.45,101.58-92.22,133.12-152.62,7.67-14.69,25.79-20.38,40.48-12.71,14.69,7.67,20.38,25.79,12.71,40.48-35.91,68.76-88.31,128.84-151.56,173.76-64.9,46.1-141.08,75.98-220.29,86.43-1.33.18-2.65.26-3.96.26-14.82,0-27.71-10.99-29.7-26.08-2.17-16.43,9.39-31.5,25.82-33.66ZM1034.62,2272.81c0,16.57-13.43,30-30,30s-30-13.43-30-30v-276.47c0-16.57,13.43-30,30-30s30,13.43,30,30v276.47ZM1488.83,2860.1c-1.78,15.28-14.75,26.53-29.76,26.53-1.16,0-2.33-.07-3.51-.2-158.15-18.43-299.83-104.87-388.7-237.16-9.24-13.75-5.58-32.39,8.17-41.63,13.75-9.24,32.39-5.58,41.63,8.17,79.08,117.71,205.13,194.62,345.83,211.02,16.46,1.92,28.24,16.81,26.33,33.27ZM1784.61,2996.34c0,16.57-13.43,30-30,30s-30-13.43-30-30v-1333.29c0-16.57,13.43-30,30-30s30,13.43,30,30v1333.29ZM1784.61,1496.34c0,16.57-13.43,30-30,30s-30-13.43-30-30v-523.85c0-16.57,13.43-30,30-30s30,13.43,30,30v523.85ZM1961.1,3266.92c0,16.57-13.43,30-30,30s-30-13.43-30-30v-1029.41c0-16.57,13.43-30,30-30s30,13.43,30,30v1029.41ZM1961.1,1996.33c0,16.57-13.43,30-30,30s-30-13.43-30-30v-894.12c0-16.57,13.43-30,30-30s30,13.43,30,30v894.12ZM1931.1,991.77c-16.57,0-30-13.43-30-30,0-35.37-26.45-64.96-61.53-68.84-16.47-1.82-28.34-16.65-26.52-33.11,1.82-16.47,16.65-28.34,33.11-26.52,65.53,7.24,114.94,62.48,114.94,128.48,0,16.57-13.43,30-30,30Z"/>
      <path class="cls-2-color" d="M3637.25,317.6c-26.19-61.92-63.69-117.53-111.45-165.3s-103.38-85.26-165.3-111.45c-64.09-27.11-132.19-40.85-202.4-40.85H520c-70.21,0-138.31,13.75-202.4,40.85-61.92,26.19-117.53,63.69-165.3,111.45-47.76,47.77-85.26,103.38-111.45,165.3C13.75,381.69,0,449.79,0,520v2638.1c0,70.21,13.75,138.31,40.85,202.4,26.19,61.92,63.69,117.53,111.45,165.3,47.77,47.77,103.38,85.26,165.3,111.45,64.09,27.11,132.19,40.85,202.4,40.85h1039.91v-145.88h-78.82c-16.57,0-30-13.43-30-30s13.43-30,30-30h78.82v-151.77h-78.82c-16.57,0-30-13.43-30-30s13.43-30,30-30h78.82v-132.35c-95.82-2.72-188.81-22.88-276.74-60.07-91.51-38.7-173.69-94.11-244.25-164.67s-125.97-152.74-164.67-244.25c-14.27-33.75-26.03-68.25-35.27-103.36h-103.96c-16.57,0-30-13.43-30-30s13.43-30,30-30h90.74c-7.92-44.49-11.92-89.82-11.92-135.76v-16.01h-78.82c-16.57,0-30-13.43-30-30s13.43-30,30-30h78.82v-151.76h-78.82c-16.57,0-30-13.43-30-30s13.43-30,30-30h78.82v-151.77h-78.82c-16.57,0-30-13.43-30-30s13.43-30,30-30h81.07c14.45-95.4,97.01-168.75,196.37-168.75,109.52,0,198.62,89.1,198.62,198.62v11.29h78.82c16.57,0,30,13.43,30,30s-13.43,30-30,30h-78.82v151.76h78.82c16.57,0,30,13.43,30,30s-13.43,30-30,30h-78.82v101.53c0,99.15,38.61,192.37,108.72,262.48,64.81,64.81,149.36,102.67,240.09,108.04v-172.04h-78.82c-16.57,0-30-13.43-30-30s13.43-30,30-30h78.82v-151.77h-78.82c-16.57,0-30-13.43-30-30s13.43-30,30-30h78.82v-151.76h-78.82c-16.57,0-30-13.43-30-30s13.43-30,30-30h78.82v-151.77h-78.82c-16.57,0-30-13.43-30-30s13.43-30,30-30h78.82v-151.76h-78.82c-16.57,0-30-13.43-30-30s13.43-30,30-30h78.82v-151.76h-78.82c-16.57,0-30-13.43-30-30s13.43-30,30-30h78.82v-151.76h-78.82c-16.57,0-30-13.43-30-30s13.43-30,30-30h78.82v-151.76h-78.82c-16.57,0-30-13.43-30-30s13.43-30,30-30h80.4c6.73-64.23,34.99-123.77,81.29-170.07,53.44-53.44,124.49-82.87,200.07-82.87s146.63,29.43,200.07,82.87c53.44,53.44,82.87,124.49,82.87,200.07v75.89h78.82c16.57,0,30,13.43,30,30s-13.43,30-30,30h-78.82v151.76h78.82c16.57,0,30,13.43,30,30s-13.43,30-30,30h-78.82v151.76h78.82c16.57,0,30,13.43,30,30s-13.43,30-30,30h-78.82v151.76h78.82c16.57,0,30,13.43,30,30s-13.43,30-30,30h-78.82v151.77h78.82c16.57,0,30,13.43,30,30s-13.43,30-30,30h-78.82v151.76h78.82c16.57,0,30,13.43,30,30s-13.43,30-30,30h-78.82v151.77h78.82c16.57,0,30,13.43,30,30s-13.43,30-30,30h-78.82v100.9c87.84-6.98,169.49-44.52,232.48-107.51,70.11-70.11,108.72-163.33,108.72-262.48v-48.54h-78.82c-16.57,0-30-13.43-30-30s13.43-30,30-30h78.82v-151.77h-78.82c-16.57,0-30-13.43-30-30s13.43-30,30-30h78.82v-151.76h-78.82c-16.57,0-30-13.43-30-30s13.43-30,30-30h78.82v-88.51c0-109.52,89.1-198.62,198.62-198.62,103.66,0,189.02,79.83,197.85,181.24h79.59c16.57,0,30,13.43,30,30s-13.43,30-30,30h-78.82v151.76h78.82c16.57,0,30,13.43,30,30s-13.43,30-30,30h-78.82v151.77h78.82c16.57,0,30,13.43,30,30s-13.43,30-30,30h-78.82v151.76h78.82c16.57,0,30,13.43,30,30s-13.43,30-30,30h-78.82v27.74c0,41.91-3.32,83.31-9.92,124.02h73.3c16.57,0,30,13.43,30,30s-13.43,30-30,30h-85.53c-9.64,39.17-22.39,77.6-38.25,115.1-38.71,91.51-94.11,173.69-164.67,244.25s-152.74,125.96-244.25,164.67c-85.59,36.2-175.99,56.28-269.12,59.83v167.9h78.82c16.57,0,30,13.43,30,30s-13.43,30-30,30h-78.82v151.77h78.82c16.57,0,30,13.43,30,30s-13.43,30-30,30h-78.82v287.07h1032.3c70.21,0,138.31-13.74,202.4-40.85,61.92-26.19,117.53-63.69,165.3-111.45s85.26-103.38,111.45-165.3c27.11-64.09,40.85-132.19,40.85-202.4V520c0-70.21-13.74-138.31-40.85-202.4Z"/>
      <path class="cls-2-color" d="M1846.16,833.3c-16.46-1.82-31.29,10.05-33.11,26.52-1.82,16.47,10.05,31.29,26.52,33.11,35.08,3.88,61.53,33.47,61.53,68.84,0,16.57,13.43,30,30,30s30-13.43,30-30c0-66-49.41-121.23-114.94-128.48Z"/>
      <path class="cls-2-color" d="M1754.61,942.49c-16.57,0-30,13.43-30,30v523.85c0,16.57,13.43,30,30,30s30-13.43,30-30v-523.85c0-16.57-13.43-30-30-30Z"/>
      <path class="cls-2-color" d="M1931.1,2207.51c-16.57,0-30,13.43-30,30v1029.41c0,16.57,13.43,30,30,30s30-13.43,30-30v-1029.41c0-16.57-13.43-30-30-30Z"/>
      <path class="cls-2-color" d="M1931.1,1072.21c-16.57,0-30,13.43-30,30v894.12c0,16.57,13.43,30,30,30s30-13.43,30-30v-894.12c0-16.57-13.43-30-30-30Z"/>
      <path class="cls-2-color" d="M1754.61,1633.05c-16.57,0-30,13.43-30,30v1333.29c0,16.57,13.43,30,30,30s30-13.43,30-30v-1333.29c0-16.57-13.43-30-30-30Z"/>
      <path class="cls-2-color" d="M1462.5,2826.83c-140.71-16.39-266.76-93.31-345.83-211.02-9.24-13.75-27.88-17.41-41.63-8.17-13.75,9.24-17.41,27.88-8.17,41.63,88.87,132.29,230.54,218.73,388.7,237.16,1.18.14,2.35.2,3.51.2,15.01,0,27.98-11.25,29.76-26.53,1.92-16.46-9.87-31.35-26.33-33.27Z"/>
      <path class="cls-2-color" d="M1004.62,1966.34c-16.57,0-30,13.43-30,30v276.47c0,16.57,13.43,30,30,30s30-13.43,30-30v-276.47c0-16.57-13.43-30-30-30Z"/>
      <path class="cls-2-color" d="M2257.52,2705.74c1.31,0,2.63-.09,3.96-.26,79.22-10.45,155.39-40.33,220.29-86.43,63.24-44.92,115.65-105,151.56-173.76,7.67-14.69,1.98-32.81-12.71-40.48-14.69-7.67-32.81-1.98-40.48,12.71-31.54,60.39-77.57,113.16-133.12,152.62-56.96,40.46-123.83,66.69-193.4,75.86-16.43,2.17-27.99,17.24-25.82,33.66,1.99,15.1,14.88,26.08,29.7,26.08Z"/>
      <path class="cls-2-color" d="M2659.03,2114.56c16.57,0,30-13.43,30-30v-421.51c0-16.57-13.43-30-30-30s-30,13.43-30,30v421.51c0,16.57,13.43,30,30,30Z"/>
    </g>
  </g>
</svg>