<?xml version="1.0" encoding="UTF-8"?>
<svg id="Layer_2" xmlns="http://www.w3.org/2000/svg" version="1.1" viewBox="0 0 300 300">
  <!-- Generator: Adobe Illustrator 30.5.1, SVG Export Plug-In . SVG Version: 2.1.4 Build 3)  -->
  <defs>
    <style>
      .st0 {
        fill: #e5eff7;
      }
    </style>
  </defs>
  <path class="st0" d="M293.48,300c-.34,0-.62-.28-.62-.62v-11.95c0-.34.28-.62.62-.62s.62.28.62.62v11.95c0,.34-.28.62-.62.62Z"/>
  <path class="st0" d="M293.48,276.1c-.34,0-.62-.28-.62-.62v-11.95c0-.34.28-.62.62-.62s.62.28.62.62v11.95c0,.34-.28.62-.62.62Z"/>
  <path class="st0" d="M293.48,252.2c-.34,0-.62-.28-.62-.62v-11.95c0-.34.28-.62.62-.62s.62.28.62.62v11.95c0,.34-.28.62-.62.62Z"/>
  <path class="st0" d="M293.48,228.3c-.34,0-.62-.28-.62-.62v-11.95c0-.34.28-.62.62-.62s.62.28.62.62v11.95c0,.34-.28.62-.62.62Z"/>
  <path class="st0" d="M293.48,204.4c-.34,0-.62-.28-.62-.62v-11.95c0-.34.28-.62.62-.62s.62.28.62.62v11.95c0,.34-.28.62-.62.62Z"/>
  <path class="st0" d="M293.48,180.5c-.34,0-.62-.28-.62-.62v-11.95c0-.34.28-.62.62-.62s.62.28.62.62v11.95c0,.34-.28.62-.62.62Z"/>
  <path class="st0" d="M293.48,156.6c-.34,0-.62-.28-.62-.62v-11.95c0-.34.28-.62.62-.62s.62.28.62.62v11.95c0,.34-.28.62-.62.62Z"/>
  <path class="st0" d="M293.48,132.7c-.34,0-.62-.28-.62-.62v-11.95c0-.34.28-.62.62-.62s.62.28.62.62v11.95c0,.34-.28.62-.62.62Z"/>
  <path class="st0" d="M293.48,108.8c-.34,0-.62-.28-.62-.62v-11.95c0-.34.28-.62.62-.62s.62.28.62.62v11.95c0,.34-.28.62-.62.62Z"/>
  <path class="st0" d="M293.48,84.89c-.34,0-.62-.28-.62-.62v-11.95c0-.34.28-.62.62-.62s.62.28.62.62v11.95c0,.34-.28.62-.62.62Z"/>
  <path class="st0" d="M293.48,60.99c-.34,0-.62-.28-.62-.62v-11.95c0-.34.28-.62.62-.62s.62.28.62.62v11.95c0,.34-.28.62-.62.62Z"/>
  <path class="st0" d="M293.48,37.09c-.34,0-.62-.28-.62-.62v-11.95c0-.34.28-.62.62-.62s.62.28.62.62v11.95c0,.34-.28.62-.62.62Z"/>
  <path class="st0" d="M293.48,13.19c-.34,0-.62-.28-.62-.62V.62c0-.34.28-.62.62-.62s.62.28.62.62v11.95c0,.34-.28.62-.62.62Z"/>
  <path class="st0" d="M282.21,300h0c-.34,0-.62-.28-.62-.62l.08-11.88c0-.34.28-.62.62-.62h0c.34,0,.62.28.62.62l-.08,11.88c0,.34-.28.62-.62.62Z"/>
  <path class="st0" d="M282.33,282.15h0c-.34,0-.62-.28-.62-.62.03-4.12.05-8.11.07-11.95,0-.34.28-.62.62-.62h0c.34,0,.62.28.62.62-.02,3.84-.04,7.83-.07,11.95,0,.34-.28.62-.62.62Z"/>
  <path class="st0" d="M282.43,264.22h0c-.34,0-.62-.28-.62-.62.02-4.21.04-8.2.05-11.95,0-.34.28-.62.62-.62h0c.34,0,.62.28.62.62-.01,3.75-.03,7.75-.05,11.95,0,.34-.28.62-.62.62Z"/>
  <path class="st0" d="M282.49,246.29h0c-.34,0-.62-.28-.62-.62,0-2.26,0-4.42,0-6.45s0-3.79,0-5.5c0-.34.28-.62.62-.62h0c.34,0,.62.28.62.62,0,1.72,0,3.55,0,5.5s0,4.19,0,6.45c0,.34-.28.62-.62.62Z"/>
  <path class="st0" d="M282.46,228.37c-.34,0-.62-.27-.62-.62-.03-4.38-.08-7.37-.15-8.89-.03-.66-.06-1.69-.08-3.06,0-.34.27-.62.61-.63h.01c.34,0,.61.27.62.61.03,1.35.05,2.37.08,3.03.07,1.53.12,4.54.15,8.94,0,.34-.27.62-.62.62h0Z"/>
  <path class="st0" d="M282.15,210.43c-.34,0-.62-.27-.62-.61-.03-3.27-.06-7.29-.09-11.96,0-.34.27-.62.62-.62h0c.34,0,.62.28.62.62.03,4.67.05,8.68.09,11.95,0,.34-.27.62-.61.63h0Z"/>
  <path class="st0" d="M282.03,192.5c-.34,0-.62-.28-.62-.62-.02-3.69-.03-7.68-.04-11.96,0-.34.28-.62.62-.62h0c.34,0,.62.28.62.62.01,4.27.03,8.27.04,11.96,0,.34-.27.62-.62.62h0Z"/>
  <path class="st0" d="M281.97,174.56c-.34,0-.62-.28-.62-.62l-.02-11.96c0-.34.28-.62.62-.62h0c.34,0,.62.28.62.62l.02,11.96c0,.34-.28.62-.62.62h0Z"/>
  <path class="st0" d="M281.94,156.63c-.34,0-.62-.28-.62-.62v-11.96c-.01-.34.26-.62.61-.62h0c.34,0,.62.28.62.62v11.95c.01.34-.26.62-.61.62h0Z"/>
  <path class="st0" d="M281.93,138.7c-.34,0-.62-.28-.62-.62v-11.95c0-.34.27-.62.61-.62s.62.28.62.62v11.95c0,.34-.27.62-.61.62Z"/>
  <path class="st0" d="M281.92,120.77c-.34,0-.62-.28-.62-.62v-11.95c0-.34.28-.62.62-.62h0c.34,0,.62.28.62.62v11.95c0,.34-.28.62-.62.62Z"/>
  <path class="st0" d="M281.92,102.84h0c-.34,0-.62-.28-.62-.62v-11.95c0-.34.28-.62.62-.62h0c.34,0,.62.28.62.62v11.95c0,.34-.28.62-.62.62Z"/>
  <path class="st0" d="M281.93,84.91h0c-.34,0-.62-.28-.62-.62v-11.96c0-.34.29-.62.63-.62h0c.34,0,.62.28.62.62v11.96c0,.34-.29.62-.63.62Z"/>
  <path class="st0" d="M281.95,53.78h0c.34,0,.62.28.62.62v11.96c0,.34-.28.62-.62.62h0c-.34,0-.62-.28-.62-.62v-11.96c0-.34.28-.62.62-.62Z"/>
  <path class="st0" d="M281.96,49.04h0c-.34,0-.62-.28-.62-.62v-11.95c.01-.34.29-.62.63-.62h0c.34,0,.62.28.62.62v11.95c-.01.34-.29.62-.63.62Z"/>
  <path class="st0" d="M281.98,31.11h0c-.34,0-.62-.28-.62-.62l.02-11.95c0-.34.28-.62.62-.62h0c.34,0,.62.28.62.62l-.02,11.95c0,.34-.28.62-.62.62Z"/>
  <path class="st0" d="M282.01,13.19h0c-.34,0-.62-.28-.62-.62l.02-11.95c0-.34.28-.62.62-.62h0c.34,0,.62.28.62.62l-.02,11.95c0,.34-.28.62-.62.62Z"/>
  <path class="st0" d="M271.08,297.06h0c-.34,0-.62-.29-.61-.63.06-4.07.11-8.05.15-11.95,0-.34.28-.61.62-.61h0c.34,0,.62.28.61.63-.04,3.89-.1,7.88-.15,11.95,0,.34-.28.61-.62.61Z"/>
  <path class="st0" d="M271.31,278.14h0c-.34,0-.62-.28-.61-.63.04-4.12.08-8.11.11-11.95,0-.34.28-.61.62-.61h0c.34,0,.62.28.61.62-.03,3.84-.07,7.84-.11,11.95,0,.34-.28.61-.62.61Z"/>
  <path class="st0" d="M271.46,259.22h0c-.34,0-.62-.28-.62-.62.02-4.21.04-8.2.04-11.95,0-.34.28-.62.62-.62h0c.34,0,.62.28.62.62,0,3.75-.01,7.74-.04,11.96,0,.34-.28.62-.62.62Z"/>
  <path class="st0" d="M271.49,240.3c-.34,0-.62-.28-.62-.62-.01-4.51-.05-8.53-.11-11.94,0-.34.27-.62.61-.63.38,0,.62.27.63.61.06,3.42.09,7.44.11,11.96,0,.34-.28.62-.62.62h0Z"/>
  <path class="st0" d="M271.22,221.38c-.33,0-.61-.26-.62-.6-.02-.67-.05-1.3-.07-1.89-.1-2.31-.2-5.7-.28-10.08,0-.34.27-.63.61-.63.3,0,.63.27.63.61.08,4.37.18,7.75.28,10.04.03.59.05,1.23.07,1.9.01.34-.26.63-.6.64h-.02Z"/>
  <path class="st0" d="M270.75,202.45c-.34,0-.62-.27-.62-.61-.05-3.6-.09-7.6-.13-11.96,0-.34.27-.62.61-.63.3.02.62.27.63.61.04,4.36.08,8.36.13,11.95,0,.34-.27.62-.61.63h0Z"/>
  <path class="st0" d="M270.56,183.52c-.34,0-.62-.27-.62-.62-.03-3.78-.05-7.77-.07-11.96,0-.34.27-.62.62-.62h0c.34,0,.62.28.62.62.02,4.18.05,8.18.07,11.95,0,.34-.27.62-.62.62h0Z"/>
  <path class="st0" d="M270.45,164.6c-.34,0-.62-.28-.62-.62-.02-3.85-.03-7.84-.04-11.96,0-.34.28-.62.62-.62h0c.34,0,.62.28.62.62.01,4.11.03,8.1.04,11.95,0,.34-.27.62-.62.62h0Z"/>
  <path class="st0" d="M270.39,145.67c-.34,0-.62-.28-.62-.62l-.02-11.95c0-.34.28-.62.62-.62h0c.34,0,.62.28.62.62l.02,11.95c0,.34-.28.62-.62.62h0Z"/>
  <path class="st0" d="M270.36,126.74c-.34,0-.62-.28-.62-.62v-11.95c0-.34.27-.62.61-.62s.62.28.62.62v11.95c0,.34-.27.62-.61.62h0Z"/>
  <path class="st0" d="M270.36,107.82h0c-.34,0-.62-.28-.62-.62v-11.95c0-.34.28-.62.62-.62h0c.34,0,.62.28.62.62v11.95c0,.34-.28.62-.62.62Z"/>
  <path class="st0" d="M270.37,88.89h0c-.34,0-.62-.28-.62-.62v-11.96c.01-.34.29-.62.63-.62h0c.34,0,.62.28.62.62v11.96c-.01.34-.29.62-.63.62Z"/>
  <path class="st0" d="M270.39,69.96h0c-.34,0-.62-.28-.62-.62l.02-11.96c0-.34.28-.62.62-.62h0c.34,0,.62.28.62.62l-.02,11.96c0,.34-.28.62-.62.62Z"/>
  <path class="st0" d="M270.42,51.04h0c-.34,0-.62-.28-.62-.62l.03-11.95c0-.34.28-.62.62-.62h0c.34,0,.62.28.62.62l-.03,11.95c0,.34-.28.62-.62.62Z"/>
  <path class="st0" d="M270.46,32.11h0c-.34,0-.62-.28-.62-.62l.03-11.95c0-.34.28-.62.62-.62h0c.34,0,.62.28.62.62l-.03,11.95c0,.34-.28.62-.62.62Z"/>
  <path class="st0" d="M270.52,13.19h0c-.34,0-.62-.28-.62-.62l.04-11.95c0-.34.28-.62.62-.62h0c.34,0,.62.28.62.62l-.04,11.95c0,.34-.28.62-.62.62Z"/>
  <path class="st0" d="M259.97,300h-.01c-.34,0-.61-.29-.61-.63.08-4.04.15-8.01.21-11.92,0-.34.28-.61.62-.61h0c.34,0,.62.29.61.63-.06,3.91-.13,7.89-.21,11.92,0,.34-.28.61-.62.61Z"/>
  <path class="st0" d="M260.27,282.1h0c-.34,0-.62-.29-.61-.63.06-4.08.11-8.07.14-11.95,0-.34.32-.61.63-.61.34,0,.62.28.61.63-.04,3.88-.09,7.87-.14,11.95,0,.34-.28.61-.62.61Z"/>
  <path class="st0" d="M260.46,264.18h0c-.34,0-.62-.28-.62-.62.03-4.13.05-8.12.05-11.95,0-.34.28-.62.62-.62h0c.34,0,.62.28.62.62,0,3.83-.02,7.82-.05,11.96,0,.34-.28.61-.62.61Z"/>
  <path class="st0" d="M260.5,246.25c-.34,0-.62-.28-.62-.62-.02-4.28-.05-8.3-.11-11.94,0-.34.27-.62.61-.63.32.03.62.27.63.61.06,3.65.09,7.68.11,11.96,0,.34-.28.62-.62.62h0Z"/>
  <path class="st0" d="M260.27,228.33c-.34,0-.61-.27-.62-.6-.08-3.25-.18-6.22-.3-8.8-.04-.98-.09-2.02-.13-3.14-.01-.34.25-.63.6-.64h.02c.33,0,.61.26.62.6.04,1.11.08,2.15.13,3.12.12,2.59.22,5.56.3,8.83,0,.34-.26.63-.6.64h-.02Z"/>
  <path class="st0" d="M259.66,210.41c-.33,0-.61-.27-.62-.6-.1-3.56-.19-7.56-.27-11.96,0-.34.27-.63.61-.63.33-.05.63.27.63.61.08,4.39.17,8.39.27,11.95,0,.34-.26.63-.6.64h-.02Z"/>
  <path class="st0" d="M259.29,192.48c-.34,0-.61-.27-.62-.61-.06-3.76-.11-7.75-.15-11.96,0-.34.27-.62.61-.63h0c.34,0,.62.27.62.61.05,4.2.1,8.19.15,11.95,0,.34-.27.62-.61.63h0Z"/>
  <path class="st0" d="M259.08,174.55c-.34,0-.62-.27-.62-.61-.04-3.84-.07-7.83-.1-11.96,0-.34.27-.62.62-.62h0c.34,0,.62.27.62.62.03,4.12.06,8.11.1,11.95,0,.34-.27.62-.61.63h0Z"/>
  <path class="st0" d="M258.94,156.62c-.34,0-.62-.27-.62-.62-.02-3.88-.04-7.87-.06-11.95,0-.34.27-.62.62-.62h0c.34,0,.62.28.62.62.02,4.08.04,8.07.06,11.95,0,.34-.27.62-.62.62h0Z"/>
  <path class="st0" d="M258.86,138.69c-.34,0-.62-.28-.62-.62-.01-3.91-.02-7.9-.03-11.95,0-.34.28-.62.62-.62h0c.34,0,.62.28.62.62,0,4.05.02,8.04.03,11.95,0,.34-.28.62-.62.62h0Z"/>
  <path class="st0" d="M258.82,120.76c-.34,0-.62-.28-.62-.62,0-3.93-.01-7.92-.01-11.95,0-.34.28-.62.62-.62.34,0,.62.28.62.62,0,4.03,0,8.02.01,11.95,0,.34-.28.62-.62.62h0Z"/>
  <path class="st0" d="M258.8,102.83c-.34,0-.62-.28-.62-.62v-11.95c0-.34.28-.62.62-.62h0c.34,0,.62.28.62.62v11.95c0,.34-.28.62-.62.62Z"/>
  <path class="st0" d="M258.81,84.9h0c-.34,0-.62-.28-.62-.62l.02-11.95c0-.34.28-.62.62-.62h0c.34,0,.62.28.62.62l-.02,11.95c0,.34-.28.62-.62.62Z"/>
  <path class="st0" d="M258.84,66.97h0c-.34,0-.62-.28-.62-.62l.03-11.95c0-.34.28-.62.62-.62h0c.34,0,.62.28.62.62l-.03,11.95c0,.34-.28.62-.62.62Z"/>
  <path class="st0" d="M258.88,49.04h0c-.34,0-.62-.28-.62-.62l.04-11.95c0-.34.28-.62.62-.62h0c.34,0,.62.28.62.62l-.04,11.95c0,.34-.28.62-.62.62Z"/>
  <path class="st0" d="M258.94,31.12h0c-.34,0-.62-.28-.62-.62l.05-11.95c0-.34.28-.62.62-.62h0c.34,0,.62.28.62.62l-.05,11.95c0,.34-.28.62-.62.62Z"/>
  <path class="st0" d="M259.01,13.19h0c-.34,0-.62-.28-.62-.62l.05-11.95c0-.34.28-.62.62-.62h0c.34,0,.62.28.62.62l-.05,11.95c0,.34-.28.62-.62.62Z"/>
  <path class="st0" d="M248.97,300h-.01c-.34,0-.61-.29-.6-.63.09-4.02.18-8.01.25-11.94,0-.34.27-.65.63-.61.34,0,.61.29.61.63-.07,3.94-.16,7.93-.25,11.95,0,.34-.28.6-.62.6Z"/>
  <path class="st0" d="M249.41,276.11h0c-.34,0-.62-.28-.61-.63.05-4.05.08-8.04.1-11.94,0-.34.28-.62.62-.62h0c.34,0,.62.28.62.62-.02,3.91-.05,7.9-.1,11.95,0,.34-.28.61-.62.61Z"/>
  <path class="st0" d="M249.52,252.21c-.34,0-.62-.28-.62-.62-.02-4.1-.05-8.09-.11-11.94,0-.34.27-.62.61-.63h0c.34,0,.61.27.62.61.06,3.86.09,7.85.11,11.96,0,.34-.27.62-.62.62h0Z"/>
  <path class="st0" d="M249.14,228.31c-.33,0-.61-.26-.62-.6-.09-3.03-.2-5.95-.33-8.76-.05-1.03-.09-2.08-.14-3.18-.01-.34.25-.63.59-.64.38.01.63.25.64.59.04,1.09.09,2.15.14,3.17.13,2.81.23,5.74.33,8.78.01.34-.26.63-.6.64h-.02Z"/>
  <path class="st0" d="M248.28,204.42c-.33,0-.61-.27-.62-.6-.11-3.75-.2-7.74-.29-11.96,0-.34.26-.63.61-.63h.01c.34,0,.61.27.62.61.09,4.21.18,8.2.29,11.95,0,.34-.26.63-.6.64h-.02Z"/>
  <path class="st0" d="M247.78,180.52c-.34,0-.61-.27-.62-.61-.06-3.85-.11-7.84-.16-11.95,0-.34.27-.62.61-.63h0c.34,0,.62.27.62.61.05,4.11.1,8.1.16,11.95,0,.34-.27.62-.61.63h0Z"/>
  <path class="st0" d="M247.49,156.62c-.34,0-.62-.27-.62-.61-.04-3.9-.07-7.89-.09-11.96,0-.34.27-.62.62-.62h0c.34,0,.62.27.62.62.03,4.07.06,8.05.09,11.95,0,.34-.27.62-.61.63h0Z"/>
  <path class="st0" d="M247.33,132.71c-.34,0-.62-.28-.62-.62-.02-3.93-.03-7.92-.05-11.95,0-.34.28-.62.62-.62h0c.34,0,.62.28.62.62.01,4.04.03,8.02.05,11.95,0,.34-.27.62-.62.62h0Z"/>
  <path class="st0" d="M247.26,108.8c-.34,0-.62-.28-.62-.62,0-3.95-.01-7.94-.01-11.95,0-.34.28-.62.62-.62.34,0,.62.28.62.62,0,4.02,0,8,.01,11.95,0,.34-.28.62-.62.62h0Z"/>
  <path class="st0" d="M247.25,84.9h0c-.34,0-.62-.28-.62-.62,0-3.97,0-7.95.01-11.95,0-.34.28-.62.62-.62h0c.34,0,.62.28.62.62,0,4-.01,7.99-.01,11.95,0,.34-.28.62-.62.62Z"/>
  <path class="st0" d="M247.29,60.99h0c-.34,0-.62-.28-.62-.62,0-3.98.02-7.97.04-11.95,0-.34.28-.62.62-.62h0c.34,0,.62.28.62.62-.01,3.99-.03,7.97-.04,11.95,0,.34-.28.62-.62.62Z"/>
  <path class="st0" d="M247.37,37.09h0c-.34,0-.62-.28-.62-.62l.05-11.95c0-.34.28-.62.62-.62h0c.34,0,.62.28.62.62l-.05,11.95c0,.34-.28.62-.62.62Z"/>
  <path class="st0" d="M247.48,13.19h0c-.34,0-.62-.28-.62-.62l.07-11.95c0-.34.3-.62.62-.62.34,0,.62.28.62.62l-.07,11.95c0,.34-.28.62-.62.62Z"/>
  <path class="st0" d="M238.12,297.01h-.01c-.34,0-.61-.29-.6-.63.09-3.99.17-7.98.23-11.94,0-.34.31-.6.63-.61.34,0,.62.29.61.63-.06,3.97-.14,7.96-.23,11.95,0,.34-.28.6-.62.6Z"/>
  <path class="st0" d="M238.45,278.09h0c-.34,0-.62-.28-.61-.63.05-4.01.07-7.99.08-11.94,0-.34.28-.62.62-.62h0c.34,0,.62.28.62.62-.01,3.96-.04,7.94-.08,11.95,0,.34-.28.61-.62.61Z"/>
  <path class="st0" d="M238.53,259.17c-.34,0-.62-.28-.62-.62-.01-4.02-.04-8.01-.1-11.94,0-.34.27-.62.61-.63.32-.03.62.27.63.61.05,3.94.09,7.93.1,11.96,0,.34-.28.62-.62.62h0Z"/>
  <path class="st0" d="M238.32,240.25c-.34,0-.61-.27-.62-.61-.08-4.05-.19-8.07-.32-11.94-.01-.34.26-.63.6-.64.34-.02.63.26.64.6.13,3.88.24,7.9.32,11.95,0,.34-.26.63-.61.63h-.01Z"/>
  <path class="st0" d="M237.73,221.34c-.33,0-.6-.26-.62-.59l-.08-1.77c-.14-3.22-.28-6.62-.41-10.18-.01-.34.26-.63.6-.64h.02c.33,0,.61.26.62.6.13,3.56.26,6.95.41,10.17l.08,1.77c.01.34-.25.63-.59.65h-.03Z"/>
  <path class="st0" d="M237.01,202.43c-.33,0-.61-.26-.62-.6-.12-3.83-.23-7.82-.33-11.95,0-.34.26-.63.6-.63.34.04.63.26.63.6.1,4.13.21,8.12.33,11.94.01.34-.26.63-.6.64h-.02Z"/>
  <path class="st0" d="M236.53,183.51c-.34,0-.61-.27-.62-.61-.08-3.88-.16-7.87-.22-11.95,0-.34.27-.62.61-.63h.01c.34,0,.61.27.62.61.07,4.08.14,8.07.22,11.95,0,.34-.26.63-.61.63h-.01Z"/>
  <path class="st0" d="M236.2,164.59c-.34,0-.61-.27-.62-.61-.06-3.91-.11-7.9-.15-11.95,0-.34.27-.62.61-.63h0c.34,0,.62.27.62.61.05,4.06.1,8.04.15,11.95,0,.34-.27.62-.61.63h0Z"/>
  <path class="st0" d="M235.96,145.67c-.34,0-.62-.27-.62-.61-.04-3.93-.07-7.92-.1-11.95,0-.34.27-.62.61-.62h0c.34,0,.62.27.62.61.03,4.04.06,8.02.1,11.95,0,.34-.27.62-.61.63h0Z"/>
  <path class="st0" d="M235.82,126.74c-.34,0-.62-.27-.62-.62-.02-3.95-.04-7.93-.06-11.95,0-.34.27-.62.62-.62h0c.34,0,.62.28.62.62.02,4.02.04,8.01.06,11.95,0,.34-.27.62-.62.62h0Z"/>
  <path class="st0" d="M235.73,107.82c-.34,0-.62-.28-.62-.62-.01-3.96-.02-7.95-.03-11.95,0-.34.28-.62.62-.62h0c.34,0,.62.28.62.62,0,4.01.01,7.99.03,11.95,0,.34-.28.62-.62.62h0Z"/>
  <path class="st0" d="M235.69,88.88c-.34,0-.62-.28-.62-.62v-5.52s0-6.44,0-6.44c0-.34.28-.62.62-.62h0c.34,0,.62.28.62.62v6.44s0,5.52,0,5.52c0,.34-.28.62-.62.62Z"/>
  <path class="st0" d="M235.7,69.95h0c-.34,0-.62-.28-.62-.62,0-3.98.01-7.97.03-11.95,0-.34.28-.62.62-.62h0c.34,0,.62.28.62.62-.01,3.98-.02,7.97-.03,11.95,0,.34-.28.62-.62.62Z"/>
  <path class="st0" d="M235.75,51.03h0c-.34,0-.62-.28-.62-.62.01-3.99.03-7.98.05-11.95,0-.34.28-.62.62-.62h0c.34,0,.62.28.62.62-.02,3.97-.03,7.96-.05,11.95,0,.34-.28.62-.62.62Z"/>
  <path class="st0" d="M235.83,32.11h0c-.34,0-.62-.28-.62-.62l.07-11.95c0-.34.28-.62.62-.62h0c.34,0,.62.28.62.62l-.07,11.95c0,.34-.28.62-.62.62Z"/>
  <path class="st0" d="M235.93,13.19h0c-.34,0-.62-.28-.62-.62.03-4.01.05-8,.08-11.95,0-.34.28-.61.62-.61h0c.34,0,.62.28.61.62-.03,3.95-.06,7.93-.08,11.95,0,.34-.28.62-.62.62Z"/>
  <path class="st0" d="M221.65,300h-.01c-.34,0-.61-.29-.6-.63.09-4.02.18-8,.25-11.94,0-.34.28-.65.63-.61.34,0,.61.29.61.63-.07,3.94-.16,7.93-.25,11.95,0,.34-.28.6-.62.6Z"/>
  <path class="st0" d="M222.08,276.11h0c-.34,0-.62-.28-.61-.63.05-4.05.08-8.04.1-11.94,0-.34.28-.62.62-.62h0c.34,0,.62.28.62.62-.02,3.91-.05,7.9-.1,11.95,0,.34-.28.61-.62.61Z"/>
  <path class="st0" d="M222.19,252.21c-.34,0-.62-.28-.62-.62-.02-4.1-.05-8.09-.11-11.94,0-.34.27-.62.61-.63h0c.34,0,.61.27.62.61.06,3.86.09,7.85.11,11.96,0,.34-.28.62-.62.62Z"/>
  <path class="st0" d="M221.82,228.31c-.33,0-.61-.27-.62-.6-.09-3.11-.2-6.11-.33-8.92-.04-.98-.09-1.98-.13-3.02-.01-.34.25-.63.59-.64.38.01.63.25.64.59.04,1.03.08,2.04.13,3.01.13,2.82.24,5.82.33,8.94.01.34-.26.63-.6.64h-.02Z"/>
  <path class="st0" d="M220.96,204.42c-.33,0-.61-.27-.62-.6-.11-3.75-.2-7.74-.29-11.96,0-.34.26-.63.61-.63h.01c.34,0,.61.27.62.61.09,4.21.18,8.2.29,11.95,0,.34-.26.63-.6.64h-.02Z"/>
  <path class="st0" d="M220.46,180.52c-.34,0-.61-.27-.62-.61-.06-3.85-.11-7.84-.16-11.95,0-.34.27-.62.61-.63h0c.34,0,.62.27.62.61.05,4.11.1,8.1.16,11.95,0,.34-.27.62-.61.63h0Z"/>
  <path class="st0" d="M220.17,156.62c-.34,0-.62-.27-.62-.61-.04-3.9-.07-7.89-.09-11.96,0-.34.27-.62.62-.62h0c.34,0,.62.27.62.62.03,4.07.06,8.05.09,11.95,0,.34-.27.62-.61.63h0Z"/>
  <path class="st0" d="M220.01,132.71c-.34,0-.62-.28-.62-.62-.02-3.93-.03-7.92-.05-11.95,0-.34.28-.62.62-.62h0c.34,0,.62.28.62.62.01,4.04.03,8.02.05,11.95,0,.34-.27.62-.62.62h0Z"/>
  <path class="st0" d="M219.93,108.8c-.34,0-.62-.28-.62-.62,0-3.95-.01-7.94-.01-11.95,0-.34.28-.62.62-.62.34,0,.62.28.62.62,0,4.02,0,8,.01,11.95,0,.34-.28.62-.62.62h0Z"/>
  <path class="st0" d="M219.92,84.9h0c-.34,0-.62-.28-.62-.62,0-3.97,0-7.95.01-11.95,0-.34.28-.62.62-.62h0c.34,0,.62.28.62.62,0,4-.01,7.99-.01,11.95,0,.34-.28.62-.62.62Z"/>
  <path class="st0" d="M219.96,61h0c-.34,0-.62-.28-.62-.62l.03-11.95c0-.34.28-.62.62-.62h0c.34,0,.62.28.62.62l-.03,11.95c0,.34-.28.62-.62.62Z"/>
  <path class="st0" d="M220.03,37.09h0c-.34,0-.62-.28-.62-.62l.05-11.95c0-.34.28-.62.62-.62.38,0,.62.28.62.62l-.05,11.95c0,.34-.28.62-.62.62Z"/>
  <path class="st0" d="M220.14,13.19h0c-.34,0-.62-.28-.62-.62l.07-11.95c0-.34.28-.62.62-.62h0c.34,0,.62.28.62.62l-.07,11.95c0,.34-.28.62-.62.62Z"/>
  <path class="st0" d="M205.3,300h-.01c-.34,0-.61-.29-.61-.63.08-4.03.15-8.01.22-11.92,0-.34.28-.61.62-.61h0c.34,0,.62.29.61.63-.06,3.91-.14,7.89-.22,11.92,0,.34-.28.61-.62.61Z"/>
  <path class="st0" d="M205.6,282.1h0c-.34,0-.62-.29-.61-.63.06-4.08.11-8.07.15-11.95,0-.34.28-.61.62-.61h0c.34,0,.62.28.61.63-.04,3.88-.09,7.87-.15,11.95,0,.34-.28.61-.62.61Z"/>
  <path class="st0" d="M205.8,264.18h0c-.34,0-.62-.28-.61-.62.03-4.13.05-8.12.05-11.95,0-.34.28-.62.62-.62h0c.34,0,.62.28.62.62,0,3.83-.02,7.82-.05,11.96,0,.34-.28.61-.62.61Z"/>
  <path class="st0" d="M205.85,246.25c-.34,0-.62-.28-.62-.62-.02-4.33-.05-8.35-.11-11.94,0-.34.27-.62.61-.63h0c.34,0,.61.27.62.61.05,3.6.09,7.62.11,11.96,0,.34-.28.62-.62.62h0Z"/>
  <path class="st0" d="M205.63,228.33c-.34,0-.61-.27-.62-.6-.08-3.35-.18-6.41-.3-9.12-.04-.89-.08-1.82-.12-2.82-.01-.34.25-.63.6-.64.35-.02.63.25.64.6.04.99.08,1.92.12,2.81.12,2.72.23,5.79.3,9.15,0,.34-.26.63-.6.63h-.01Z"/>
  <path class="st0" d="M205.01,210.41c-.33,0-.61-.27-.62-.6-.1-3.55-.19-7.56-.27-11.96,0-.34.27-.63.61-.63h.01c.34,0,.61.27.62.61.08,4.4.17,8.4.27,11.95,0,.34-.26.63-.6.64h-.02Z"/>
  <path class="st0" d="M204.64,192.48c-.34,0-.61-.27-.62-.61-.06-3.76-.11-7.75-.16-11.96,0-.34.27-.62.61-.63h0c.34,0,.62.27.62.61.05,4.2.1,8.2.16,11.95,0,.34-.27.62-.61.63h0Z"/>
  <path class="st0" d="M204.43,174.55c-.34,0-.62-.27-.62-.61-.04-3.84-.07-7.83-.1-11.96,0-.34.27-.62.62-.62h0c.34,0,.62.27.62.62.03,4.12.06,8.11.1,11.95,0,.34-.27.62-.61.63h0Z"/>
  <path class="st0" d="M204.29,156.62c-.34,0-.62-.27-.62-.62-.02-3.88-.04-7.87-.06-11.96,0-.34.27-.62.62-.62h0c.34,0,.62.28.62.62.02,4.08.04,8.07.06,11.95,0,.34-.27.62-.62.62h0Z"/>
  <path class="st0" d="M204.21,138.69c-.34,0-.62-.28-.62-.62-.01-3.91-.02-7.9-.03-11.95,0-.34.28-.62.62-.62h0c.34,0,.62.28.62.62,0,4.05.02,8.04.03,11.95,0,.34-.28.62-.62.62h0Z"/>
  <path class="st0" d="M204.17,120.76c-.34,0-.62-.28-.62-.62,0-3.93-.01-7.92-.01-11.96,0-.34.28-.62.62-.62h0c.34,0,.62.28.62.62,0,4.03,0,8.02.01,11.95,0,.34-.28.62-.62.62h0Z"/>
  <path class="st0" d="M204.15,102.83c-.34,0-.62-.28-.62-.62v-11.95c0-.34.28-.62.62-.62h0c.34,0,.62.28.62.62v11.95c0,.34-.28.62-.62.62Z"/>
  <path class="st0" d="M204.16,84.9h0c-.34,0-.62-.28-.62-.62l.02-11.95c0-.34.28-.62.62-.62h0c.34,0,.62.28.62.62l-.02,11.95c0,.34-.28.62-.62.62Z"/>
  <path class="st0" d="M204.19,66.97h0c-.34,0-.62-.28-.62-.62l.03-11.95c0-.34.28-.62.62-.62h0c.34,0,.62.28.62.62l-.03,11.95c0,.34-.28.62-.62.62Z"/>
  <path class="st0" d="M204.23,49.05h0c-.34,0-.62-.28-.62-.62l.04-11.95c0-.34.28-.62.62-.62h0c.34,0,.62.28.62.62l-.04,11.95c0,.34-.28.62-.62.62Z"/>
  <path class="st0" d="M204.29,31.12c-.3,0-.62-.28-.62-.62l.05-11.95c0-.34.28-.62.62-.62h0c.34,0,.62.28.62.62l-.05,11.95c0,.34-.28.62-.62.62Z"/>
  <path class="st0" d="M204.36,13.19h0c-.34,0-.62-.28-.62-.62l.05-11.95c0-.34.28-.62.62-.62h0c.34,0,.62.28.62.62l-.05,11.95c0,.34-.28.62-.62.62Z"/>
  <path class="st0" d="M189.09,297.06h0c-.34,0-.62-.29-.61-.63.06-4.07.11-8.06.15-11.95,0-.34.28-.61.62-.61h0c.34,0,.62.28.61.63-.05,3.9-.1,7.89-.15,11.95,0,.34-.28.61-.62.61Z"/>
  <path class="st0" d="M189.32,278.14h0c-.34,0-.62-.28-.61-.63.04-4.11.08-8.1.11-11.95,0-.34.28-.61.62-.61h0c.34,0,.62.28.61.62-.03,3.84-.07,7.84-.11,11.95,0,.34-.28.61-.62.61Z"/>
  <path class="st0" d="M189.47,259.22h0c-.34,0-.62-.28-.62-.62.02-4.21.04-8.2.04-11.95,0-.34.28-.62.62-.62h0c.34,0,.62.28.62.62,0,3.75-.02,7.75-.04,11.95,0,.34-.28.62-.62.62Z"/>
  <path class="st0" d="M189.51,240.3c-.34,0-.62-.28-.62-.62-.01-4.55-.05-8.57-.1-11.94,0-.34.27-.62.61-.63h0c.34,0,.61.27.62.61.05,3.38.09,7.4.1,11.96,0,.34-.28.62-.62.62h0Z"/>
  <path class="st0" d="M189.25,221.38c-.33,0-.61-.26-.62-.6-.03-.85-.06-1.64-.09-2.36-.1-2.22-.19-5.45-.27-9.6,0-.34.27-.62.61-.63h.01c.34,0,.61.27.62.61.08,4.14.17,7.36.27,9.56.03.73.06,1.52.09,2.38.01.34-.26.63-.6.64h-.02Z"/>
  <path class="st0" d="M188.77,202.45c-.34,0-.62-.27-.62-.61-.05-3.59-.09-7.59-.13-11.96,0-.34.27-.62.61-.63.34-.03.62.27.63.61.04,4.37.08,8.37.13,11.95,0,.34-.27.62-.61.63h0Z"/>
  <path class="st0" d="M188.58,183.53c-.34,0-.62-.27-.62-.61-.03-3.78-.05-7.77-.07-11.96,0-.34.27-.62.62-.62h0c.34,0,.62.28.62.62.02,4.19.05,8.18.07,11.95,0,.34-.27.62-.61.62h0Z"/>
  <path class="st0" d="M188.48,164.6c-.34,0-.62-.28-.62-.62-.02-3.85-.03-7.84-.04-11.96,0-.34.28-.62.62-.62h0c.34,0,.62.28.62.62.01,4.11.03,8.1.04,11.95,0,.34-.27.62-.62.62h0Z"/>
  <path class="st0" d="M188.42,145.67c-.34,0-.62-.28-.62-.62l-.02-11.95c0-.34.28-.62.62-.62h0c.34,0,.62.28.62.62l.02,11.95c0,.34-.28.62-.62.62h0Z"/>
  <path class="st0" d="M188.39,126.74c-.34,0-.62-.28-.62-.62v-11.95c0-.34.27-.62.61-.62s.62.28.62.62v11.95c0,.34-.27.62-.61.62h0Z"/>
  <path class="st0" d="M188.38,107.82h0c-.34,0-.62-.28-.62-.62v-11.95c0-.34.28-.62.62-.62h0c.34,0,.62.28.62.62v11.95c0,.34-.28.62-.62.62Z"/>
  <path class="st0" d="M188.39,88.89h0c-.34,0-.62-.28-.62-.62v-11.96c.01-.34.29-.62.63-.62h0c.34,0,.62.28.62.62v11.96c-.01.34-.29.62-.63.62Z"/>
  <path class="st0" d="M188.41,69.96h0c-.34,0-.62-.28-.62-.62l.02-11.96c0-.34.28-.62.62-.62h0c.34,0,.62.28.62.62l-.02,11.96c0,.34-.28.62-.62.62Z"/>
  <path class="st0" d="M188.44,51.04h0c-.34,0-.62-.28-.62-.62l.03-11.95c0-.34.28-.62.62-.62h0c.34,0,.62.28.62.62l-.03,11.95c0,.34-.28.62-.62.62Z"/>
  <path class="st0" d="M188.49,32.11h0c-.34,0-.62-.28-.62-.62l.03-11.95c0-.34.29-.6.62-.62.34,0,.62.28.62.62l-.03,11.95c0,.34-.28.62-.62.62Z"/>
  <path class="st0" d="M188.54,13.19h0c-.34,0-.62-.28-.62-.62l.04-11.95c0-.34.28-.62.62-.62h0c.34,0,.62.28.62.62l-.04,11.95c0,.34-.28.62-.62.62Z"/>
  <path class="st0" d="M172.9,300h0c-.34,0-.62-.28-.61-.62.03-4.04.06-8,.08-11.87,0-.34.28-.62.62-.62h0c.34,0,.62.28.62.62-.02,3.87-.05,7.83-.08,11.88,0,.34-.28.61-.62.61Z"/>
  <path class="st0" d="M173.02,282.15h0c-.34,0-.62-.28-.62-.62.02-4.12.05-8.11.07-11.95,0-.34.28-.62.62-.62h0c.34,0,.62.28.62.62-.02,3.84-.04,7.84-.07,11.95,0,.34-.28.62-.62.62Z"/>
  <path class="st0" d="M173.11,264.22c-.37,0-.62-.28-.62-.62.02-4.2.04-8.2.05-11.95,0-.34.25-.61.62-.62.34,0,.62.28.62.62-.01,3.75-.03,7.75-.05,11.95,0,.34-.28.62-.62.62Z"/>
  <path class="st0" d="M173.17,246.29h0c-.34,0-.62-.28-.62-.62,0-2.42,0-4.71,0-6.86v-5.09c0-.34.27-.62.61-.62h0c.34,0,.62.28.62.62v5.09c0,2.16,0,4.45,0,6.87,0,.34-.28.62-.62.62Z"/>
  <path class="st0" d="M173.15,228.37c-.34,0-.62-.28-.62-.62-.03-4.72-.08-7.93-.15-9.52-.03-.56-.05-1.37-.07-2.42,0-.34.26-.63.61-.63h.01c.34,0,.61.27.62.61.02,1.04.05,1.84.07,2.39.07,1.61.12,4.83.15,9.57,0,.34-.27.62-.62.62h0Z"/>
  <path class="st0" d="M172.84,210.43c-.34,0-.62-.27-.62-.61-.04-3.24-.07-7.26-.09-11.96,0-.34.27-.62.62-.62h0c.34,0,.62.28.62.62.03,4.7.06,8.72.09,11.96,0,.34-.27.62-.61.63h0Z"/>
  <path class="st0" d="M172.72,192.5c-.34,0-.62-.28-.62-.62-.02-3.68-.03-7.68-.04-11.96,0-.34.28-.62.62-.62h0c.34,0,.62.28.62.62.01,4.28.03,8.28.04,11.96,0,.34-.25.6-.62.62Z"/>
  <path class="st0" d="M172.66,174.57c-.34,0-.62-.28-.62-.62,0-3.8-.02-7.8-.02-11.96,0-.34.28-.62.62-.62h0c.34,0,.62.28.62.62,0,4.16.01,8.15.02,11.95,0,.34-.28.62-.62.62h0Z"/>
  <path class="st0" d="M172.63,156.63c-.34,0-.62-.28-.62-.62v-11.96c-.01-.34.26-.62.61-.62h0c.34,0,.62.28.62.62v11.95c.01.34-.26.62-.61.62h0Z"/>
  <path class="st0" d="M172.61,138.7c-.34,0-.62-.28-.62-.62v-11.95c0-.34.27-.62.61-.62s.62.28.62.62v11.95c0,.34-.27.62-.61.62Z"/>
  <path class="st0" d="M172.6,120.77c-.34,0-.62-.28-.62-.62v-11.95c0-.34.28-.62.62-.62h0c.34,0,.62.28.62.62v11.95c0,.34-.28.62-.62.62Z"/>
  <path class="st0" d="M172.61,102.84h0c-.34,0-.62-.28-.62-.62v-11.95c0-.34.28-.62.62-.62h0c.34,0,.62.28.62.62v11.95c0,.34-.28.62-.62.62Z"/>
  <path class="st0" d="M172.62,84.91h0c-.34,0-.62-.28-.62-.62v-11.96c0-.34.29-.62.63-.62h0c.34,0,.62.28.62.62v11.96c0,.34-.29.62-.63.62Z"/>
  <path class="st0" d="M172.63,53.78h0c.34,0,.62.28.62.62v11.96c0,.34-.28.62-.62.62h0c-.34,0-.62-.28-.62-.62v-11.96c0-.34.28-.62.62-.62Z"/>
  <path class="st0" d="M172.65,49.04h0c-.34,0-.62-.28-.62-.62v-11.95c.01-.34.29-.62.63-.62h0c.34,0,.62.28.62.62v11.95c-.01.34-.29.62-.63.62Z"/>
  <path class="st0" d="M172.67,31.11h0c-.34,0-.62-.28-.62-.62l.02-11.95c0-.34.28-.62.62-.62h0c.34,0,.62.28.62.62l-.02,11.95c0,.34-.28.62-.62.62Z"/>
  <path class="st0" d="M172.69,13.19h0c-.34,0-.62-.28-.62-.62l.02-11.95c0-.34.28-.62.62-.62h0c.34,0,.62.28.62.62l-.02,11.95c0,.34-.28.62-.62.62Z"/>
  <path class="st0" d="M156.84,300c-.34,0-.62-.28-.62-.62v-11.95c0-.34.28-.62.62-.62s.62.28.62.62v11.95c0,.34-.28.62-.62.62Z"/>
  <path class="st0" d="M156.84,276.1c-.34,0-.62-.28-.62-.62v-11.95c0-.34.28-.62.62-.62s.62.28.62.62v11.95c0,.34-.28.62-.62.62Z"/>
  <path class="st0" d="M156.84,252.2c-.34,0-.62-.28-.62-.62v-11.95c0-.34.28-.62.62-.62s.62.28.62.62v11.95c0,.34-.28.62-.62.62Z"/>
  <path class="st0" d="M156.84,228.3c-.34,0-.62-.28-.62-.62v-11.95c0-.34.28-.62.62-.62s.62.28.62.62v11.95c0,.34-.28.62-.62.62Z"/>
  <path class="st0" d="M156.84,204.4c-.34,0-.62-.28-.62-.62v-11.95c0-.34.28-.62.62-.62s.62.28.62.62v11.95c0,.34-.28.62-.62.62Z"/>
  <path class="st0" d="M156.84,180.5c-.34,0-.62-.28-.62-.62v-11.95c0-.34.28-.62.62-.62s.62.28.62.62v11.95c0,.34-.28.62-.62.62Z"/>
  <path class="st0" d="M156.84,156.6c-.34,0-.62-.28-.62-.62v-11.95c0-.34.28-.62.62-.62s.62.28.62.62v11.95c0,.34-.28.62-.62.62Z"/>
  <path class="st0" d="M156.84,132.7c-.34,0-.62-.28-.62-.62v-11.95c0-.34.28-.62.62-.62s.62.28.62.62v11.95c0,.34-.28.62-.62.62Z"/>
  <path class="st0" d="M156.84,108.8c-.34,0-.62-.28-.62-.62v-11.95c0-.34.28-.62.62-.62s.62.28.62.62v11.95c0,.34-.28.62-.62.62Z"/>
  <path class="st0" d="M156.84,84.89c-.34,0-.62-.28-.62-.62v-11.95c0-.34.28-.62.62-.62s.62.28.62.62v11.95c0,.34-.28.62-.62.62Z"/>
  <path class="st0" d="M156.84,60.99c-.34,0-.62-.28-.62-.62v-11.95c0-.34.28-.62.62-.62s.62.28.62.62v11.95c0,.34-.28.62-.62.62Z"/>
  <path class="st0" d="M156.84,37.09c-.34,0-.62-.28-.62-.62v-11.95c0-.34.28-.62.62-.62s.62.28.62.62v11.95c0,.34-.28.62-.62.62Z"/>
  <path class="st0" d="M156.84,13.19c-.34,0-.62-.28-.62-.62V.62c0-.34.28-.62.62-.62s.62.28.62.62v11.95c0,.34-.28.62-.62.62Z"/>
  <path class="st0" d="M140.21,300h0c-.34,0-.62-.28-.62-.62v-11.95c.01-.34.29-.62.63-.62h0c.34,0,.62.28.62.62v11.95c-.01.34-.29.62-.63.62Z"/>
  <path class="st0" d="M140.23,281.07h0c-.34,0-.62-.28-.62-.62l.03-11.95c0-.34.28-.62.62-.62h0c.34,0,.62.28.62.62l-.03,11.95c0,.34-.28.62-.62.62Z"/>
  <path class="st0" d="M140.28,262.15h0c-.34,0-.62-.28-.62-.62.01-4.13.03-8.12.04-11.95,0-.34.28-.62.62-.62h0c.34,0,.62.28.62.62-.01,3.84-.03,7.82-.04,11.95,0,.34-.28.62-.62.62Z"/>
  <path class="st0" d="M140.35,243.22h0c-.34,0-.62-.28-.62-.62.02-4.2.04-8.19.06-11.95,0-.34.26-.57.62-.62.34,0,.62.28.62.62-.02,3.76-.04,7.75-.06,11.95,0,.34-.28.62-.62.62Z"/>
  <path class="st0" d="M140.46,224.29h0c-.34,0-.62-.28-.61-.62.03-4.39.07-8.38.11-11.96,0-.34.28-.61.62-.61h0c.34,0,.62.28.61.63-.04,3.57-.08,7.57-.11,11.95,0,.34-.28.61-.62.61Z"/>
  <path class="st0" d="M140.67,205.36h0c-.34,0-.62-.29-.61-.63.1-6.08.21-10,.33-11.99.02-.34.3-.62.66-.58.34.02.6.32.58.66-.12,1.93-.23,5.95-.33,11.93,0,.34-.28.61-.62.61Z"/>
  <path class="st0" d="M141.53,186.43h-.03c-.34-.02-.61-.31-.59-.65.14-2.92.29-6.95.43-11.96,0-.34.28-.6.62-.6h.02c.34,0,.61.3.6.64-.15,5.02-.29,9.05-.43,11.98-.02.33-.29.59-.62.59Z"/>
  <path class="st0" d="M142.16,167.48h-.02c-.34,0-.61-.29-.6-.64.1-3.67.19-7.67.29-11.96,0-.34.28-.61.62-.61h.01c.34,0,.61.29.61.63-.1,4.29-.19,8.3-.29,11.97,0,.34-.28.6-.62.6Z"/>
  <path class="st0" d="M142.6,148.54h-.01c-.34,0-.61-.29-.61-.63.08-3.81.16-7.81.24-11.96,0-.34.28-.61.62-.61h.01c.34,0,.61.29.61.63-.08,4.16-.16,8.15-.24,11.96,0,.34-.28.61-.62.61Z"/>
  <path class="st0" d="M142.97,129.6h-.01c-.34,0-.61-.29-.61-.63.07-3.88.14-7.87.21-11.96,0-.34.28-.61.62-.61h.01c.34,0,.61.29.61.63-.07,4.09-.14,8.09-.21,11.96,0,.34-.28.61-.62.61Z"/>
  <path class="st0" d="M143.3,110.66h-.01c-.34,0-.61-.29-.61-.63l.2-11.96c0-.34.32-.65.63-.61.34,0,.62.29.61.63l-.2,11.96c0,.34-.28.61-.62.61Z"/>
  <path class="st0" d="M143.6,91.72h0c-.34,0-.62-.29-.61-.63l.18-11.96c0-.34.28-.61.62-.61h0c.34,0,.62.29.61.63l-.18,11.96c0,.34-.28.61-.62.61Z"/>
  <path class="st0" d="M143.89,72.79h0c-.34,0-.62-.29-.61-.63l.18-11.96c0-.34.31-.61.63-.61.34,0,.62.29.61.63l-.18,11.96c0,.34-.28.61-.62.61Z"/>
  <path class="st0" d="M144.17,53.86h0c-.34,0-.62-.29-.61-.63l.17-11.96c0-.34.28-.61.62-.61h0c.34,0,.62.29.61.63l-.17,11.96c0,.34-.28.61-.62.61Z"/>
  <path class="st0" d="M144.44,34.9h0c-.34,0-.62-.29-.61-.63l.17-11.96c0-.34.28-.61.62-.61h0c.34,0,.62.29.61.63l-.17,11.96c0,.34-.28.61-.62.61Z"/>
  <path class="st0" d="M144.7,15.96h0c-.34,0-.62-.29-.61-.63l.17-11.96c0-.34.28-.61.62-.61h0c.34,0,.62.29.61.63l-.17,11.96c0,.34-.28.61-.62.61Z"/>
  <path class="st0" d="M123.6,300h0c-.34,0-.62-.28-.62-.62,0-4.06.02-8.05.03-11.95,0-.34.28-.62.62-.62h0c.34,0,.62.28.62.62-.01,3.91-.02,7.89-.03,11.95,0,.34-.28.62-.62.62Z"/>
  <path class="st0" d="M123.68,276.09h0c-.34,0-.62-.28-.62-.62.02-4.1.04-8.08.06-11.95,0-.34.28-.62.62-.62h0c.34,0,.62.28.62.62-.02,3.87-.04,7.86-.06,11.95,0,.34-.28.62-.62.62Z"/>
  <path class="st0" d="M123.82,252.19h0c-.34,0-.62-.28-.61-.62.03-4.16.07-8.15.11-11.96,0-.34.28-.61.62-.61h0c.34,0,.62.28.61.63-.04,3.81-.08,7.79-.11,11.95,0,.34-.28.61-.62.61Z"/>
  <path class="st0" d="M124.08,228.28h0c-.34,0-.62-.29-.61-.63.06-4.32.13-8.31.21-11.96,0-.34.3-.61.63-.61.34,0,.61.29.61.63-.08,3.64-.14,7.64-.21,11.95,0,.34-.28.61-.62.61Z"/>
  <path class="st0" d="M124.61,204.38h-.02c-.34-.01-.61-.3-.6-.64.21-6.06.45-10.1.72-12,.05-.34.37-.57.7-.53.34.05.57.36.53.7-.27,1.85-.51,5.85-.71,11.87-.01.33-.29.6-.62.6Z"/>
  <path class="st0" d="M126.52,180.53s-.03,0-.04,0c-.34-.02-.6-.32-.57-.66.23-3.33.48-7.35.73-11.94.02-.33.29-.59.62-.59.01,0,.02,0,.03,0,.34.02.6.31.59.65-.25,4.6-.49,8.62-.73,11.96-.02.33-.3.58-.62.58Z"/>
  <path class="st0" d="M127.84,156.63h-.03c-.34-.02-.61-.31-.59-.65.17-3.77.35-7.76.52-11.95.01-.34.32-.59.64-.59.34.01.61.3.59.64-.17,4.19-.35,8.18-.52,11.95-.02.33-.29.59-.62.59Z"/>
  <path class="st0" d="M128.84,132.73h-.02c-.34-.01-.61-.3-.6-.64.15-3.87.3-7.86.45-11.95.01-.34.27-.58.64-.6.34.01.61.3.6.64-.15,4.09-.3,8.09-.45,11.96-.01.33-.29.6-.62.6Z"/>
  <path class="st0" d="M129.71,108.82h-.02c-.34-.01-.61-.3-.6-.64.14-3.92.27-7.91.4-11.95.01-.34.29-.62.64-.6.34.01.61.3.6.64-.13,4.05-.27,8.04-.4,11.96-.01.33-.29.6-.62.6Z"/>
  <path class="st0" d="M130.5,84.91h-.02c-.34-.01-.61-.3-.6-.64.13-3.95.25-7.94.38-11.96.01-.34.29-.6.62-.6h.02c.34.01.61.3.6.64-.12,4.02-.25,8-.38,11.96-.01.34-.29.6-.62.6Z"/>
  <path class="st0" d="M131.24,60.99h-.02c-.34-.01-.61-.3-.6-.64l.36-11.95c0-.34.26-.61.64-.6.34,0,.61.3.6.64l-.36,11.95c0,.34-.29.6-.62.6Z"/>
  <path class="st0" d="M131.95,37.08h-.02c-.34,0-.61-.3-.6-.64l.35-11.96c0-.34.3-.64.64-.6.34,0,.61.3.6.64l-.35,11.96c0,.34-.28.6-.62.6Z"/>
  <path class="st0" d="M132.64,13.17h-.02c-.34,0-.61-.29-.6-.64l.34-11.93c0-.34.29-.64.64-.6.34,0,.61.29.6.64l-.34,11.93c0,.34-.28.6-.62.6Z"/>
  <path class="st0" d="M107,300h0c-.34,0-.62-.28-.62-.62.02-4.06.03-8.05.06-11.95,0-.34.28-.62.62-.62h0c.34,0,.62.28.62.62-.02,3.9-.04,7.89-.06,11.95,0,.34-.28.62-.62.62Z"/>
  <path class="st0" d="M107.1,282.07h0c-.34,0-.62-.28-.62-.62.03-4.08.06-8.07.09-11.95,0-.34.28-.57.63-.61.34,0,.62.28.61.63-.03,3.88-.06,7.87-.09,11.95,0,.34-.28.62-.62.62Z"/>
  <path class="st0" d="M107.24,264.14h0c-.34,0-.62-.28-.61-.63.04-4.12.09-8.11.14-11.95,0-.34.28-.61.62-.61h0c.34,0,.62.28.61.63-.05,3.85-.1,7.83-.14,11.95,0,.34-.28.61-.62.61Z"/>
  <path class="st0" d="M107.46,246.21h0c-.34,0-.62-.29-.61-.63.06-4.18.13-8.17.21-11.96,0-.34.28-.61.62-.61h.01c.34,0,.61.29.61.63-.07,3.79-.14,7.77-.21,11.95,0,.34-.28.61-.62.61Z"/>
  <path class="st0" d="M107.79,228.29h-.01c-.34,0-.61-.29-.6-.63.1-4.3.21-8.3.33-11.96.01-.34.3-.62.64-.6.34.01.61.3.6.64-.12,3.65-.23,7.64-.33,11.94,0,.34-.28.6-.62.6Z"/>
  <path class="st0" d="M108.33,210.36h-.02c-.34-.01-.61-.3-.6-.64.19-4.83.41-8.85.64-11.96.03-.34.33-.6.66-.57.34.03.6.32.57.66-.23,3.1-.45,7.11-.64,11.92-.01.33-.29.6-.62.6Z"/>
  <path class="st0" d="M109.58,192.48s-.06,0-.1,0c-.34-.05-.57-.37-.52-.71.03-.2.06-.39.09-.57.45-2.6.94-6.39,1.43-11.27.03-.34.34-.59.68-.55.34.03.59.34.55.68-.5,4.91-.98,8.73-1.44,11.36-.03.17-.06.35-.09.54-.05.31-.31.53-.61.53Z"/>
  <path class="st0" d="M111.67,174.65s-.04,0-.06,0c-.34-.03-.59-.33-.56-.67.32-3.55.64-7.56.97-11.92.03-.34.32-.59.66-.57.34.03.6.32.57.66-.33,4.37-.65,8.38-.97,11.93-.03.32-.3.57-.62.57Z"/>
  <path class="st0" d="M113.07,156.76s-.03,0-.04,0c-.34-.02-.6-.32-.57-.66.27-3.78.53-7.76.8-11.93.02-.34.31-.6.66-.58.34.02.6.32.58.66-.27,4.17-.53,8.16-.8,11.94-.02.33-.3.58-.62.58Z"/>
  <path class="st0" d="M114.24,138.85s-.03,0-.04,0c-.34-.02-.6-.32-.58-.66.24-3.85.47-7.84.71-11.94.02-.34.31-.62.65-.58.34.02.6.31.58.65-.24,4.1-.47,8.09-.71,11.94-.02.33-.29.58-.62.58Z"/>
  <path class="st0" d="M115.29,120.94s-.02,0-.04,0c-.34-.02-.6-.31-.58-.65.22-3.9.44-7.88.65-11.94.02-.34.33-.6.65-.59.34.02.6.31.59.65-.22,4.06-.43,8.05-.65,11.94-.02.33-.29.58-.62.58Z"/>
  <path class="st0" d="M116.26,103.03h-.03c-.34-.02-.6-.31-.59-.65.21-3.93.41-7.91.61-11.94.02-.34.3-.6.65-.59.34.02.6.31.59.65-.2,4.03-.41,8.02-.62,11.95-.02.33-.29.59-.62.59Z"/>
  <path class="st0" d="M117.18,85.11h-.03c-.34-.02-.6-.31-.59-.65.2-3.95.39-7.93.59-11.95.02-.34.31-.59.65-.59.34.02.61.31.59.65-.19,4.01-.39,8-.59,11.95-.02.33-.29.59-.62.59Z"/>
  <path class="st0" d="M118.05,67.19h-.03c-.34-.02-.61-.31-.59-.65.19-3.97.38-7.95.57-11.94.02-.34.33-.59.65-.59.34.02.61.31.59.65-.19,3.99-.38,7.97-.57,11.94-.02.33-.29.59-.62.59Z"/>
  <path class="st0" d="M118.89,49.28h-.03c-.34-.02-.61-.31-.59-.65l.55-11.95c.02-.34.28-.57.65-.59.34.02.61.31.59.65l-.55,11.95c-.02.33-.29.59-.62.59Z"/>
  <path class="st0" d="M119.71,31.35h-.03c-.34-.02-.61-.31-.59-.65l.54-11.95c.02-.34.32-.58.65-.59.34.02.61.31.59.65l-.54,11.95c-.02.33-.29.59-.62.59Z"/>
  <path class="st0" d="M120.52,13.43h-.03c-.34-.02-.61-.31-.59-.65l.53-11.95c.02-.34.32-.6.65-.59.34.02.61.31.59.65l-.53,11.95c-.02.33-.29.59-.62.59Z"/>
  <path class="st0" d="M90.42,300h0c-.34,0-.62-.28-.62-.62.02-4.06.05-8.05.09-11.95,0-.34.28-.61.62-.61h0c.34,0,.62.28.61.62-.03,3.91-.06,7.89-.09,11.95,0,.34-.28.62-.62.62Z"/>
  <path class="st0" d="M90.57,281.08h0c-.34,0-.62-.28-.61-.63.04-4.08.08-8.07.14-11.95,0-.34.3-.57.63-.61.34,0,.62.28.61.63-.05,3.88-.1,7.87-.14,11.95,0,.34-.28.61-.62.61Z"/>
  <path class="st0" d="M90.8,262.15h0c-.34,0-.62-.29-.61-.63.06-4.12.13-8.11.2-11.96,0-.34.26-.6.63-.61.34,0,.61.29.61.63-.07,3.85-.14,7.83-.2,11.95,0,.34-.28.61-.62.61Z"/>
  <path class="st0" d="M91.15,243.23h-.01c-.34,0-.61-.29-.61-.63.09-4.18.2-8.17.31-11.95,0-.34.28-.6.62-.6h.02c.34,0,.61.3.6.64-.11,3.78-.21,7.77-.31,11.94,0,.34-.28.61-.62.61Z"/>
  <path class="st0" d="M91.69,224.31h-.02c-.34-.01-.61-.3-.6-.64.15-4.38.32-8.4.5-11.95.02-.34.32-.6.65-.59.34.02.6.31.59.65-.18,3.54-.35,7.56-.5,11.93-.01.34-.29.6-.62.6Z"/>
  <path class="st0" d="M92.59,205.4s-.03,0-.04,0c-.34-.02-.6-.32-.58-.66.33-5.06.7-9.08,1.1-11.95.05-.34.36-.57.7-.53.34.05.58.36.53.7-.4,2.83-.76,6.82-1.09,11.86-.02.33-.29.58-.62.58Z"/>
  <path class="st0" d="M94.77,186.61s-.06,0-.09,0c-.34-.05-.57-.36-.52-.7.49-3.36,1-7.35,1.51-11.85.04-.34.35-.59.69-.55.34.04.58.35.55.69-.52,4.52-1.03,8.52-1.52,11.89-.04.31-.31.53-.61.53Z"/>
  <path class="st0" d="M97.04,167.8s-.04,0-.07,0c-.34-.04-.59-.34-.55-.68.38-3.67.78-7.68,1.17-11.9.03-.34.33-.59.67-.56s.59.33.56.67c-.39,4.22-.79,8.23-1.17,11.91-.03.32-.3.56-.62.56Z"/>
  <path class="st0" d="M98.85,148.95s-.04,0-.06,0c-.34-.03-.59-.33-.56-.67.34-3.83.68-7.81,1.02-11.91.03-.34.34-.61.67-.57.34.03.59.33.57.67-.34,4.11-.68,8.09-1.02,11.92-.03.32-.3.57-.62.57Z"/>
  <path class="st0" d="M100.44,130.08s-.03,0-.05,0c-.34-.03-.6-.33-.57-.67.31-3.88.62-7.86.93-11.92.03-.34.33-.59.67-.57.34.03.6.32.57.67-.31,4.06-.62,8.04-.93,11.93-.03.32-.3.57-.62.57Z"/>
  <path class="st0" d="M101.89,111.2s-.03,0-.05,0c-.34-.03-.6-.32-.57-.66.29-3.92.58-7.89.87-11.93.02-.34.32-.61.66-.57.34.02.6.32.57.66-.29,4.03-.58,8.01-.87,11.93-.02.33-.3.57-.62.57Z"/>
  <path class="st0" d="M103.26,92.31s-.03,0-.04,0c-.34-.02-.6-.32-.57-.66.28-3.94.55-7.92.83-11.93.02-.34.35-.59.66-.58.34.02.6.32.58.66-.27,4.01-.55,7.99-.83,11.93-.02.33-.3.58-.62.58Z"/>
  <path class="st0" d="M104.55,73.42s-.03,0-.04,0c-.34-.02-.6-.32-.58-.66.27-3.96.53-7.93.79-11.92.02-.34.31-.61.66-.58.34.02.6.32.58.66-.26,3.99-.53,7.97-.79,11.93-.02.33-.29.58-.62.58Z"/>
  <path class="st0" d="M105.8,54.54s-.03,0-.04,0c-.34-.02-.6-.32-.58-.66.26-3.98.52-7.96.77-11.94.02-.34.31-.61.66-.58.34.02.6.32.58.66-.25,3.98-.51,7.96-.77,11.94-.02.33-.29.58-.62.58Z"/>
  <path class="st0" d="M107.02,35.63s-.03,0-.04,0c-.34-.02-.6-.32-.58-.66l.75-11.94c.02-.34.32-.6.66-.58.34.02.6.32.58.66l-.75,11.94c-.02.33-.29.58-.62.58Z"/>
  <path class="st0" d="M108.2,16.73s-.03,0-.04,0c-.34-.02-.6-.32-.58-.66l.74-11.94c.02-.34.34-.61.66-.58.34.02.6.32.58.66l-.74,11.94c-.02.33-.29.58-.62.58Z"/>
  <path class="st0" d="M73.85,300h0c-.34,0-.62-.28-.61-.63.04-4.06.07-8.04.12-11.95,0-.34.28-.61.62-.61h0c.34,0,.62.28.61.63-.05,3.91-.09,7.89-.12,11.95,0,.34-.28.61-.62.61Z"/>
  <path class="st0" d="M74.05,282.07h0c-.34,0-.62-.29-.61-.63.05-4.08.11-8.06.18-11.95,0-.34.28-.61.62-.61h.01c.34,0,.61.29.61.63-.07,3.89-.13,7.87-.18,11.95,0,.34-.28.61-.62.61Z"/>
  <path class="st0" d="M74.34,264.15h-.01c-.34,0-.61-.29-.61-.63.08-4.11.17-8.1.26-11.95,0-.34.28-.6.62-.6h.02c.34,0,.61.29.6.64-.09,3.86-.18,7.84-.26,11.95,0,.34-.28.61-.62.61Z"/>
  <path class="st0" d="M74.76,246.22h-.02c-.34,0-.61-.29-.6-.64.12-4.16.24-8.15.38-11.95.01-.34.26-.58.64-.6.34.01.61.3.6.64-.14,3.8-.26,7.79-.38,11.94,0,.34-.28.6-.62.6Z"/>
  <path class="st0" d="M75.36,228.3h-.03c-.34-.01-.61-.3-.59-.64.18-4.24.37-8.26.57-11.95.02-.34.31-.62.65-.58.34.02.6.31.58.65-.2,3.68-.4,7.69-.57,11.93-.01.33-.29.59-.62.59Z"/>
  <path class="st0" d="M76.3,210.4s-.03,0-.04,0c-.34-.02-.6-.32-.58-.66.31-4.58.64-8.6,1-11.94.04-.34.35-.59.68-.55.34.04.59.34.55.68-.36,3.32-.69,7.32-1,11.89-.02.33-.29.58-.62.58Z"/>
  <path class="st0" d="M78.07,192.56s-.07,0-.1,0c-.34-.05-.57-.37-.51-.71l.15-.9c.56-3.19,1.14-6.86,1.72-10.9.05-.34.37-.57.7-.53.34.05.57.36.53.7-.59,4.05-1.17,7.73-1.73,10.93l-.15.89c-.05.31-.31.52-.61.52Z"/>
  <path class="st0" d="M80.78,174.82s-.06,0-.08,0c-.34-.05-.58-.36-.53-.7.49-3.61,1-7.6,1.52-11.85.04-.34.35-.58.69-.54.34.04.58.35.54.69-.52,4.26-1.03,8.25-1.52,11.87-.04.31-.31.54-.61.54Z"/>
  <path class="st0" d="M83.01,157.02s-.05,0-.07,0c-.34-.04-.58-.35-.54-.69.45-3.81.89-7.78,1.34-11.88.04-.34.34-.58.68-.55.34.04.59.34.55.68-.45,4.1-.9,8.07-1.34,11.89-.04.32-.3.55-.61.55Z"/>
  <path class="st0" d="M84.99,139.19s-.04,0-.07,0c-.34-.04-.59-.34-.55-.68.41-3.87.82-7.84,1.23-11.89.03-.34.34-.59.68-.55.34.03.59.34.55.68-.41,4.06-.82,8.03-1.23,11.9-.03.32-.3.55-.62.55Z"/>
  <path class="st0" d="M86.81,121.35s-.04,0-.06,0c-.34-.03-.59-.34-.56-.68.39-3.9.77-7.87,1.15-11.9.03-.34.35-.58.68-.56.34.03.59.33.56.67-.38,4.03-.77,8-1.15,11.91-.03.32-.3.56-.62.56Z"/>
  <path class="st0" d="M88.53,103.5s-.04,0-.06,0c-.34-.03-.59-.33-.56-.67.37-3.93.73-7.9,1.1-11.91.03-.34.34-.6.67-.56.34.03.59.33.56.67-.36,4.01-.73,7.98-1.1,11.91-.03.32-.3.56-.62.56Z"/>
  <path class="st0" d="M90.16,85.63s-.04,0-.06,0c-.34-.03-.59-.33-.56-.67.35-3.94.71-7.92,1.06-11.91.03-.34.33-.61.67-.56.34.03.59.33.56.67-.35,3.99-.7,7.97-1.06,11.91-.03.32-.3.56-.62.56Z"/>
  <path class="st0" d="M91.73,67.78s-.04,0-.05,0c-.34-.03-.59-.33-.56-.67.34-3.96.68-7.93,1.02-11.91.03-.34.34-.6.67-.57.34.03.59.33.57.67-.34,3.98-.68,7.95-1.02,11.91-.03.32-.3.57-.62.57Z"/>
  <path class="st0" d="M93.26,49.91s-.04,0-.05,0c-.34-.03-.59-.33-.57-.67.34-3.98.67-7.96,1-11.92.03-.34.34-.61.67-.57.34.03.59.33.57.67-.33,3.96-.66,7.94-1,11.92-.03.32-.3.57-.62.57Z"/>
  <path class="st0" d="M94.75,32.03s-.04,0-.05,0c-.34-.03-.6-.33-.57-.67.33-4,.66-7.97.98-11.92.03-.34.33-.6.67-.57.34.03.6.33.57.67-.32,3.95-.65,7.92-.98,11.92-.03.32-.3.57-.62.57Z"/>
  <path class="st0" d="M96.21,14.15s-.03,0-.05,0c-.34-.03-.6-.33-.57-.67l.96-11.92c.03-.34.33-.6.67-.57.34.03.6.33.57.67l-.96,11.92c-.03.32-.3.57-.62.57Z"/>
  <path class="st0" d="M65.3,300h0c-.34,0-.62-.28-.62-.62.02-4.06.05-8.05.09-11.95,0-.34.28-.61.62-.61h0c.34,0,.62.28.61.62-.03,3.91-.06,7.89-.09,11.95,0,.34-.28.62-.62.62Z"/>
  <path class="st0" d="M65.5,276.1h0c-.34,0-.62-.28-.61-.63.04-4.09.1-8.08.15-11.95,0-.34.33-.59.63-.61.34,0,.62.29.61.63-.06,3.87-.11,7.86-.15,11.95,0,.34-.28.61-.62.61Z"/>
  <path class="st0" d="M65.85,252.19h-.01c-.34,0-.61-.29-.61-.63.08-4.15.16-8.14.25-11.95,0-.34.25-.63.63-.6.34,0,.61.29.6.63-.09,3.82-.18,7.8-.25,11.95,0,.34-.28.61-.62.61Z"/>
  <path class="st0" d="M66.43,228.29h-.02c-.34-.01-.61-.3-.6-.64.14-4.34.29-8.36.45-11.95.01-.34.31-.6.65-.59.34.02.61.31.59.65-.16,3.59-.31,7.6-.45,11.94-.01.34-.29.6-.62.6Z"/>
  <path class="st0" d="M67.53,204.41s-.03,0-.04,0c-.34-.02-.6-.32-.58-.66.35-5.2.75-9.22,1.19-11.95.05-.34.37-.57.71-.51.34.05.57.37.51.71-.43,2.7-.83,6.68-1.18,11.84-.02.33-.29.58-.62.58Z"/>
  <path class="st0" d="M70.46,180.68s-.05,0-.08,0c-.34-.04-.58-.35-.54-.69.44-3.48.9-7.48,1.36-11.87.04-.34.34-.58.68-.55.34.04.59.34.55.68-.47,4.4-.93,8.4-1.37,11.9-.04.31-.31.54-.61.54Z"/>
  <path class="st0" d="M73,156.89s-.04,0-.06,0c-.34-.03-.59-.33-.56-.68.36-3.79.72-7.77,1.07-11.91.03-.34.33-.6.67-.56.34.03.59.33.56.67-.36,4.14-.72,8.12-1.07,11.92-.03.32-.3.56-.62.56Z"/>
  <path class="st0" d="M75.07,133.06s-.03,0-.05,0c-.34-.03-.6-.33-.57-.67.31-3.87.63-7.85.94-11.92.03-.34.33-.61.67-.57.34.03.6.32.57.67-.31,4.07-.63,8.05-.94,11.93-.03.32-.3.57-.62.57Z"/>
  <path class="st0" d="M76.92,109.21s-.03,0-.05,0c-.34-.03-.6-.32-.57-.66.29-3.92.58-7.9.86-11.93.02-.34.35-.61.66-.57.34.02.6.32.57.66-.29,4.03-.58,8.01-.86,11.93-.02.33-.3.57-.62.57Z"/>
  <path class="st0" d="M78.62,85.36s-.03,0-.04,0c-.34-.02-.6-.32-.58-.66.27-3.95.54-7.93.81-11.93.02-.34.32-.59.66-.58.34.02.6.32.58.66-.27,4-.54,7.98-.81,11.93-.02.33-.29.58-.62.58Z"/>
  <path class="st0" d="M80.22,61.5s-.03,0-.04,0c-.34-.02-.6-.32-.58-.66.26-3.97.52-7.95.78-11.93.02-.34.31-.61.66-.58.34.02.6.32.58.66-.26,3.98-.52,7.96-.78,11.93-.02.33-.29.58-.62.58Z"/>
  <path class="st0" d="M81.76,37.63s-.03,0-.04,0c-.34-.02-.6-.32-.58-.66l.75-11.93c.02-.34.31-.6.66-.58.34.02.6.32.58.66l-.75,11.93c-.02.33-.29.58-.62.58Z"/>
  <path class="st0" d="M83.26,13.76s-.03,0-.04,0c-.34-.02-.6-.32-.58-.66l.74-11.93c.02-.34.3-.61.66-.58.34.02.6.32.58.66l-.74,11.94c-.02.33-.29.58-.62.58Z"/>
  <path class="st0" d="M56.75,300h0c-.34,0-.62-.28-.62-.62.02-4.06.03-8.05.06-11.96,0-.34.28-.62.62-.62h0c.34,0,.62.28.62.62-.02,3.91-.04,7.89-.06,11.95,0,.34-.28.62-.62.62Z"/>
  <path class="st0" d="M56.85,281.07h0c-.34,0-.62-.28-.62-.62.03-4.09.06-8.07.09-11.95,0-.34.28-.61.62-.61h0c.34,0,.62.28.61.63-.03,3.88-.07,7.87-.09,11.95,0,.34-.28.62-.62.62Z"/>
  <path class="st0" d="M57.01,262.15h0c-.34,0-.62-.28-.61-.63.04-4.12.09-8.11.14-11.95,0-.34.29-.64.63-.61.34,0,.62.29.61.63-.05,3.84-.1,7.83-.14,11.95,0,.34-.28.61-.62.61Z"/>
  <path class="st0" d="M57.26,243.23h0c-.34,0-.62-.29-.61-.63.07-4.19.14-8.18.22-11.95,0-.34.31-.58.63-.61.34,0,.61.29.61.63-.08,3.77-.15,7.76-.22,11.95,0,.34-.28.61-.62.61Z"/>
  <path class="st0" d="M57.64,224.3h-.02c-.34,0-.61-.29-.6-.64.11-4.42.24-8.45.37-11.96.01-.34.31-.59.64-.6.34.01.61.3.6.64-.13,3.5-.26,7.52-.37,11.94,0,.34-.28.6-.62.6Z"/>
  <path class="st0" d="M58.31,205.39h-.03c-.34-.02-.6-.31-.59-.65.27-5.39.57-9.41.91-11.97.04-.34.37-.58.7-.53.34.04.58.36.53.7-.33,2.52-.63,6.52-.9,11.87-.02.33-.29.59-.62.59Z"/>
  <path class="st0" d="M60.22,186.56s-.05,0-.08,0c-.34-.04-.58-.35-.54-.69.39-3.17.8-7.17,1.22-11.88.03-.34.33-.61.67-.56.34.03.59.33.56.67-.42,4.73-.83,8.74-1.22,11.93-.04.31-.31.54-.61.54Z"/>
  <path class="st0" d="M62.02,167.69s-.03,0-.05,0c-.34-.03-.6-.33-.57-.67.29-3.7.59-7.68.88-11.92.02-.34.32-.6.66-.58.34.02.6.32.58.66-.3,4.25-.59,8.24-.88,11.94-.03.32-.3.57-.62.57Z"/>
  <path class="st0" d="M63.38,148.8s-.03,0-.04,0c-.34-.02-.6-.32-.58-.66.25-3.82.5-7.81.75-11.93.02-.34.28-.62.66-.58.34.02.6.31.58.66-.25,4.13-.5,8.12-.75,11.94-.02.33-.29.58-.62.58Z"/>
  <path class="st0" d="M64.54,129.9s-.03,0-.04,0c-.34-.02-.6-.31-.58-.65.23-3.88.45-7.86.68-11.94.02-.34.31-.61.65-.58.34.02.6.31.58.65-.23,4.08-.45,8.07-.68,11.94-.02.33-.29.58-.62.58Z"/>
  <path class="st0" d="M65.6,110.99s-.02,0-.03,0c-.34-.02-.6-.31-.59-.65.21-3.92.42-7.9.63-11.94.02-.34.35-.57.65-.59.34.02.6.31.59.65-.21,4.04-.42,8.03-.63,11.94-.02.33-.29.59-.62.59Z"/>
  <path class="st0" d="M66.59,92.08h-.03c-.34-.02-.6-.31-.59-.65.2-3.94.4-7.93.6-11.95.02-.34.34-.61.65-.59.34.02.61.31.59.65-.2,4.02-.4,8.01-.6,11.95-.02.33-.29.59-.62.59Z"/>
  <path class="st0" d="M67.52,73.16h-.03c-.34-.02-.61-.31-.59-.65.19-3.96.38-7.94.57-11.93.02-.34.34-.58.65-.59.34.02.61.31.59.65-.19,3.99-.38,7.98-.57,11.94-.02.33-.29.59-.62.59Z"/>
  <path class="st0" d="M68.43,54.26h-.03c-.34-.02-.61-.31-.59-.65.19-3.98.37-7.97.55-11.95.02-.34.33-.58.65-.59.34.02.61.31.59.65-.18,3.98-.37,7.97-.55,11.95-.02.33-.29.59-.62.59Z"/>
  <path class="st0" d="M69.3,35.33h-.03c-.34-.02-.61-.31-.59-.65l.54-11.95c.02-.34.31-.6.65-.59.34.02.61.31.59.65l-.54,11.95c-.02.33-.29.59-.62.59Z"/>
  <path class="st0" d="M70.16,16.41h-.03c-.34-.02-.61-.31-.59-.65l.54-11.95c.02-.34.33-.58.65-.59.34.02.61.31.59.65l-.54,11.95c-.02.33-.29.59-.62.59Z"/>
  <path class="st0" d="M48.23,300h0c-.34,0-.62-.28-.62-.62,0-4.06.02-8.05.03-11.95,0-.34.28-.62.62-.62h0c.34,0,.62.28.62.62-.01,3.9-.02,7.89-.03,11.95,0,.34-.28.62-.62.62Z"/>
  <path class="st0" d="M48.31,276.09h0c-.34,0-.62-.28-.62-.62.02-4.1.04-8.08.06-11.95,0-.34.28-.62.62-.62h0c.34,0,.62.28.62.62-.02,3.87-.04,7.86-.06,11.95,0,.34-.28.62-.62.62Z"/>
  <path class="st0" d="M48.45,252.19h0c-.34,0-.62-.28-.61-.62.03-4.16.07-8.15.11-11.95,0-.34.28-.61.62-.61h0c.34,0,.62.28.61.63-.04,3.8-.08,7.79-.11,11.95,0,.34-.28.61-.62.61Z"/>
  <path class="st0" d="M48.72,228.28h0c-.34,0-.62-.29-.61-.63.06-4.32.13-8.32.21-11.96,0-.34.28-.61.62-.61h.01c.34,0,.61.29.61.63-.08,3.64-.15,7.63-.21,11.95,0,.34-.28.61-.62.61Z"/>
  <path class="st0" d="M49.25,204.38h-.02c-.34-.01-.61-.3-.6-.64.22-6.28.47-10.21.75-12.01.05-.34.37-.57.71-.51.34.05.57.37.51.71-.28,1.72-.52,5.71-.74,11.85-.01.33-.29.6-.62.6Z"/>
  <path class="st0" d="M51.17,180.53s-.03,0-.04,0c-.34-.02-.6-.32-.58-.66.23-3.36.48-7.37.72-11.94.02-.34.33-.62.65-.59.34.02.6.31.59.65-.24,4.57-.49,8.59-.72,11.96-.02.33-.3.58-.62.58Z"/>
  <path class="st0" d="M52.48,156.63h-.03c-.34-.02-.61-.31-.59-.65.17-3.77.35-7.76.52-11.95.01-.33.29-.59.62-.59h.03c.34.01.61.3.59.64-.17,4.19-.35,8.18-.52,11.96-.02.33-.29.59-.62.59Z"/>
  <path class="st0" d="M53.48,132.73h-.02c-.34-.01-.61-.3-.6-.64.15-3.87.3-7.86.44-11.95.01-.34.28-.58.64-.6.34.01.61.3.6.64-.15,4.09-.3,8.08-.44,11.96-.01.33-.29.6-.62.6Z"/>
  <path class="st0" d="M54.34,108.82h-.02c-.34-.01-.61-.3-.6-.64.13-3.92.27-7.91.4-11.95.01-.34.28-.62.64-.6.34.01.61.3.6.64-.13,4.05-.27,8.04-.4,11.96-.01.33-.29.6-.62.6Z"/>
  <path class="st0" d="M55.13,84.91h-.02c-.34-.01-.61-.3-.6-.64.13-3.95.25-7.94.38-11.96.01-.34.29-.6.62-.6h.02c.34.01.61.3.6.64-.12,4.01-.25,8-.38,11.96-.01.34-.29.6-.62.6Z"/>
  <path class="st0" d="M55.87,60.99h-.02c-.34-.01-.61-.3-.6-.64.12-3.98.24-7.96.36-11.95,0-.34.28-.6.62-.6h.02c.34,0,.61.3.6.64-.12,3.99-.24,7.98-.36,11.95,0,.34-.29.6-.62.6Z"/>
  <path class="st0" d="M56.59,37.08h-.02c-.34,0-.61-.3-.6-.64l.35-11.96c0-.34.27-.63.64-.6.34,0,.61.3.6.64l-.35,11.96c0,.34-.28.6-.62.6Z"/>
  <path class="st0" d="M57.28,13.17h-.02c-.34,0-.61-.29-.6-.64l.34-11.92c0-.34.26-.64.64-.6.34,0,.61.29.6.64l-.34,11.92c0,.34-.28.6-.62.6Z"/>
  <path class="st0" d="M39.7,300h0c-.34,0-.62-.28-.62-.62v-11.95c.01-.34.29-.62.63-.62h0c.34,0,.62.28.62.62v11.95c-.01.34-.29.62-.63.62Z"/>
  <path class="st0" d="M39.73,282.07h0c-.34,0-.62-.28-.62-.62l.03-11.95c0-.34.28-.62.62-.62h0c.34,0,.62.28.62.62l-.03,11.95c0,.34-.28.62-.62.62Z"/>
  <path class="st0" d="M39.77,264.14h0c-.34,0-.62-.28-.62-.62l.04-11.95c0-.34.28-.62.62-.62h0c.34,0,.62.28.62.62l-.04,11.95c0,.34-.28.62-.62.62Z"/>
  <path class="st0" d="M39.83,246.21h0c-.34,0-.62-.28-.62-.62.02-4.19.04-8.18.06-11.96,0-.34.28-.62.62-.62h0c.34,0,.62.28.62.62-.02,3.78-.04,7.77-.06,11.95,0,.34-.28.62-.62.62Z"/>
  <path class="st0" d="M39.93,228.28h0c-.34,0-.62-.28-.62-.62.03-4.33.06-8.33.1-11.96,0-.34.28-.61.62-.61h0c.34,0,.62.28.61.63-.04,3.63-.07,7.62-.1,11.95,0,.34-.28.62-.62.62Z"/>
  <path class="st0" d="M40.1,210.34h0c-.34,0-.62-.28-.61-.63.06-5.03.14-9.05.21-11.97,0-.34.28-.6.62-.6h.02c.34,0,.61.29.6.64-.08,2.91-.15,6.93-.21,11.95,0,.34-.28.61-.62.61Z"/>
  <path class="st0" d="M40.62,192.42s-.07,0-.1,0c-.34-.06-.57-.37-.51-.71.21-1.25.43-5.25.66-11.89.01-.34.31-.57.64-.6.34.01.61.3.6.64-.24,6.78-.46,10.72-.68,12.05-.05.3-.31.52-.61.52Z"/>
  <path class="st0" d="M41.48,174.46h-.02c-.34,0-.61-.3-.6-.64.11-3.56.21-7.57.32-11.96,0-.34.25-.63.63-.6.34,0,.61.29.6.63-.11,4.4-.21,8.41-.32,11.97,0,.34-.28.6-.62.6Z"/>
  <path class="st0" d="M41.94,156.52h-.01c-.34,0-.61-.29-.61-.63.08-3.77.17-7.77.25-11.96,0-.34.28-.61.62-.61h.01c.34,0,.61.29.61.63-.08,4.2-.17,8.19-.25,11.96,0,.34-.28.61-.62.61Z"/>
  <path class="st0" d="M42.31,138.58h-.01c-.34,0-.61-.29-.61-.63.07-3.85.15-7.85.22-11.96,0-.34.27-.59.63-.61.34,0,.61.29.61.63-.07,4.12-.15,8.11-.22,11.96,0,.34-.28.61-.62.61Z"/>
  <path class="st0" d="M42.64,120.63h-.01c-.34,0-.61-.29-.61-.63.07-3.9.14-7.89.2-11.96,0-.34.28-.61.62-.61h.01c.34,0,.61.29.61.63-.07,4.07-.14,8.06-.2,11.96,0,.34-.28.61-.62.61Z"/>
  <path class="st0" d="M42.94,102.69h0c-.34,0-.62-.29-.61-.63l.19-11.96c0-.34.32-.59.63-.61.34,0,.62.29.61.63l-.19,11.96c0,.34-.28.61-.62.61Z"/>
  <path class="st0" d="M43.22,84.75h0c-.34,0-.62-.29-.61-.63l.18-11.96c0-.34.28-.61.62-.61h0c.34,0,.62.29.61.63l-.18,11.96c0,.34-.28.61-.62.61Z"/>
  <path class="st0" d="M43.49,66.81h0c-.34,0-.62-.29-.61-.63l.17-11.95c0-.34.28-.61.62-.61h0c.34,0,.62.29.61.63l-.17,11.95c0,.34-.28.61-.62.61Z"/>
  <path class="st0" d="M43.75,48.88h0c-.34,0-.62-.29-.61-.63l.17-11.97c0-.34.33-.59.63-.61.34,0,.62.29.61.63l-.17,11.97c0,.34-.28.61-.62.61Z"/>
  <path class="st0" d="M44,30.93h0c-.34,0-.62-.29-.61-.63l.17-11.96c0-.34.3-.63.63-.61.34,0,.62.29.61.63l-.17,11.96c0,.34-.28.61-.62.61Z"/>
  <path class="st0" d="M44.25,12.99h0c-.34,0-.62-.29-.61-.63l.16-11.75c0-.34.29-.65.63-.61.34,0,.62.29.61.63l-.16,11.75c0,.34-.28.61-.62.61Z"/>
  <path class="st0" d="M31.21,300c-.34,0-.62-.28-.62-.62v-11.95c0-.34.28-.62.62-.62s.62.28.62.62v11.95c0,.34-.28.62-.62.62Z"/>
  <path class="st0" d="M31.21,281.08c-.34,0-.62-.28-.62-.62v-11.95c0-.34.28-.62.62-.62s.62.28.62.62v11.95c0,.34-.28.62-.62.62Z"/>
  <path class="st0" d="M31.21,262.16c-.34,0-.62-.28-.62-.62v-11.95c0-.34.28-.62.62-.62s.62.28.62.62v11.95c0,.34-.28.62-.62.62Z"/>
  <path class="st0" d="M31.21,243.24c-.34,0-.62-.28-.62-.62v-11.95c0-.34.28-.62.62-.62s.62.28.62.62v11.95c0,.34-.28.62-.62.62Z"/>
  <path class="st0" d="M31.21,224.31c-.34,0-.62-.28-.62-.62v-11.95c0-.34.28-.62.62-.62s.62.28.62.62v11.95c0,.34-.28.62-.62.62Z"/>
  <path class="st0" d="M31.21,205.39c-.34,0-.62-.28-.62-.62v-11.95c0-.34.28-.62.62-.62s.62.28.62.62v11.95c0,.34-.28.62-.62.62Z"/>
  <path class="st0" d="M31.21,186.47c-.34,0-.62-.28-.62-.62v-11.95c0-.34.28-.62.62-.62s.62.28.62.62v11.95c0,.34-.28.62-.62.62Z"/>
  <path class="st0" d="M31.21,167.55c-.34,0-.62-.28-.62-.62v-11.95c0-.34.28-.62.62-.62s.62.28.62.62v11.95c0,.34-.28.62-.62.62Z"/>
  <path class="st0" d="M31.21,148.63c-.34,0-.62-.28-.62-.62v-11.95c0-.34.28-.62.62-.62s.62.28.62.62v11.95c0,.34-.28.62-.62.62Z"/>
  <path class="st0" d="M31.21,129.71c-.34,0-.62-.28-.62-.62v-11.95c0-.34.28-.62.62-.62s.62.28.62.62v11.95c0,.34-.28.62-.62.62Z"/>
  <path class="st0" d="M31.21,110.79c-.34,0-.62-.28-.62-.62v-11.95c0-.34.28-.62.62-.62s.62.28.62.62v11.95c0,.34-.28.62-.62.62Z"/>
  <path class="st0" d="M31.21,91.87c-.34,0-.62-.28-.62-.62v-11.95c0-.34.28-.62.62-.62s.62.28.62.62v11.95c0,.34-.28.62-.62.62Z"/>
  <path class="st0" d="M31.21,72.94c-.34,0-.62-.28-.62-.62v-11.95c0-.34.28-.62.62-.62s.62.28.62.62v11.95c0,.34-.28.62-.62.62Z"/>
  <path class="st0" d="M31.21,54.02c-.34,0-.62-.28-.62-.62v-11.95c0-.34.28-.62.62-.62s.62.28.62.62v11.95c0,.34-.28.62-.62.62Z"/>
  <path class="st0" d="M31.21,35.1c-.34,0-.62-.28-.62-.62v-11.95c0-.34.28-.62.62-.62s.62.28.62.62v11.95c0,.34-.28.62-.62.62Z"/>
  <path class="st0" d="M31.21,16.18c-.34,0-.62-.28-.62-.62V3.61c0-.34.28-.62.62-.62s.62.28.62.62v11.95c0,.34-.28.62-.62.62Z"/>
  <path class="st0" d="M18.84,300h0c-.34,0-.62-.29-.61-.63.07-5.02.13-8.33.17-9.34.02-.38.03-1.17.05-2.33,0-.34.28-.61.62-.61h0c.34,0,.62.28.61.63-.01,1.18-.03,1.98-.05,2.37-.04.99-.1,4.3-.17,9.3,0,.34-.28.61-.62.61Z"/>
  <path class="st0" d="M19.1,282.36h0c-.34,0-.62-.28-.62-.62.02-3.2.03-7.23.04-11.95,0-.34.28-.62.62-.62h0c.34,0,.62.28.62.62-.01,4.73-.02,8.75-.04,11.96,0,.34-.28.62-.62.62Z"/>
  <path class="st0" d="M19.15,264.42h0c-.34,0-.62-.28-.62-.62v-11.95c.01-.34.29-.62.63-.62h0c.34,0,.62.28.62.62v11.95c-.01.34-.29.62-.63.62Z"/>
  <path class="st0" d="M19.17,246.49h0c-.34,0-.62-.28-.62-.62v-11.95c0-.34.28-.62.62-.62s.62.28.62.62v11.95c0,.34-.28.62-.62.62Z"/>
  <path class="st0" d="M19.18,228.56c-.34,0-.62-.28-.62-.62v-11.97c0-.34.28-.62.62-.62s.62.28.62.62v11.97c0,.34-.28.62-.62.62Z"/>
  <path class="st0" d="M19.17,210.62c-.34,0-.62-.28-.62-.62v-11.96c0-.34.27-.62.61-.62.34,0,.62.28.62.62v11.96c0,.34-.27.62-.61.62Z"/>
  <path class="st0" d="M19.16,192.67c-.34,0-.62-.28-.62-.62v-11.96c-.01-.34.27-.62.61-.62h0c.34,0,.62.28.62.62v11.96c.01.34-.27.62-.61.62h0Z"/>
  <path class="st0" d="M19.14,161.53h0c.34,0,.62.28.62.62v11.96c0,.34-.28.62-.62.62h0c-.34,0-.62-.28-.62-.62v-11.96c0-.34.28-.62.62-.62Z"/>
  <path class="st0" d="M19.13,156.79c-.34,0-.62-.28-.62-.62v-11.93s1.23-.05,1.23-.05h-.62s.62.04.62.04v11.93c.01.34-.26.62-.6.62h0Z"/>
  <path class="st0" d="M19.11,138.82c-.34,0-.62-.28-.62-.62l-.02-11.96c0-.34.28-.62.62-.62h0c.34,0,.62.28.62.62l.02,11.96c0,.34-.28.62-.62.62h0Z"/>
  <path class="st0" d="M19.08,120.9c-.34,0-.62-.28-.62-.62l-.02-11.96c0-.34.28-.62.62-.62h0c.34,0,.62.28.62.62l.02,11.96c0,.34-.28.62-.62.62h0Z"/>
  <path class="st0" d="M19.06,102.96c-.34,0-.62-.28-.62-.62l-.02-11.96c0-.34.28-.62.62-.62h0c.34,0,.62.28.62.62l.02,11.96c0,.34-.28.62-.62.62h0Z"/>
  <path class="st0" d="M19.03,85.02c-.34,0-.62-.28-.62-.62l-.02-11.96c0-.34.28-.62.62-.62h0c.34,0,.62.28.62.62l.02,11.96c0,.34-.28.62-.62.62h0Z"/>
  <path class="st0" d="M19,67.07c-.34,0-.62-.28-.62-.62l-.02-11.96c0-.34.28-.62.62-.62h0c.34,0,.62.28.62.62l.02,11.96c0,.34-.28.62-.62.62h0Z"/>
  <path class="st0" d="M18.97,49.12c-.34,0-.62-.28-.62-.62l-.02-11.97c0-.34.28-.62.62-.62h0c.34,0,.62.28.62.62l.02,11.97c0,.34-.28.62-.62.62h0Z"/>
  <path class="st0" d="M18.94,31.17c-.34,0-.62-.28-.62-.62l-.02-11.97c0-.34.28-.62.62-.62h0c.34,0,.62.28.62.62l.02,11.97c0,.34-.28.62-.62.62h0Z"/>
  <path class="st0" d="M18.9,13.22c-.34,0-.62-.28-.62-.62l-.02-11.98c0-.34.28-.62.62-.62h0c.34,0,.62.28.62.62l.02,11.98c0,.34-.28.62-.62.62h0Z"/>
  <path class="st0" d="M6.52,300h-.02c-.34,0-.61-.29-.6-.64.13-4.74.22-7.69.3-9.29.03-.58.05-1.37.07-2.37,0-.34.31-.6.63-.61.34,0,.61.29.61.63-.02,1.01-.05,1.82-.07,2.4-.07,1.6-.17,4.54-.3,9.27,0,.34-.28.6-.62.6Z"/>
  <path class="st0" d="M7.03,276.37h0c-.34,0-.62-.28-.62-.62.02-3.49.04-7.49.06-11.95,0-.34.28-.62.62-.62h0c.34,0,.62.28.62.62-.02,4.46-.04,8.47-.06,11.96,0,.34-.28.62-.62.62Z"/>
  <path class="st0" d="M7.13,252.47h0c-.34,0-.62-.28-.62-.62,0-3.78.01-7.78.02-11.95,0-.34.28-.62.62-.62h0c.34,0,.62.28.62.62,0,4.18,0,8.17-.02,11.95,0,.34-.28.62-.62.62Z"/>
  <path class="st0" d="M7.15,228.56c-.34,0-.62-.28-.62-.62v-11.96c0-.34.27-.62.62-.62.34,0,.62.28.62.62v11.96c0,.34-.27.62-.62.62Z"/>
  <path class="st0" d="M7.14,204.64c-.34,0-.62-.28-.62-.62v-11.96c-.02-.34.26-.62.6-.62h0c.34,0,.62.28.62.62v11.96c.02.34-.26.62-.6.62h0Z"/>
  <path class="st0" d="M7.1,180.71c-.34,0-.62-.28-.62-.62l-.02-11.96c0-.34.28-.62.62-.62h0c.34,0,.62.28.62.62l.02,11.96c0,.34-.28.62-.62.62h0Z"/>
  <path class="st0" d="M7.06,156.78c-.34,0-.62-.28-.62-.62l-.03-11.97c0-.34.28-.62.62-.62h0c.34,0,.62.28.62.62l.03,11.97c0,.34-.28.62-.62.62h0Z"/>
  <path class="st0" d="M7,132.85c-.34,0-.62-.28-.62-.62l-.03-11.95c0-.34.24-.59.62-.62.34,0,.62.28.62.62l.03,11.95c0,.34-.28.62-.62.62h0Z"/>
  <path class="st0" d="M6.93,108.94c-.34,0-.62-.28-.62-.62l-.04-11.96c0-.34.28-.62.62-.62h0c.34,0,.62.28.62.62l.04,11.96c0,.34-.28.62-.62.62h0Z"/>
  <path class="st0" d="M6.86,85.01c-.34,0-.62-.28-.62-.62l-.04-11.96c0-.34.28-.62.62-.62h0c.34,0,.62.28.62.62l.04,11.96c0,.34-.28.62-.62.62h0Z"/>
  <path class="st0" d="M6.78,61.08c-.34,0-.62-.28-.62-.62l-.04-11.96c0-.34.28-.62.62-.62h0c.34,0,.62.28.62.62l.04,11.96c0,.34-.28.62-.62.62h0Z"/>
  <path class="st0" d="M6.69,37.15c-.34,0-.62-.28-.62-.62l-.04-11.97c0-.34.27-.62.62-.62h0c.34,0,.62.28.62.62l.04,11.97c0,.34-.28.62-.62.62h0Z"/>
  <path class="st0" d="M6.6,13.22c-.34,0-.62-.28-.62-.62l-.05-11.97c0-.34.27-.62.62-.62h0c.34,0,.62.28.62.62l.05,11.98c0,.34-.27.62-.62.62h0Z"/>
</svg>