<?xml version="1.0" encoding="UTF-8"?>
<svg id="Layer_2" data-name="Layer 2" xmlns="http://www.w3.org/2000/svg" viewBox="0 0 300 300">
  <defs>
    <style>
      .cls-1 {
        fill: #fff;
      }
    </style>
  </defs>
  <path class="cls-1" d="M290.61,297c-.34,0-.61-.27-.61-.61v-11.71c0-.34.27-.61.61-.61s.61.27.61.61v11.71c0,.34-.27.61-.61.61Z"/>
  <path class="cls-1" d="M290.61,273.58c-.34,0-.61-.27-.61-.61v-11.71c0-.34.27-.61.61-.61s.61.27.61.61v11.71c0,.34-.27.61-.61.61Z"/>
  <path class="cls-1" d="M290.61,250.15c-.34,0-.61-.27-.61-.61v-11.71c0-.34.27-.61.61-.61s.61.27.61.61v11.71c0,.34-.27.61-.61.61Z"/>
  <path class="cls-1" d="M290.61,226.73c-.34,0-.61-.27-.61-.61v-11.71c0-.34.27-.61.61-.61s.61.27.61.61v11.71c0,.34-.27.61-.61.61Z"/>
  <path class="cls-1" d="M290.61,203.31c-.34,0-.61-.27-.61-.61v-11.71c0-.34.27-.61.61-.61s.61.27.61.61v11.71c0,.34-.27.61-.61.61Z"/>
  <path class="cls-1" d="M290.61,179.89c-.34,0-.61-.27-.61-.61v-11.71c0-.34.27-.61.61-.61s.61.27.61.61v11.71c0,.34-.27.61-.61.61Z"/>
  <path class="cls-1" d="M290.61,156.46c-.34,0-.61-.27-.61-.61v-11.71c0-.34.27-.61.61-.61s.61.27.61.61v11.71c0,.34-.27.61-.61.61Z"/>
  <path class="cls-1" d="M290.61,133.04c-.34,0-.61-.27-.61-.61v-11.71c0-.34.27-.61.61-.61s.61.27.61.61v11.71c0,.34-.27.61-.61.61Z"/>
  <path class="cls-1" d="M290.61,109.62c-.34,0-.61-.27-.61-.61v-11.71c0-.34.27-.61.61-.61s.61.27.61.61v11.71c0,.34-.27.61-.61.61Z"/>
  <path class="cls-1" d="M290.61,86.2c-.34,0-.61-.27-.61-.61v-11.71c0-.34.27-.61.61-.61s.61.27.61.61v11.71c0,.34-.27.61-.61.61Z"/>
  <path class="cls-1" d="M290.61,62.78c-.34,0-.61-.27-.61-.61v-11.71c0-.34.27-.61.61-.61s.61.27.61.61v11.71c0,.34-.27.61-.61.61Z"/>
  <path class="cls-1" d="M290.61,39.35c-.34,0-.61-.27-.61-.61v-11.71c0-.34.27-.61.61-.61s.61.27.61.61v11.71c0,.34-.27.61-.61.61Z"/>
  <path class="cls-1" d="M290.61,15.93c-.34,0-.61-.27-.61-.61V3.61c0-.34.27-.61.61-.61s.61.27.61.61v11.71c0,.34-.27.61-.61.61Z"/>
  <path class="cls-1" d="M279.57,297h0c-.34,0-.61-.28-.6-.61l.08-11.64c0-.33.27-.6.61-.6h0c.34,0,.61.28.6.61l-.08,11.64c0,.33-.27.6-.61.6Z"/>
  <path class="cls-1" d="M279.68,279.5h0c-.34,0-.61-.28-.6-.61.02-4.04.05-7.95.07-11.71,0-.33.27-.6.61-.6h0c.34,0,.61.27.6.61-.02,3.77-.04,7.68-.07,11.71,0,.33-.27.6-.61.6Z"/>
  <path class="cls-1" d="M279.78,261.94h0c-.34,0-.61-.27-.6-.61.02-4.12.03-8.04.04-11.71,0-.33.27-.61.61-.61h0c.34,0,.61.27.61.61-.01,3.68-.03,7.59-.04,11.71,0,.33-.27.6-.61.6Z"/>
  <path class="cls-1" d="M279.84,244.37h0c-.34,0-.61-.27-.61-.61,0-2.22,0-4.33,0-6.32s0-3.71,0-5.39c0-.34.27-.61.61-.61h0c.33,0,.61.27.61.61,0,1.68,0,3.48,0,5.39s0,4.1,0,6.32c0,.34-.27.61-.61.61Z"/>
  <path class="cls-1" d="M279.81,226.8c-.33,0-.61-.27-.61-.6-.03-4.29-.08-7.22-.14-8.71-.03-.65-.06-1.66-.08-3,0-.34.26-.61.6-.62h.01c.33,0,.6.26.61.6.03,1.33.05,2.32.08,2.96.07,1.5.12,4.45.14,8.76,0,.34-.27.61-.6.61h0Z"/>
  <path class="cls-1" d="M279.51,209.22c-.33,0-.6-.27-.61-.6-.03-3.21-.06-7.14-.09-11.72,0-.34.27-.61.6-.61h0c.33,0,.61.27.61.6.02,4.57.05,8.51.09,11.71,0,.34-.26.61-.6.61h0Z"/>
  <path class="cls-1" d="M279.39,191.65c-.33,0-.61-.27-.61-.6-.02-3.61-.03-7.53-.04-11.72,0-.34.27-.61.61-.61h0c.33,0,.61.27.61.61.01,4.19.03,8.1.04,11.72,0,.34-.27.61-.6.61h0Z"/>
  <path class="cls-1" d="M279.33,174.07c-.33,0-.61-.27-.61-.61l-.02-11.72c0-.34.27-.61.61-.61h0c.34,0,.61.27.61.61l.02,11.72c0,.34-.27.61-.61.61h0Z"/>
  <path class="cls-1" d="M279.3,156.5c-.34,0-.61-.27-.61-.61v-11.72c-.01-.34.26-.61.59-.61h0c.34,0,.61.27.61.61v11.71c.01.34-.26.61-.59.61h0Z"/>
  <path class="cls-1" d="M279.29,138.93c-.34,0-.61-.27-.61-.61v-11.71c0-.34.27-.61.6-.61s.61.27.61.61v11.71c0,.34-.27.61-.6.61Z"/>
  <path class="cls-1" d="M279.28,121.35c-.34,0-.61-.27-.61-.61v-11.71c0-.34.27-.61.61-.61h0c.34,0,.61.27.61.61v11.71c0,.34-.27.61-.61.61Z"/>
  <path class="cls-1" d="M279.28,103.79h0c-.34,0-.61-.27-.61-.61v-11.71c0-.34.28-.61.61-.61h0c.34,0,.61.27.61.61v11.71c0,.34-.28.61-.61.61Z"/>
  <path class="cls-1" d="M279.29,86.21h0c-.34,0-.61-.27-.61-.61v-11.72c0-.34.28-.61.62-.61h0c.34,0,.61.27.61.61v11.72c0,.34-.28.61-.62.61Z"/>
  <path class="cls-1" d="M279.31,55.7h0c.33,0,.61.27.61.61v11.72c0,.34-.27.61-.61.61h0c-.33,0-.61-.27-.61-.61v-11.72c0-.34.27-.61.61-.61Z"/>
  <path class="cls-1" d="M279.32,51.06h0c-.34,0-.61-.27-.61-.61v-11.71c.01-.34.28-.61.62-.61h0c.34,0,.61.27.61.61v11.71c-.01.33-.28.61-.62.61Z"/>
  <path class="cls-1" d="M279.34,33.49h0c-.34,0-.61-.27-.61-.61l.02-11.71c0-.34.27-.61.61-.61h0c.34,0,.61.27.61.61l-.02,11.71c0,.33-.27.61-.61.61Z"/>
  <path class="cls-1" d="M279.37,15.93h0c-.34,0-.61-.27-.61-.61l.02-11.71c0-.34.27-.61.61-.61h0c.34,0,.61.27.61.61l-.02,11.71c0,.34-.27.61-.61.61Z"/>
  <path class="cls-1" d="M268.66,294.12h0c-.34,0-.6-.28-.6-.62.05-3.98.1-7.89.15-11.71,0-.33.27-.6.61-.6h0c.34,0,.6.28.6.61-.04,3.82-.09,7.73-.15,11.71,0,.33-.28.6-.61.6Z"/>
  <path class="cls-1" d="M268.88,275.58h0c-.34,0-.61-.28-.6-.61.04-4.03.08-7.94.1-11.71,0-.33.27-.6.61-.6h0c.34,0,.61.28.6.61-.03,3.77-.06,7.68-.1,11.71,0,.33-.27.6-.61.6Z"/>
  <path class="cls-1" d="M269.03,257.04h0c-.34,0-.61-.28-.6-.61.02-4.12.04-8.04.04-11.71,0-.34.27-.61.61-.61h0c.34,0,.61.27.61.61,0,3.67-.01,7.59-.04,11.72,0,.33-.27.6-.61.6Z"/>
  <path class="cls-1" d="M269.06,238.49c-.33,0-.61-.27-.61-.61-.01-4.42-.05-8.36-.1-11.7,0-.34.26-.61.6-.62.37,0,.61.26.62.6.06,3.35.09,7.29.1,11.72,0,.34-.27.61-.61.61h0Z"/>
  <path class="cls-1" d="M268.79,219.95c-.33,0-.6-.26-.61-.59-.02-.66-.05-1.27-.07-1.85-.1-2.26-.2-5.58-.28-9.87,0-.34.26-.61.6-.62.3,0,.61.26.62.6.08,4.28.17,7.59.28,9.84.03.58.05,1.2.07,1.86.01.34-.25.62-.59.63h-.02Z"/>
  <path class="cls-1" d="M268.33,201.4c-.33,0-.6-.27-.61-.6-.05-3.52-.09-7.45-.13-11.72,0-.34.27-.61.6-.61.29.02.61.27.61.6.04,4.27.08,8.19.13,11.71,0,.34-.26.61-.6.62h0Z"/>
  <path class="cls-1" d="M268.14,182.85c-.33,0-.61-.27-.61-.6-.03-3.7-.05-7.61-.07-11.72,0-.34.27-.61.6-.61h0c.33,0,.61.27.61.6.02,4.1.04,8.01.07,11.71,0,.34-.27.61-.6.61h0Z"/>
  <path class="cls-1" d="M268.04,164.3c-.33,0-.61-.27-.61-.6-.02-3.78-.03-7.69-.04-11.72,0-.34.27-.61.61-.61h0c.33,0,.61.27.61.61.01,4.03.02,7.94.04,11.71,0,.34-.27.61-.6.61h0Z"/>
  <path class="cls-1" d="M267.98,145.75c-.33,0-.61-.27-.61-.61l-.02-11.71c0-.34.27-.61.61-.61h0c.34,0,.61.27.61.61l.02,11.71c0,.34-.27.61-.61.61h0Z"/>
  <path class="cls-1" d="M267.96,127.21c-.34,0-.61-.27-.61-.61v-11.71c0-.34.26-.61.6-.61s.61.27.61.61v11.71c0,.34-.26.61-.6.61h0Z"/>
  <path class="cls-1" d="M267.95,108.66h0c-.34,0-.61-.27-.61-.61v-11.71c0-.34.28-.61.61-.61h0c.34,0,.61.27.61.61v11.71c0,.34-.28.61-.61.61Z"/>
  <path class="cls-1" d="M267.96,90.11h0c-.34,0-.61-.27-.61-.61v-11.72c.01-.33.28-.61.62-.61h0c.34,0,.61.27.61.61v11.72c-.01.33-.28.61-.62.61Z"/>
  <path class="cls-1" d="M267.98,71.57h0c-.34,0-.61-.27-.61-.61l.02-11.72c0-.34.27-.61.61-.61h0c.34,0,.61.27.61.61l-.02,11.72c0,.34-.27.61-.61.61Z"/>
  <path class="cls-1" d="M268.01,53.02h0c-.34,0-.61-.27-.61-.61l.03-11.71c0-.33.27-.61.61-.61h0c.34,0,.61.27.61.61l-.03,11.71c0,.34-.27.61-.61.61Z"/>
  <path class="cls-1" d="M268.05,34.47h0c-.34,0-.61-.27-.61-.61l.03-11.71c0-.33.27-.61.61-.61h0c.34,0,.61.27.61.61l-.03,11.71c0,.33-.27.61-.61.61Z"/>
  <path class="cls-1" d="M268.1,15.93h0c-.34,0-.61-.27-.61-.61l.04-11.71c0-.33.27-.61.61-.61h0c.34,0,.61.27.61.61l-.04,11.71c0,.33-.27.61-.61.61Z"/>
  <path class="cls-1" d="M257.77,297h-.01c-.34,0-.6-.28-.6-.62.08-3.96.14-7.85.21-11.68,0-.33.28-.6.61-.6h0c.34,0,.6.28.6.62-.06,3.83-.13,7.73-.21,11.68,0,.33-.28.6-.61.6Z"/>
  <path class="cls-1" d="M258.06,279.46h0c-.34,0-.6-.28-.6-.62.06-4,.1-7.9.14-11.71,0-.34.31-.6.61-.6.34,0,.61.28.6.61-.04,3.8-.08,7.71-.14,11.71,0,.33-.28.6-.61.6Z"/>
  <path class="cls-1" d="M258.25,261.9h0c-.34,0-.61-.28-.6-.61.03-4.05.04-7.96.05-11.71,0-.34.27-.61.61-.61h0c.34,0,.61.27.61.61,0,3.75-.02,7.67-.05,11.72,0,.33-.27.6-.61.6Z"/>
  <path class="cls-1" d="M258.29,244.33c-.33,0-.61-.27-.61-.61-.02-4.19-.05-8.13-.11-11.7,0-.34.26-.61.6-.62.32.03.61.26.62.6.06,3.58.09,7.52.11,11.72,0,.34-.27.61-.61.61h0Z"/>
  <path class="cls-1" d="M258.07,226.76c-.33,0-.6-.26-.61-.59-.08-3.19-.18-6.09-.29-8.63-.04-.96-.08-1.98-.12-3.07-.01-.33.25-.62.59-.63h.02c.33,0,.59.26.61.59.04,1.08.08,2.11.12,3.06.12,2.54.21,5.45.29,8.65,0,.34-.26.61-.59.62h-.02Z"/>
  <path class="cls-1" d="M257.46,209.2c-.33,0-.6-.26-.61-.59-.1-3.49-.18-7.41-.26-11.72,0-.34.26-.61.6-.62.33-.05.61.26.62.6.08,4.3.16,8.22.26,11.71,0,.34-.25.61-.59.62h-.02Z"/>
  <path class="cls-1" d="M257.1,191.63c-.33,0-.6-.27-.61-.6-.05-3.68-.1-7.6-.15-11.72,0-.34.26-.61.6-.61h0c.33,0,.6.27.61.6.04,4.12.1,8.03.15,11.71,0,.34-.26.61-.6.62h0Z"/>
  <path class="cls-1" d="M256.89,174.06c-.33,0-.6-.27-.61-.6-.03-3.76-.07-7.67-.09-11.72,0-.34.27-.61.6-.61h0c.33,0,.61.27.61.6.03,4.04.06,7.95.09,11.71,0,.34-.27.61-.6.61h0Z"/>
  <path class="cls-1" d="M256.76,156.49c-.33,0-.61-.27-.61-.6-.02-3.81-.04-7.71-.06-11.71,0-.34.27-.61.6-.61h0c.33,0,.61.27.61.6.02,4,.04,7.91.06,11.71,0,.34-.27.61-.6.61h0Z"/>
  <path class="cls-1" d="M256.68,138.92c-.33,0-.61-.27-.61-.61-.01-3.83-.02-7.74-.03-11.71,0-.34.27-.61.61-.61h0c.33,0,.61.27.61.61,0,3.97.02,7.88.03,11.71,0,.34-.27.61-.61.61h0Z"/>
  <path class="cls-1" d="M256.64,121.34c-.34,0-.61-.27-.61-.61,0-3.85-.01-7.76-.01-11.71,0-.34.27-.61.61-.61.34,0,.61.27.61.61,0,3.95,0,7.86.01,11.71,0,.34-.27.61-.61.61h0Z"/>
  <path class="cls-1" d="M256.63,103.77c-.34,0-.61-.27-.61-.61v-11.71c0-.34.27-.61.61-.61h0c.34,0,.61.27.61.61v11.71c0,.34-.27.61-.61.61Z"/>
  <path class="cls-1" d="M256.63,86.2h0c-.34,0-.61-.27-.61-.61l.02-11.71c0-.34.27-.61.61-.61h0c.34,0,.61.27.61.61l-.02,11.71c0,.33-.27.61-.61.61Z"/>
  <path class="cls-1" d="M256.66,68.64h0c-.34,0-.61-.27-.61-.61l.03-11.71c0-.33.27-.61.61-.61h0c.34,0,.61.27.61.61l-.03,11.71c0,.34-.27.61-.61.61Z"/>
  <path class="cls-1" d="M256.7,51.06h0c-.34,0-.61-.27-.61-.61l.04-11.71c0-.33.27-.61.61-.61h0c.34,0,.61.27.61.61l-.04,11.71c0,.33-.27.61-.61.61Z"/>
  <path class="cls-1" d="M256.76,33.5h0c-.34,0-.61-.27-.61-.61l.04-11.71c0-.34.27-.61.61-.61h0c.34,0,.61.27.6.61l-.04,11.71c0,.34-.27.61-.61.61Z"/>
  <path class="cls-1" d="M256.83,15.93h0c-.34,0-.61-.27-.6-.61l.05-11.71c0-.33.27-.6.61-.6h0c.34,0,.61.27.6.61l-.05,11.71c0,.33-.27.6-.61.6Z"/>
  <path class="cls-1" d="M246.99,297h-.01c-.34,0-.6-.29-.59-.62.09-3.94.17-7.85.24-11.7,0-.34.26-.64.62-.6.34,0,.6.28.6.62-.07,3.86-.15,7.77-.24,11.71,0,.33-.28.59-.61.59Z"/>
  <path class="cls-1" d="M247.42,273.58h0c-.34,0-.6-.28-.6-.61.05-3.97.08-7.88.1-11.7,0-.33.27-.6.61-.6h0c.34,0,.61.27.6.61-.02,3.83-.05,7.74-.1,11.71,0,.33-.27.6-.61.6Z"/>
  <path class="cls-1" d="M247.52,250.17c-.33,0-.61-.27-.61-.6-.02-4.02-.05-7.93-.11-11.7,0-.34.26-.61.6-.62h0c.33,0,.6.27.61.6.06,3.78.09,7.7.11,11.72,0,.34-.27.61-.6.61h0Z"/>
  <path class="cls-1" d="M247.16,226.75c-.33,0-.6-.26-.61-.59-.09-2.97-.2-5.84-.32-8.58-.05-1-.09-2.04-.13-3.11-.01-.34.25-.62.58-.63.37.01.62.25.63.58.04,1.07.09,2.11.13,3.11.12,2.75.23,5.62.32,8.6.01.34-.25.61-.59.63h-.02Z"/>
  <path class="cls-1" d="M246.31,203.33c-.33,0-.6-.26-.61-.59-.1-3.67-.2-7.59-.28-11.72,0-.34.26-.61.59-.62h.01c.33,0,.6.26.61.59.08,4.13.18,8.04.28,11.71,0,.34-.25.61-.59.62h-.02Z"/>
  <path class="cls-1" d="M245.82,179.91c-.33,0-.6-.27-.61-.6-.06-3.77-.11-7.68-.16-11.71,0-.34.26-.61.6-.61h0c.33,0,.6.27.61.6.05,4.03.1,7.94.16,11.71,0,.34-.26.61-.6.62h0Z"/>
  <path class="cls-1" d="M245.54,156.48c-.33,0-.6-.27-.61-.6-.03-3.82-.06-7.73-.09-11.72,0-.34.27-.61.6-.61h0c.33,0,.61.27.61.6.03,3.98.06,7.89.09,11.71,0,.34-.27.61-.6.61h0Z"/>
  <path class="cls-1" d="M245.39,133.06c-.33,0-.61-.27-.61-.6-.02-3.85-.03-7.76-.05-11.71,0-.34.27-.61.61-.61h0c.33,0,.61.27.61.61.01,3.96.03,7.86.05,11.71,0,.34-.27.61-.6.61h0Z"/>
  <path class="cls-1" d="M245.31,109.63c-.34,0-.61-.27-.61-.61,0-3.87-.01-7.78-.01-11.71,0-.34.27-.61.61-.61.34,0,.61.27.61.61,0,3.94,0,7.84.01,11.71,0,.34-.27.61-.61.61h0Z"/>
  <path class="cls-1" d="M245.3,86.2h0c-.34,0-.61-.27-.61-.61,0-3.89,0-7.79.01-11.71,0-.34.27-.61.61-.61h0c.34,0,.61.27.61.61,0,3.92-.01,7.83-.01,11.71,0,.34-.27.61-.61.61Z"/>
  <path class="cls-1" d="M245.34,62.78h0c-.34,0-.61-.27-.61-.61,0-3.9.02-7.81.03-11.71,0-.33.27-.61.61-.61h0c.34,0,.61.27.61.61-.01,3.91-.02,7.81-.03,11.71,0,.33-.27.61-.61.61Z"/>
  <path class="cls-1" d="M245.42,39.35h0c-.34,0-.61-.27-.6-.61l.05-11.71c0-.33.27-.6.61-.6h0c.34,0,.61.27.6.61l-.05,11.71c0,.33-.27.6-.61.6Z"/>
  <path class="cls-1" d="M245.53,15.93h0c-.34,0-.61-.27-.6-.61l.07-11.71c0-.34.3-.61.61-.6.34,0,.61.28.6.61l-.07,11.71c0,.33-.27.6-.61.6Z"/>
  <path class="cls-1" d="M236.36,294.06h-.01c-.34,0-.6-.29-.59-.62.09-3.91.17-7.82.23-11.7,0-.34.3-.58.62-.6.34,0,.6.28.6.62-.06,3.89-.14,7.8-.23,11.71,0,.33-.28.59-.61.59Z"/>
  <path class="cls-1" d="M236.68,275.52h0c-.34,0-.6-.28-.6-.61.04-3.93.07-7.83.08-11.71,0-.33.27-.61.61-.61h0c.34,0,.61.27.61.61-.01,3.88-.04,7.78-.08,11.71,0,.33-.27.6-.61.6Z"/>
  <path class="cls-1" d="M236.76,256.98c-.33,0-.61-.27-.61-.61-.01-3.94-.04-7.85-.1-11.7,0-.34.26-.61.6-.62.32-.03.61.26.62.6.05,3.86.08,7.77.1,11.72,0,.34-.27.61-.61.61h0Z"/>
  <path class="cls-1" d="M236.55,238.45c-.33,0-.6-.26-.61-.59-.08-3.97-.19-7.9-.32-11.7-.01-.33.25-.62.59-.63.33-.02.62.25.63.59.13,3.8.23,7.74.32,11.71,0,.34-.26.61-.59.62h-.01Z"/>
  <path class="cls-1" d="M235.97,219.91c-.32,0-.59-.25-.61-.58l-.08-1.73c-.14-3.16-.28-6.49-.4-9.97-.01-.34.25-.62.59-.63h.02c.33,0,.6.26.61.59.12,3.48.26,6.81.4,9.96l.08,1.73c.01.33-.25.62-.58.63h-.03Z"/>
  <path class="cls-1" d="M235.27,201.38c-.33,0-.6-.26-.61-.59-.12-3.76-.22-7.67-.32-11.71,0-.33.26-.61.59-.62.33.04.61.26.62.59.1,4.05.2,7.95.32,11.71.01.34-.25.62-.59.63h-.02Z"/>
  <path class="cls-1" d="M234.8,182.84c-.33,0-.6-.26-.61-.59-.08-3.8-.15-7.71-.22-11.71,0-.34.26-.61.6-.62h.01c.33,0,.6.26.61.6.07,4,.14,7.91.22,11.71,0,.34-.26.61-.59.62h-.01Z"/>
  <path class="cls-1" d="M234.47,164.3c-.33,0-.6-.27-.61-.6-.06-3.83-.11-7.74-.15-11.71,0-.34.26-.61.6-.61h0c.33,0,.6.27.61.6.05,3.97.1,7.88.15,11.71,0,.34-.26.61-.6.62h0Z"/>
  <path class="cls-1" d="M234.24,145.75c-.33,0-.6-.27-.61-.6-.04-3.85-.07-7.76-.1-11.71,0-.34.27-.61.6-.61h0c.33,0,.61.27.61.6.03,3.96.06,7.86.1,11.71,0,.34-.27.61-.6.61h0Z"/>
  <path class="cls-1" d="M234.1,127.21c-.33,0-.61-.27-.61-.6-.02-3.87-.04-7.77-.06-11.71,0-.34.27-.61.6-.61h0c.33,0,.61.27.61.6.02,3.94.04,7.85.06,11.71,0,.34-.27.61-.6.61h0Z"/>
  <path class="cls-1" d="M234.01,108.66c-.33,0-.61-.27-.61-.61-.01-3.88-.02-7.79-.03-11.71,0-.34.27-.61.61-.61h0c.34,0,.61.27.61.61,0,3.93.01,7.83.03,11.71,0,.34-.27.61-.61.61h0Z"/>
  <path class="cls-1" d="M233.98,90.11c-.34,0-.61-.27-.61-.61v-5.41s0-6.31,0-6.31c0-.33.27-.61.61-.61h0c.34,0,.61.27.61.61v6.31s0,5.41,0,5.41c0,.34-.27.61-.61.61Z"/>
  <path class="cls-1" d="M233.99,71.55h0c-.34,0-.61-.27-.61-.61,0-3.9.01-7.81.02-11.71,0-.33.27-.61.61-.61h0c.34,0,.61.27.61.61-.01,3.9-.02,7.81-.02,11.71,0,.34-.27.61-.61.61Z"/>
  <path class="cls-1" d="M234.03,53.01h0c-.34,0-.61-.27-.61-.61.01-3.91.03-7.82.05-11.71,0-.33.27-.6.61-.6h0c.34,0,.61.27.6.61-.02,3.9-.03,7.8-.05,11.71,0,.33-.27.61-.61.61Z"/>
  <path class="cls-1" d="M234.11,34.47h0c-.34,0-.61-.27-.6-.61l.06-11.71c0-.33.27-.6.61-.6h0c.34,0,.61.28.6.61l-.06,11.71c0,.33-.27.6-.61.6Z"/>
  <path class="cls-1" d="M234.22,15.93h0c-.34,0-.61-.28-.6-.61.03-3.93.05-7.84.08-11.71,0-.33.27-.6.61-.6h0c.34,0,.61.28.6.61-.03,3.87-.06,7.78-.08,11.71,0,.33-.27.6-.61.6Z"/>
  <path class="cls-1" d="M220.21,297h-.01c-.34,0-.6-.29-.59-.62.09-3.94.17-7.84.24-11.7,0-.34.28-.64.62-.6.34,0,.6.28.6.62-.07,3.86-.15,7.77-.24,11.71,0,.33-.28.59-.61.59Z"/>
  <path class="cls-1" d="M220.64,273.58h0c-.34,0-.6-.28-.6-.61.05-3.97.08-7.88.1-11.7,0-.33.27-.6.61-.6h0c.34,0,.61.27.6.61-.02,3.83-.05,7.74-.1,11.71,0,.33-.27.6-.61.6Z"/>
  <path class="cls-1" d="M220.75,250.17c-.33,0-.61-.27-.61-.6-.02-4.02-.05-7.92-.11-11.7,0-.33.26-.61.6-.62h0c.33,0,.6.27.61.6.06,3.78.09,7.69.11,11.72,0,.34-.28.61-.61.61Z"/>
  <path class="cls-1" d="M220.38,226.75c-.33,0-.6-.26-.61-.59-.09-3.05-.2-5.99-.32-8.74-.04-.96-.08-1.94-.13-2.96-.01-.34.25-.62.58-.63.37.01.62.25.63.58.04,1.01.08,2,.13,2.95.12,2.76.23,5.71.32,8.76.01.34-.25.62-.59.63h-.02Z"/>
  <path class="cls-1" d="M219.54,203.33c-.33,0-.6-.26-.61-.59-.1-3.67-.2-7.58-.28-11.72,0-.34.26-.61.59-.62h.01c.33,0,.6.26.61.59.08,4.13.18,8.04.28,11.71,0,.34-.25.61-.59.62h-.02Z"/>
  <path class="cls-1" d="M219.05,179.91c-.33,0-.6-.26-.61-.6-.06-3.77-.11-7.68-.16-11.71,0-.34.26-.61.6-.61h0c.33,0,.6.27.61.6.05,4.03.1,7.94.16,11.71,0,.34-.26.61-.6.62h0Z"/>
  <path class="cls-1" d="M218.76,156.48c-.33,0-.6-.27-.61-.6-.03-3.82-.06-7.73-.09-11.72,0-.34.27-.61.6-.61h0c.33,0,.61.27.61.6.03,3.98.06,7.89.09,11.71,0,.34-.27.61-.6.61h0Z"/>
  <path class="cls-1" d="M218.6,133.06c-.33,0-.61-.27-.61-.6-.02-3.85-.03-7.76-.05-11.71,0-.34.27-.61.61-.61h0c.33,0,.61.27.61.61.01,3.96.03,7.86.05,11.71,0,.34-.27.61-.6.61h0Z"/>
  <path class="cls-1" d="M218.53,109.63c-.34,0-.61-.27-.61-.61,0-3.87-.01-7.78-.01-11.71,0-.34.27-.61.61-.61.34,0,.61.27.61.61,0,3.94,0,7.84.01,11.71,0,.34-.27.61-.61.61h0Z"/>
  <path class="cls-1" d="M218.52,86.2h0c-.34,0-.61-.27-.61-.61,0-3.89,0-7.79.01-11.71,0-.34.27-.61.61-.61h0c.34,0,.61.27.61.61,0,3.92-.01,7.83-.01,11.71,0,.34-.27.61-.61.61Z"/>
  <path class="cls-1" d="M218.56,62.78h0c-.34,0-.61-.27-.61-.61l.03-11.71c0-.33.27-.61.61-.61h0c.34,0,.61.27.61.61l-.03,11.71c0,.33-.27.61-.61.61Z"/>
  <path class="cls-1" d="M218.63,39.35h0c-.34,0-.61-.27-.6-.61l.05-11.71c0-.33.27-.6.61-.6.37,0,.61.27.61.61l-.05,11.71c0,.33-.27.6-.61.6Z"/>
  <path class="cls-1" d="M218.74,15.93h0c-.34,0-.61-.28-.6-.61l.07-11.71c0-.33.27-.6.61-.6h0c.34,0,.61.28.6.61l-.07,11.71c0,.33-.27.6-.61.6Z"/>
  <path class="cls-1" d="M204.19,297h-.01c-.34,0-.6-.28-.59-.62.08-3.95.15-7.85.21-11.68,0-.33.28-.6.61-.6h0c.34,0,.6.28.6.62-.06,3.83-.13,7.73-.21,11.68,0,.33-.28.59-.61.59Z"/>
  <path class="cls-1" d="M204.49,279.46h0c-.34,0-.6-.28-.6-.62.06-4,.11-7.9.14-11.71,0-.33.27-.6.61-.6h0c.34,0,.61.28.6.61-.04,3.81-.09,7.72-.14,11.71,0,.33-.28.6-.61.6Z"/>
  <path class="cls-1" d="M204.69,261.9h0c-.34,0-.61-.28-.6-.61.03-4.05.05-7.96.05-11.71,0-.34.27-.61.61-.61h0c.34,0,.61.27.61.61,0,3.75-.02,7.67-.05,11.72,0,.33-.27.6-.61.6Z"/>
  <path class="cls-1" d="M204.73,244.33c-.33,0-.61-.27-.61-.61-.02-4.25-.05-8.18-.1-11.7,0-.34.26-.61.6-.62h0c.33,0,.6.27.61.6.05,3.52.09,7.47.1,11.72,0,.34-.27.61-.61.61h0Z"/>
  <path class="cls-1" d="M204.52,226.76c-.33,0-.6-.26-.61-.59-.08-3.28-.18-6.29-.3-8.94-.04-.87-.08-1.79-.11-2.76-.01-.34.25-.62.58-.63.34-.02.62.25.63.58.04.97.07,1.89.11,2.75.12,2.66.22,5.68.3,8.96,0,.34-.26.61-.59.62h-.01Z"/>
  <path class="cls-1" d="M203.91,209.2c-.33,0-.6-.26-.61-.59-.1-3.48-.19-7.41-.26-11.72,0-.34.26-.61.6-.62h.01c.33,0,.6.26.61.6.08,4.31.17,8.23.26,11.71,0,.34-.25.61-.59.62h-.02Z"/>
  <path class="cls-1" d="M203.55,191.63c-.33,0-.6-.27-.61-.6-.06-3.68-.11-7.6-.15-11.72,0-.34.26-.61.6-.61h0c.33,0,.6.27.61.6.05,4.12.1,8.03.15,11.71,0,.34-.26.61-.6.62h0Z"/>
  <path class="cls-1" d="M203.34,174.06c-.33,0-.6-.27-.61-.6-.04-3.76-.07-7.67-.09-11.72,0-.34.27-.61.6-.61h0c.33,0,.61.27.61.6.03,4.04.06,7.95.09,11.71,0,.34-.27.61-.6.61h0Z"/>
  <path class="cls-1" d="M203.21,156.49c-.33,0-.61-.27-.61-.6-.02-3.81-.04-7.71-.06-11.72,0-.34.27-.61.6-.61h0c.33,0,.61.27.61.6.02,4,.04,7.91.06,11.71,0,.34-.27.61-.6.61h0Z"/>
  <path class="cls-1" d="M203.13,138.92c-.33,0-.61-.27-.61-.61-.01-3.83-.02-7.74-.03-11.71,0-.34.27-.61.61-.61h0c.33,0,.61.27.61.61,0,3.97.02,7.88.03,11.71,0,.34-.27.61-.61.61h0Z"/>
  <path class="cls-1" d="M203.08,121.35c-.34,0-.61-.27-.61-.61,0-3.85-.01-7.76-.01-11.72,0-.34.27-.61.61-.61h0c.34,0,.61.27.61.61,0,3.95,0,7.86.01,11.71,0,.34-.27.61-.61.61h0Z"/>
  <path class="cls-1" d="M203.07,103.77c-.34,0-.61-.27-.61-.61v-11.71c0-.34.28-.61.61-.61h0c.34,0,.61.27.61.61v11.71c0,.34-.28.61-.61.61Z"/>
  <path class="cls-1" d="M203.07,86.21h0c-.34,0-.61-.27-.61-.61l.02-11.71c0-.34.27-.61.61-.61h0c.34,0,.61.27.61.61l-.02,11.71c0,.33-.27.61-.61.61Z"/>
  <path class="cls-1" d="M203.1,68.63h0c-.34,0-.61-.27-.61-.61l.03-11.71c0-.33.27-.61.61-.61h0c.34,0,.61.27.61.61l-.03,11.71c0,.34-.27.61-.61.61Z"/>
  <path class="cls-1" d="M203.14,51.07h0c-.34,0-.61-.27-.61-.61l.04-11.71c0-.33.27-.61.61-.61h0c.34,0,.61.27.61.61l-.04,11.71c0,.33-.27.61-.61.61Z"/>
  <path class="cls-1" d="M203.2,33.5c-.3,0-.61-.27-.61-.61l.04-11.71c0-.34.27-.61.61-.61h0c.33,0,.61.27.6.61l-.04,11.71c0,.34-.27.61-.61.61Z"/>
  <path class="cls-1" d="M203.27,15.93h0c-.34,0-.61-.27-.6-.61l.05-11.71c0-.33.27-.6.61-.6h0c.34,0,.61.27.6.61l-.05,11.71c0,.33-.27.6-.61.6Z"/>
  <path class="cls-1" d="M188.31,294.12h0c-.34,0-.6-.28-.6-.62.05-3.98.1-7.89.15-11.71,0-.33.27-.6.61-.6h0c.34,0,.6.28.6.61-.04,3.82-.09,7.73-.15,11.71,0,.33-.28.6-.61.6Z"/>
  <path class="cls-1" d="M188.53,275.58h0c-.34,0-.61-.28-.6-.61.04-4.03.08-7.94.1-11.71,0-.33.27-.6.61-.6h0c.34,0,.61.28.6.61-.03,3.77-.06,7.68-.1,11.71,0,.33-.27.6-.61.6Z"/>
  <path class="cls-1" d="M188.68,257.04h0c-.34,0-.61-.27-.6-.61.02-4.12.04-8.04.04-11.71,0-.33.27-.61.61-.61h0c.34,0,.61.27.61.61,0,3.68-.02,7.59-.04,11.71,0,.33-.27.6-.61.6Z"/>
  <path class="cls-1" d="M188.72,238.49c-.33,0-.61-.27-.61-.61-.01-4.46-.05-8.4-.1-11.7,0-.34.26-.61.6-.62h0c.33,0,.6.27.61.6.05,3.31.08,7.25.1,11.72,0,.34-.27.61-.61.61h0Z"/>
  <path class="cls-1" d="M188.47,219.95c-.33,0-.6-.26-.61-.59-.03-.83-.06-1.6-.09-2.31-.1-2.18-.19-5.34-.27-9.41,0-.33.26-.61.59-.62h.01c.33,0,.6.26.61.6.08,4.05.17,7.21.27,9.37.03.71.06,1.49.09,2.33.01.34-.25.62-.59.63h-.02Z"/>
  <path class="cls-1" d="M188,201.4c-.33,0-.6-.27-.61-.6-.05-3.52-.09-7.44-.13-11.72,0-.34.27-.61.6-.61.33-.03.61.27.61.6.04,4.28.08,8.2.13,11.71,0,.34-.26.61-.6.62h0Z"/>
  <path class="cls-1" d="M187.81,182.85c-.33,0-.61-.27-.61-.6-.03-3.7-.05-7.61-.07-11.72,0-.34.27-.61.6-.61h0c.33,0,.61.27.61.6.02,4.1.04,8.02.07,11.71,0,.34-.27.61-.6.61h0Z"/>
  <path class="cls-1" d="M187.71,164.3c-.33,0-.61-.27-.61-.6-.02-3.77-.03-7.68-.04-11.72,0-.34.27-.61.61-.61h0c.33,0,.61.27.61.61.01,4.03.02,7.94.04,11.71,0,.34-.27.61-.6.61h0Z"/>
  <path class="cls-1" d="M187.65,145.75c-.33,0-.61-.27-.61-.61l-.02-11.71c0-.34.27-.61.61-.61h0c.34,0,.61.27.61.61l.02,11.71c0,.34-.27.61-.61.61h0Z"/>
  <path class="cls-1" d="M187.62,127.21c-.34,0-.61-.27-.61-.61v-11.71c0-.34.26-.61.6-.61s.61.27.61.61v11.71c0,.34-.26.61-.6.61h0Z"/>
  <path class="cls-1" d="M187.61,108.66h0c-.34,0-.61-.27-.61-.61v-11.71c0-.34.28-.61.61-.61h0c.34,0,.61.27.61.61v11.71c0,.34-.28.61-.61.61Z"/>
  <path class="cls-1" d="M187.62,90.11h0c-.34,0-.61-.27-.61-.61v-11.72c.01-.34.28-.61.62-.61h0c.34,0,.61.27.61.61v11.72c-.01.33-.28.61-.62.61Z"/>
  <path class="cls-1" d="M187.64,71.57h0c-.34,0-.61-.27-.61-.61l.02-11.72c0-.34.27-.61.61-.61h0c.34,0,.61.27.61.61l-.02,11.72c0,.34-.27.61-.61.61Z"/>
  <path class="cls-1" d="M187.67,53.02h0c-.34,0-.61-.27-.61-.61l.03-11.71c0-.33.27-.61.61-.61h0c.34,0,.61.27.61.61l-.03,11.71c0,.34-.27.61-.61.61Z"/>
  <path class="cls-1" d="M187.72,34.47h0c-.34,0-.61-.27-.61-.61l.03-11.71c0-.34.28-.59.61-.61.34,0,.61.27.61.61l-.03,11.71c0,.33-.27.61-.61.61Z"/>
  <path class="cls-1" d="M187.77,15.93h0c-.34,0-.61-.27-.61-.61l.04-11.71c0-.33.27-.61.61-.61h0c.34,0,.61.27.61.61l-.04,11.71c0,.33-.27.61-.61.61Z"/>
  <path class="cls-1" d="M172.44,297h0c-.34,0-.61-.28-.6-.61.03-3.96.05-7.84.08-11.64,0-.33.27-.6.61-.6h0c.34,0,.61.28.6.61-.02,3.79-.05,7.68-.08,11.64,0,.33-.27.6-.61.6Z"/>
  <path class="cls-1" d="M172.56,279.5h0c-.34,0-.61-.28-.6-.61.02-4.03.05-7.94.06-11.71,0-.33.27-.6.61-.6h0c.34,0,.61.27.6.61-.02,3.77-.04,7.68-.06,11.71,0,.33-.27.6-.61.6Z"/>
  <path class="cls-1" d="M172.65,261.94c-.36,0-.61-.27-.61-.61.02-4.12.03-8.03.04-11.71,0-.34.24-.6.61-.61.34,0,.61.27.61.61-.01,3.68-.02,7.6-.04,11.71,0,.33-.27.6-.61.6Z"/>
  <path class="cls-1" d="M172.71,244.37h0c-.34,0-.61-.27-.61-.61,0-2.37,0-4.61,0-6.73v-4.98c0-.34.27-.61.6-.61h0c.34,0,.61.27.61.61v4.99c0,2.11,0,4.36,0,6.73,0,.34-.27.61-.61.61Z"/>
  <path class="cls-1" d="M172.69,226.8c-.33,0-.61-.27-.61-.6-.03-4.63-.08-7.77-.15-9.33-.02-.54-.05-1.34-.07-2.37,0-.34.26-.61.59-.62h.01c.33,0,.6.26.61.59.02,1.02.04,1.8.07,2.34.07,1.58.12,4.74.15,9.38,0,.34-.27.61-.6.61h0Z"/>
  <path class="cls-1" d="M172.38,209.23c-.33,0-.6-.27-.61-.6-.03-3.17-.06-7.11-.09-11.72,0-.34.27-.61.6-.61h0c.33,0,.61.27.61.6.03,4.61.06,8.55.09,11.72,0,.34-.26.61-.6.61h0Z"/>
  <path class="cls-1" d="M172.26,191.65c-.33,0-.61-.27-.61-.6-.02-3.61-.03-7.52-.04-11.72,0-.34.27-.61.61-.61h0c.33,0,.61.27.61.61.01,4.19.03,8.11.04,11.72,0,.34-.24.58-.61.61Z"/>
  <path class="cls-1" d="M172.21,174.07c-.33,0-.61-.27-.61-.61,0-3.73-.02-7.64-.02-11.72,0-.34.27-.61.61-.61h0c.34,0,.61.27.61.61,0,4.08.01,7.99.02,11.71,0,.34-.27.61-.61.61h0Z"/>
  <path class="cls-1" d="M172.17,156.5c-.34,0-.61-.27-.61-.61v-11.72c-.01-.34.26-.61.59-.61h0c.34,0,.61.27.61.61v11.71c.01.34-.26.61-.59.61h0Z"/>
  <path class="cls-1" d="M172.16,138.93c-.34,0-.61-.27-.61-.61v-11.71c0-.34.27-.61.6-.61s.61.27.61.61v11.71c0,.34-.27.61-.6.61Z"/>
  <path class="cls-1" d="M172.15,121.35c-.34,0-.61-.27-.61-.61v-11.71c0-.34.27-.61.61-.61h0c.34,0,.61.27.61.61v11.71c0,.34-.27.61-.61.61Z"/>
  <path class="cls-1" d="M172.15,103.79h0c-.34,0-.61-.27-.61-.61v-11.71c0-.34.28-.61.61-.61h0c.34,0,.61.27.61.61v11.71c0,.34-.28.61-.61.61Z"/>
  <path class="cls-1" d="M172.16,86.22h0c-.34,0-.61-.27-.61-.61v-11.72c0-.34.28-.61.62-.61h0c.34,0,.61.27.61.61v11.72c0,.34-.28.61-.62.61Z"/>
  <path class="cls-1" d="M172.18,55.71h0c.33,0,.61.27.61.61v11.72c0,.33-.27.61-.61.61h0c-.33,0-.61-.27-.61-.61v-11.72c0-.34.27-.61.61-.61Z"/>
  <path class="cls-1" d="M172.19,51.06h0c-.34,0-.61-.27-.61-.61v-11.71c.01-.34.28-.61.62-.61h0c.34,0,.61.27.61.61v11.71c-.01.33-.28.61-.62.61Z"/>
  <path class="cls-1" d="M172.21,33.49h0c-.34,0-.61-.27-.61-.61l.02-11.71c0-.34.27-.61.61-.61h0c.34,0,.61.27.61.61l-.02,11.71c0,.33-.27.61-.61.61Z"/>
  <path class="cls-1" d="M172.24,15.93h0c-.34,0-.61-.27-.61-.61l.02-11.71c0-.34.27-.61.61-.61h0c.34,0,.61.27.61.61l-.02,11.71c0,.34-.27.61-.61.61Z"/>
  <path class="cls-1" d="M156.7,297c-.34,0-.61-.27-.61-.61v-11.71c0-.34.27-.61.61-.61s.61.27.61.61v11.71c0,.34-.27.61-.61.61Z"/>
  <path class="cls-1" d="M156.7,273.58c-.34,0-.61-.27-.61-.61v-11.71c0-.34.27-.61.61-.61s.61.27.61.61v11.71c0,.34-.27.61-.61.61Z"/>
  <path class="cls-1" d="M156.7,250.15c-.34,0-.61-.27-.61-.61v-11.71c0-.34.27-.61.61-.61s.61.27.61.61v11.71c0,.34-.27.61-.61.61Z"/>
  <path class="cls-1" d="M156.7,226.73c-.34,0-.61-.27-.61-.61v-11.71c0-.34.27-.61.61-.61s.61.27.61.61v11.71c0,.34-.27.61-.61.61Z"/>
  <path class="cls-1" d="M156.7,203.31c-.34,0-.61-.27-.61-.61v-11.71c0-.34.27-.61.61-.61s.61.27.61.61v11.71c0,.34-.27.61-.61.61Z"/>
  <path class="cls-1" d="M156.7,179.89c-.34,0-.61-.27-.61-.61v-11.71c0-.34.27-.61.61-.61s.61.27.61.61v11.71c0,.34-.27.61-.61.61Z"/>
  <path class="cls-1" d="M156.7,156.46c-.34,0-.61-.27-.61-.61v-11.71c0-.34.27-.61.61-.61s.61.27.61.61v11.71c0,.34-.27.61-.61.61Z"/>
  <path class="cls-1" d="M156.7,133.04c-.34,0-.61-.27-.61-.61v-11.71c0-.34.27-.61.61-.61s.61.27.61.61v11.71c0,.34-.27.61-.61.61Z"/>
  <path class="cls-1" d="M156.7,109.62c-.34,0-.61-.27-.61-.61v-11.71c0-.34.27-.61.61-.61s.61.27.61.61v11.71c0,.34-.27.61-.61.61Z"/>
  <path class="cls-1" d="M156.7,86.2c-.34,0-.61-.27-.61-.61v-11.71c0-.34.27-.61.61-.61s.61.27.61.61v11.71c0,.34-.27.61-.61.61Z"/>
  <path class="cls-1" d="M156.7,62.78c-.34,0-.61-.27-.61-.61v-11.71c0-.34.27-.61.61-.61s.61.27.61.61v11.71c0,.34-.27.61-.61.61Z"/>
  <path class="cls-1" d="M156.7,39.35c-.34,0-.61-.27-.61-.61v-11.71c0-.34.27-.61.61-.61s.61.27.61.61v11.71c0,.34-.27.61-.61.61Z"/>
  <path class="cls-1" d="M156.7,15.93c-.34,0-.61-.27-.61-.61V3.61c0-.34.27-.61.61-.61s.61.27.61.61v11.71c0,.34-.27.61-.61.61Z"/>
  <path class="cls-1" d="M140.4,297h0c-.34,0-.61-.27-.61-.61v-11.71c.01-.34.29-.61.62-.61h0c.34,0,.61.27.61.61v11.71c-.01.33-.29.61-.62.61Z"/>
  <path class="cls-1" d="M140.43,278.45h0c-.34,0-.61-.27-.61-.61l.02-11.71c0-.34.27-.61.61-.61h0c.34,0,.61.27.61.61l-.02,11.71c0,.34-.27.61-.61.61Z"/>
  <path class="cls-1" d="M140.47,259.9h0c-.34,0-.61-.27-.61-.61.01-4.05.02-7.95.04-11.71,0-.34.27-.61.61-.61h0c.34,0,.61.27.61.61-.01,3.76-.03,7.67-.04,11.71,0,.33-.27.61-.61.61Z"/>
  <path class="cls-1" d="M140.54,241.35h0c-.34,0-.61-.27-.6-.61.02-4.12.04-8.03.06-11.71,0-.34.25-.56.61-.6.34,0,.61.28.6.61-.02,3.68-.04,7.59-.06,11.71,0,.33-.27.6-.61.6Z"/>
  <path class="cls-1" d="M140.65,222.81h0c-.34,0-.61-.28-.6-.61.03-4.3.07-8.22.11-11.72,0-.33.27-.6.61-.6h0c.34,0,.6.28.6.61-.04,3.5-.08,7.42-.11,11.71,0,.33-.27.6-.61.6Z"/>
  <path class="cls-1" d="M140.85,204.26h0c-.34,0-.6-.28-.6-.62.09-5.96.2-9.8.32-11.75.02-.34.3-.61.65-.57.33.02.59.31.57.65-.12,1.9-.23,5.83-.32,11.69,0,.33-.28.6-.61.6Z"/>
  <path class="cls-1" d="M141.7,185.7h-.03c-.34-.02-.59-.3-.58-.64.14-2.86.28-6.81.43-11.72,0-.33.28-.59.61-.59h.02c.34,0,.6.29.59.63-.14,4.92-.29,8.87-.43,11.74-.02.33-.28.58-.61.58Z"/>
  <path class="cls-1" d="M142.32,167.13h-.02c-.33,0-.6-.29-.59-.62.09-3.59.19-7.51.28-11.72,0-.33.28-.59.61-.59h.01c.34,0,.6.28.59.62-.09,4.21-.19,8.13-.28,11.73,0,.33-.28.59-.61.59Z"/>
  <path class="cls-1" d="M142.75,148.57h-.01c-.34,0-.6-.28-.59-.62.08-3.74.16-7.65.23-11.72,0-.33.28-.6.61-.6h.01c.34,0,.6.28.6.62-.08,4.07-.16,7.99-.23,11.72,0,.33-.28.59-.61.59Z"/>
  <path class="cls-1" d="M143.11,130.01h-.01c-.34,0-.6-.28-.6-.62.07-3.8.14-7.71.21-11.72,0-.33.28-.6.61-.6h.01c.34,0,.6.28.6.62-.07,4.01-.14,7.92-.21,11.72,0,.33-.28.6-.61.6Z"/>
  <path class="cls-1" d="M143.43,111.45h-.01c-.34,0-.6-.28-.6-.62l.19-11.72c0-.34.31-.64.62-.6.34,0,.6.28.6.62l-.19,11.72c0,.33-.28.6-.61.6Z"/>
  <path class="cls-1" d="M143.73,92.89h0c-.34,0-.6-.28-.6-.62l.18-11.72c0-.33.28-.6.61-.6h0c.34,0,.6.28.6.62l-.18,11.72c0,.33-.28.6-.61.6Z"/>
  <path class="cls-1" d="M144.01,74.33h0c-.34,0-.6-.28-.6-.62l.17-11.72c0-.34.3-.6.62-.6.34,0,.6.28.6.62l-.17,11.72c0,.33-.28.6-.61.6Z"/>
  <path class="cls-1" d="M144.28,55.78h0c-.34,0-.6-.28-.6-.62l.17-11.72c0-.33.28-.6.61-.6h0c.34,0,.6.28.6.62l-.17,11.72c0,.33-.28.6-.61.6Z"/>
  <path class="cls-1" d="M144.55,37.2h0c-.34,0-.6-.28-.6-.62l.16-11.72c0-.33.28-.6.61-.6h0c.34,0,.6.28.6.62l-.16,11.72c0,.33-.28.6-.61.6Z"/>
  <path class="cls-1" d="M144.81,18.64h0c-.34,0-.6-.28-.6-.62l.16-11.72c0-.33.28-.6.61-.6h0c.34,0,.6.28.6.62l-.16,11.72c0,.33-.28.6-.61.6Z"/>
  <path class="cls-1" d="M124.12,297h0c-.34,0-.61-.27-.61-.61,0-3.98.02-7.89.03-11.71,0-.33.27-.61.61-.61h0c.34,0,.61.27.61.61-.01,3.83-.02,7.73-.03,11.71,0,.34-.27.61-.61.61Z"/>
  <path class="cls-1" d="M124.2,273.57h0c-.34,0-.61-.27-.6-.61.02-4.01.04-7.92.06-11.71,0-.33.27-.6.61-.6h0c.34,0,.61.28.6.61-.02,3.79-.04,7.7-.06,11.71,0,.33-.27.6-.61.6Z"/>
  <path class="cls-1" d="M124.34,250.14h0c-.34,0-.61-.28-.6-.61.03-4.08.07-7.98.11-11.72,0-.33.27-.6.61-.6h0c.34,0,.6.28.6.61-.04,3.73-.08,7.64-.11,11.71,0,.33-.27.6-.61.6Z"/>
  <path class="cls-1" d="M124.6,226.72h0c-.34,0-.6-.28-.6-.62.06-4.23.13-8.15.2-11.72,0-.34.29-.6.62-.59.34,0,.6.28.59.62-.07,3.57-.14,7.48-.2,11.71,0,.33-.28.6-.61.6Z"/>
  <path class="cls-1" d="M125.11,203.29h-.02c-.34-.01-.6-.29-.59-.63.2-5.94.44-9.9.71-11.76.05-.33.36-.56.69-.52.33.05.56.36.52.69-.26,1.82-.5,5.73-.7,11.63-.01.33-.28.59-.61.59Z"/>
  <path class="cls-1" d="M126.99,179.92s-.03,0-.04,0c-.33-.02-.59-.31-.56-.65.23-3.26.47-7.2.71-11.7.02-.32.28-.57.61-.57.01,0,.02,0,.03,0,.34.02.59.3.57.64-.24,4.51-.48,8.45-.71,11.72-.02.32-.29.56-.61.56Z"/>
  <path class="cls-1" d="M128.28,156.5h-.03c-.34-.02-.59-.3-.58-.63.17-3.69.34-7.61.51-11.71.01-.34.31-.58.63-.58.34.01.6.3.58.63-.17,4.1-.34,8.02-.51,11.71-.02.33-.28.58-.61.58Z"/>
  <path class="cls-1" d="M129.26,133.07h-.02c-.34-.01-.6-.3-.58-.63.15-3.79.29-7.7.44-11.71.01-.33.26-.57.63-.59.34.01.6.29.59.63-.14,4.01-.29,7.92-.44,11.72-.01.33-.28.58-.61.58Z"/>
  <path class="cls-1" d="M130.11,109.64h-.02c-.34-.01-.6-.29-.59-.63.13-3.84.26-7.75.39-11.71.01-.34.28-.6.63-.59.34.01.6.29.59.63-.13,3.96-.26,7.88-.39,11.72-.01.33-.28.59-.61.59Z"/>
  <path class="cls-1" d="M130.89,86.21h-.02c-.34-.01-.6-.29-.59-.63.12-3.87.25-7.78.37-11.72.01-.33.28-.59.61-.59h.02c.34.01.6.29.59.63-.12,3.94-.24,7.84-.37,11.72-.01.33-.28.59-.61.59Z"/>
  <path class="cls-1" d="M131.61,62.78h-.02c-.34-.01-.6-.29-.59-.63l.35-11.71c0-.33.26-.6.63-.59.34,0,.6.29.59.63l-.35,11.71c0,.33-.28.59-.61.59Z"/>
  <path class="cls-1" d="M132.31,39.34h-.02c-.33,0-.6-.29-.59-.63l.34-11.72c0-.34.29-.62.62-.59.34,0,.6.29.59.62l-.34,11.72c0,.33-.28.59-.61.59Z"/>
  <path class="cls-1" d="M132.99,15.91h-.02c-.34,0-.6-.29-.59-.62l.34-11.69c0-.34.29-.62.62-.59.34,0,.6.29.59.62l-.34,11.69c0,.33-.28.59-.61.59Z"/>
  <path class="cls-1" d="M107.86,297h0c-.34,0-.61-.27-.61-.61.02-3.98.03-7.89.06-11.71,0-.33.27-.6.61-.6h0c.34,0,.61.28.6.61-.02,3.83-.04,7.73-.06,11.71,0,.34-.27.61-.61.61Z"/>
  <path class="cls-1" d="M107.95,279.43h0c-.34,0-.61-.28-.6-.61.03-4,.06-7.91.09-11.71,0-.34.27-.56.61-.6.34,0,.6.28.6.61-.03,3.8-.06,7.71-.09,11.71,0,.33-.27.6-.61.6Z"/>
  <path class="cls-1" d="M108.1,261.86h0c-.34,0-.61-.28-.6-.61.04-4.04.08-7.94.13-11.71,0-.33.28-.6.61-.6h0c.34,0,.6.28.6.61-.05,3.77-.09,7.68-.13,11.71,0,.33-.27.6-.61.6Z"/>
  <path class="cls-1" d="M108.31,244.29h0c-.34,0-.6-.28-.6-.62.06-4.09.13-8,.2-11.72,0-.33.28-.59.61-.59h.01c.34,0,.6.28.59.62-.07,3.71-.14,7.62-.2,11.71,0,.33-.28.6-.61.6Z"/>
  <path class="cls-1" d="M108.64,226.72h-.01c-.34,0-.6-.29-.59-.62.1-4.22.2-8.13.32-11.72.01-.34.29-.6.63-.59.34.01.6.29.59.63-.12,3.58-.22,7.49-.32,11.7,0,.33-.28.59-.61.59Z"/>
  <path class="cls-1" d="M109.17,209.15h-.02c-.34-.01-.6-.3-.58-.63.19-4.73.4-8.67.63-11.72.02-.33.32-.59.65-.56.34.03.59.32.56.65-.23,3.03-.44,6.96-.63,11.68-.01.33-.28.58-.61.58Z"/>
  <path class="cls-1" d="M110.39,191.63s-.06,0-.09,0c-.33-.05-.56-.36-.51-.69.03-.2.06-.38.09-.56.45-2.55.92-6.26,1.4-11.04.03-.34.33-.58.67-.54.33.03.58.33.54.67-.49,4.81-.96,8.56-1.41,11.13-.03.17-.06.34-.09.53-.05.3-.3.51-.6.51Z"/>
  <path class="cls-1" d="M112.44,174.16s-.04,0-.05,0c-.33-.03-.58-.32-.55-.66.31-3.47.63-7.4.95-11.68.02-.33.32-.58.65-.56.34.03.59.32.56.65-.32,4.28-.64,8.22-.95,11.69-.03.32-.29.55-.6.55Z"/>
  <path class="cls-1" d="M113.81,156.62s-.03,0-.04,0c-.33-.02-.59-.31-.56-.65.26-3.7.52-7.61.78-11.69.02-.33.31-.59.65-.57.33.02.59.31.57.65-.26,4.08-.52,7.99-.78,11.7-.02.32-.29.56-.61.56Z"/>
  <path class="cls-1" d="M114.96,139.08s-.03,0-.04,0c-.33-.02-.59-.31-.57-.64.23-3.78.46-7.68.69-11.7.02-.34.3-.61.64-.57.33.02.59.31.57.64-.23,4.02-.46,7.93-.69,11.7-.02.32-.29.57-.61.57Z"/>
  <path class="cls-1" d="M115.99,121.52s-.02,0-.04,0c-.33-.02-.59-.3-.57-.64.21-3.82.43-7.73.64-11.7.02-.34.32-.59.64-.57.34.02.59.3.57.64-.21,3.98-.43,7.88-.64,11.71-.02.32-.29.57-.61.57Z"/>
  <path class="cls-1" d="M116.94,103.97h-.03c-.34-.02-.59-.3-.57-.64.2-3.85.4-7.76.6-11.7.02-.34.3-.59.64-.58.34.02.59.3.58.64-.2,3.95-.4,7.86-.6,11.71-.02.32-.28.58-.61.58Z"/>
  <path class="cls-1" d="M117.83,86.41h-.03c-.33-.02-.59-.3-.58-.64.19-3.87.38-7.78.57-11.71.02-.34.3-.58.64-.58.33.02.59.3.58.64-.19,3.93-.38,7.84-.57,11.71-.02.32-.28.58-.61.58Z"/>
  <path class="cls-1" d="M118.69,68.85h-.03c-.34-.02-.59-.3-.58-.64.19-3.89.37-7.79.55-11.7.02-.34.33-.58.64-.58.33.02.59.3.58.64-.18,3.91-.37,7.81-.55,11.7-.02.33-.28.58-.61.58Z"/>
  <path class="cls-1" d="M119.51,51.29h-.03c-.34-.02-.59-.3-.58-.63l.54-11.71c.02-.33.27-.56.63-.58.34.02.59.3.58.63l-.54,11.71c-.02.32-.28.58-.61.58Z"/>
  <path class="cls-1" d="M120.32,33.73h-.03c-.34-.02-.59-.3-.58-.63l.53-11.71c.02-.34.32-.57.63-.58.33.02.59.3.58.63l-.53,11.71c-.02.33-.28.58-.61.58Z"/>
  <path class="cls-1" d="M121.11,16.16h-.03c-.34-.02-.59-.3-.58-.63l.52-11.71c.02-.33.31-.59.63-.58.34.02.59.3.58.63l-.52,11.71c-.02.33-.28.58-.61.58Z"/>
  <path class="cls-1" d="M91.61,297h0c-.34,0-.61-.28-.6-.61.02-3.98.05-7.88.08-11.71,0-.33.27-.6.61-.6h0c.34,0,.61.28.6.61-.03,3.83-.06,7.74-.08,11.71,0,.33-.27.6-.61.6Z"/>
  <path class="cls-1" d="M91.76,278.45h0c-.34,0-.61-.28-.6-.61.04-4,.08-7.91.13-11.71,0-.34.3-.56.61-.6.34,0,.6.28.6.61-.05,3.81-.09,7.71-.13,11.71,0,.33-.27.6-.61.6Z"/>
  <path class="cls-1" d="M91.99,259.91h0c-.34,0-.6-.28-.6-.62.06-4.04.13-7.94.2-11.72,0-.34.26-.59.62-.6.34,0,.6.28.6.62-.07,3.77-.14,7.68-.2,11.71,0,.33-.28.6-.61.6Z"/>
  <path class="cls-1" d="M92.33,241.36h-.01c-.34,0-.6-.28-.59-.62.09-4.1.19-8.01.3-11.71,0-.33.28-.59.61-.59h.02c.34,0,.6.29.59.63-.11,3.7-.21,7.61-.3,11.71,0,.33-.28.59-.61.59Z"/>
  <path class="cls-1" d="M92.85,222.82h-.02c-.34-.01-.6-.29-.59-.63.15-4.29.32-8.24.49-11.71.02-.34.31-.59.64-.58.33.02.59.3.58.64-.17,3.47-.34,7.41-.49,11.69-.01.33-.28.59-.61.59Z"/>
  <path class="cls-1" d="M93.73,204.3s-.03,0-.04,0c-.34-.02-.59-.31-.57-.65.32-4.96.69-8.9,1.08-11.71.05-.33.36-.56.69-.52.33.05.56.35.52.69-.39,2.78-.75,6.69-1.07,11.62-.02.32-.29.57-.61.57Z"/>
  <path class="cls-1" d="M95.88,185.88s-.06,0-.09,0c-.33-.05-.56-.36-.51-.69.48-3.29.98-7.2,1.48-11.61.04-.33.34-.58.67-.53.33.04.57.34.53.67-.51,4.43-1.01,8.35-1.49,11.65-.04.3-.3.52-.6.52Z"/>
  <path class="cls-1" d="M98.1,167.45s-.04,0-.06,0c-.33-.04-.58-.33-.54-.67.38-3.6.76-7.52,1.15-11.66.03-.33.33-.58.66-.55s.58.33.55.66c-.39,4.14-.77,8.07-1.15,11.67-.03.31-.3.54-.6.54Z"/>
  <path class="cls-1" d="M99.87,148.97s-.04,0-.05,0c-.33-.03-.58-.32-.55-.66.33-3.75.67-7.65,1-11.67.03-.34.33-.6.66-.55.33.03.58.32.55.66-.33,4.03-.67,7.93-1,11.68-.03.32-.29.55-.6.55Z"/>
  <path class="cls-1" d="M101.43,130.48s-.03,0-.05,0c-.33-.03-.58-.32-.56-.65.3-3.8.61-7.7.91-11.68.03-.34.32-.58.65-.56.33.03.58.32.56.65-.3,3.98-.61,7.88-.91,11.69-.02.32-.29.56-.6.56Z"/>
  <path class="cls-1" d="M102.85,111.98s-.03,0-.05,0c-.33-.02-.59-.32-.56-.65.28-3.84.57-7.74.85-11.69.02-.34.31-.6.65-.56.33.02.59.31.56.65-.28,3.95-.57,7.85-.85,11.69-.02.32-.29.56-.61.56Z"/>
  <path class="cls-1" d="M104.19,93.47s-.03,0-.04,0c-.33-.02-.59-.31-.56-.65.27-3.86.54-7.76.81-11.69.02-.34.34-.58.65-.57.34.02.59.31.57.65-.27,3.93-.54,7.83-.81,11.69-.02.32-.29.56-.61.56Z"/>
  <path class="cls-1" d="M105.46,74.96s-.03,0-.04,0c-.33-.02-.59-.31-.57-.65.26-3.88.52-7.78.78-11.68.02-.33.3-.6.65-.57.33.02.59.31.57.65-.26,3.91-.52,7.81-.78,11.69-.02.32-.29.57-.61.57Z"/>
  <path class="cls-1" d="M106.69,56.45s-.03,0-.04,0c-.34-.02-.59-.31-.57-.65.25-3.9.51-7.8.75-11.7.02-.33.3-.6.65-.57.33.02.59.31.57.65-.25,3.9-.5,7.8-.75,11.7-.02.32-.29.57-.61.57Z"/>
  <path class="cls-1" d="M107.88,37.92s-.03,0-.04,0c-.34-.02-.59-.31-.57-.64l.74-11.7c.02-.34.31-.59.64-.57.33.02.59.31.57.64l-.74,11.7c-.02.32-.29.57-.61.57Z"/>
  <path class="cls-1" d="M109.04,19.4s-.03,0-.04,0c-.33-.02-.59-.31-.57-.64l.73-11.7c.02-.34.33-.6.64-.57.34.02.59.31.57.64l-.73,11.7c-.02.32-.29.57-.61.57Z"/>
  <path class="cls-1" d="M75.38,297h0c-.33,0-.6-.28-.6-.61.03-3.97.07-7.88.12-11.71,0-.33.27-.6.61-.6h0c.34,0,.6.28.6.61-.04,3.83-.08,7.74-.12,11.71,0,.33-.27.6-.61.6Z"/>
  <path class="cls-1" d="M75.57,279.43h0c-.34,0-.6-.28-.6-.62.05-3.99.11-7.9.18-11.71,0-.33.28-.6.61-.6h.01c.34,0,.6.28.6.62-.06,3.81-.12,7.72-.18,11.71,0,.33-.28.6-.61.6Z"/>
  <path class="cls-1" d="M75.85,261.86h-.01c-.34,0-.6-.28-.6-.62.08-4.03.16-7.93.26-11.71,0-.33.28-.59.61-.59h.02c.33,0,.6.29.59.62-.09,3.78-.18,7.68-.26,11.71,0,.33-.28.6-.61.6Z"/>
  <path class="cls-1" d="M76.26,244.3h-.02c-.34,0-.6-.29-.59-.62.11-4.07.24-7.98.37-11.71.01-.33.26-.57.63-.59.34.01.6.29.59.63-.13,3.72-.26,7.63-.37,11.7,0,.33-.28.59-.61.59Z"/>
  <path class="cls-1" d="M76.85,226.74h-.02c-.34-.01-.6-.3-.58-.63.17-4.16.36-8.1.56-11.71.02-.34.3-.61.64-.57.34.02.59.3.57.64-.2,3.61-.39,7.54-.56,11.69-.01.33-.28.58-.61.58Z"/>
  <path class="cls-1" d="M77.77,209.19s-.03,0-.04,0c-.34-.02-.59-.31-.57-.65.3-4.49.63-8.43.98-11.7.04-.33.34-.57.67-.54.33.04.57.34.54.67-.35,3.25-.68,7.17-.98,11.65-.02.32-.29.57-.61.57Z"/>
  <path class="cls-1" d="M79.51,191.71s-.06,0-.1,0c-.33-.05-.56-.37-.5-.7l.15-.89c.55-3.13,1.12-6.72,1.69-10.68.05-.33.37-.55.69-.51.33.05.56.36.51.69-.58,3.97-1.15,7.57-1.7,10.71l-.15.87c-.05.3-.31.51-.6.51Z"/>
  <path class="cls-1" d="M82.17,174.33s-.05,0-.08,0c-.33-.05-.57-.35-.52-.68.48-3.54.98-7.45,1.49-11.62.04-.33.34-.57.68-.53.33.04.57.34.53.68-.51,4.18-1.01,8.09-1.49,11.63-.04.3-.3.53-.6.53Z"/>
  <path class="cls-1" d="M84.35,156.88s-.05,0-.07,0c-.33-.04-.57-.34-.53-.67.44-3.74.87-7.63,1.31-11.64.04-.33.33-.57.67-.54.33.04.57.34.54.67-.44,4.02-.88,7.91-1.31,11.65-.04.31-.3.54-.6.54Z"/>
  <path class="cls-1" d="M86.29,139.41s-.04,0-.06,0c-.33-.04-.58-.33-.54-.67.4-3.79.8-7.68,1.2-11.65.03-.33.33-.58.67-.54.33.03.58.33.54.67-.4,3.98-.8,7.87-1.2,11.66-.03.31-.3.54-.6.54Z"/>
  <path class="cls-1" d="M88.08,121.92s-.04,0-.06,0c-.33-.03-.58-.33-.54-.66.38-3.82.75-7.71,1.13-11.66.03-.33.34-.57.66-.55.33.03.58.33.55.66-.38,3.95-.75,7.84-1.13,11.67-.03.31-.29.55-.6.55Z"/>
  <path class="cls-1" d="M89.76,104.43s-.04,0-.06,0c-.33-.03-.58-.33-.55-.66.36-3.85.72-7.74,1.08-11.67.03-.33.33-.58.66-.55.33.03.58.33.55.66-.36,3.93-.72,7.82-1.08,11.67-.03.32-.29.55-.6.55Z"/>
  <path class="cls-1" d="M91.36,86.92s-.04,0-.06,0c-.33-.03-.58-.32-.55-.66.35-3.86.69-7.76,1.03-11.67.03-.33.32-.6.66-.55.33.03.58.32.55.66-.34,3.91-.69,7.81-1.03,11.67-.03.32-.29.55-.6.55Z"/>
  <path class="cls-1" d="M92.9,69.42s-.04,0-.05,0c-.33-.03-.58-.32-.55-.66.34-3.88.67-7.78,1-11.67.03-.33.33-.59.66-.55.33.03.58.32.55.66-.33,3.9-.67,7.79-1,11.67-.03.32-.29.55-.6.55Z"/>
  <path class="cls-1" d="M94.4,51.91s-.03,0-.05,0c-.33-.03-.58-.32-.55-.66.33-3.9.65-7.8.98-11.68.03-.34.33-.6.66-.55.33.03.58.32.55.66-.32,3.88-.65,7.78-.98,11.68-.03.32-.29.56-.6.56Z"/>
  <path class="cls-1" d="M95.86,34.39s-.03,0-.05,0c-.33-.03-.58-.32-.56-.65.32-3.92.64-7.81.96-11.68.03-.33.32-.59.65-.56.33.03.58.32.56.65-.32,3.87-.63,7.76-.96,11.68-.03.32-.29.56-.6.56Z"/>
  <path class="cls-1" d="M97.29,16.87s-.03,0-.05,0c-.33-.03-.58-.32-.56-.65l.94-11.68c.03-.33.33-.59.65-.56.33.03.58.32.56.65l-.94,11.68c-.03.32-.29.56-.6.56Z"/>
  <path class="cls-1" d="M66.99,297h0c-.34,0-.61-.28-.6-.61.02-3.98.05-7.88.08-11.71,0-.33.27-.6.61-.6h0c.34,0,.61.28.6.61-.03,3.83-.06,7.74-.08,11.71,0,.33-.27.6-.61.6Z"/>
  <path class="cls-1" d="M67.19,273.57h0c-.34,0-.6-.28-.6-.61.04-4.01.09-7.92.15-11.71,0-.34.32-.58.62-.6.34,0,.6.28.6.62-.05,3.8-.1,7.7-.15,11.71,0,.33-.27.6-.61.6Z"/>
  <path class="cls-1" d="M67.53,250.15h-.01c-.34,0-.6-.28-.6-.62.08-4.06.16-7.97.25-11.71,0-.34.25-.62.62-.59.34,0,.6.29.59.62-.09,3.74-.17,7.65-.25,11.71,0,.33-.28.6-.61.6Z"/>
  <path class="cls-1" d="M68.1,226.73h-.02c-.34-.01-.6-.29-.59-.63.14-4.26.28-8.2.44-11.71.01-.33.3-.58.63-.58.34.02.59.3.58.63-.16,3.51-.3,7.45-.44,11.7-.01.33-.28.59-.61.59Z"/>
  <path class="cls-1" d="M69.18,203.32s-.03,0-.04,0c-.34-.02-.59-.31-.57-.65.35-5.09.74-9.03,1.17-11.71.05-.33.37-.56.69-.5.33.05.56.36.5.69-.42,2.64-.81,6.55-1.15,11.6-.02.32-.29.57-.61.57Z"/>
  <path class="cls-1" d="M72.05,180.07s-.05,0-.08,0c-.33-.04-.57-.35-.53-.68.43-3.41.88-7.33,1.34-11.63.04-.33.33-.57.67-.54.33.04.58.33.54.67-.46,4.31-.91,8.24-1.34,11.66-.04.31-.3.53-.6.53Z"/>
  <path class="cls-1" d="M74.55,156.76s-.04,0-.06,0c-.33-.03-.58-.33-.55-.66.35-3.72.7-7.62,1.05-11.67.03-.33.32-.59.66-.55.33.03.58.32.55.66-.35,4.06-.7,7.96-1.05,11.68-.03.31-.29.55-.6.55Z"/>
  <path class="cls-1" d="M76.57,133.4s-.03,0-.05,0c-.33-.03-.58-.32-.56-.65.31-3.8.62-7.69.92-11.68.02-.33.33-.6.65-.56.33.03.59.32.56.65-.31,3.99-.62,7.89-.92,11.69-.03.32-.29.56-.6.56Z"/>
  <path class="cls-1" d="M78.38,110.03s-.03,0-.05,0c-.33-.02-.59-.32-.56-.65.28-3.84.57-7.74.85-11.69.02-.34.34-.59.65-.56.34.02.59.31.56.65-.28,3.95-.56,7.85-.85,11.69-.02.32-.29.56-.61.56Z"/>
  <path class="cls-1" d="M80.04,86.65s-.03,0-.04,0c-.33-.02-.59-.31-.56-.65.27-3.87.53-7.77.8-11.69.02-.33.32-.58.65-.57.33.02.59.31.57.65-.26,3.92-.53,7.82-.8,11.69-.02.32-.29.57-.61.57Z"/>
  <path class="cls-1" d="M81.62,63.27s-.03,0-.04,0c-.33-.02-.59-.31-.57-.65.26-3.89.51-7.79.76-11.69.02-.33.3-.6.65-.57.33.02.59.31.57.65-.25,3.9-.51,7.8-.76,11.69-.02.32-.29.57-.61.57Z"/>
  <path class="cls-1" d="M83.13,39.88s-.03,0-.04,0c-.34-.02-.59-.31-.57-.64l.74-11.7c.02-.34.3-.59.64-.57.33.02.59.31.57.64l-.74,11.7c-.02.32-.29.57-.61.57Z"/>
  <path class="cls-1" d="M84.6,16.48s-.03,0-.04,0c-.33-.02-.59-.31-.57-.64l.73-11.69c.02-.34.3-.6.64-.57.33.02.59.31.57.64l-.73,11.7c-.02.32-.29.57-.61.57Z"/>
  <path class="cls-1" d="M58.62,297h0c-.34,0-.61-.27-.61-.61.02-3.98.03-7.89.06-11.72,0-.33.27-.6.61-.6h0c.34,0,.61.28.6.61-.02,3.83-.04,7.73-.06,11.71,0,.34-.27.61-.61.61Z"/>
  <path class="cls-1" d="M58.72,278.45h0c-.34,0-.61-.28-.6-.61.03-4,.06-7.91.09-11.71,0-.33.27-.6.61-.6h0c.34,0,.6.28.6.61-.03,3.8-.06,7.71-.09,11.71,0,.33-.27.6-.61.6Z"/>
  <path class="cls-1" d="M58.87,259.91h0c-.34,0-.6-.28-.6-.61.04-4.04.09-7.95.14-11.71,0-.34.29-.63.62-.6.34,0,.6.28.6.62-.05,3.76-.1,7.67-.14,11.71,0,.33-.27.6-.61.6Z"/>
  <path class="cls-1" d="M59.11,241.36h0c-.34,0-.6-.28-.6-.62.07-4.11.14-8.02.22-11.71,0-.34.3-.57.62-.59.34,0,.6.28.59.62-.08,3.69-.15,7.6-.22,11.71,0,.33-.28.6-.61.6Z"/>
  <path class="cls-1" d="M59.49,222.81h-.02c-.34,0-.6-.29-.59-.62.11-4.34.23-8.28.36-11.72.01-.34.3-.58.63-.58.34.01.6.29.58.63-.13,3.43-.25,7.37-.36,11.7,0,.33-.28.59-.61.59Z"/>
  <path class="cls-1" d="M60.15,204.28h-.03c-.33-.02-.59-.3-.58-.64.26-5.28.56-9.23.89-11.73.04-.33.36-.57.68-.52.33.04.57.35.52.68-.32,2.47-.62,6.39-.88,11.63-.02.32-.28.58-.61.58Z"/>
  <path class="cls-1" d="M62.01,185.83s-.05,0-.08,0c-.33-.04-.57-.35-.53-.68.38-3.11.79-7.03,1.2-11.65.03-.33.32-.6.66-.55.33.03.58.32.55.66-.41,4.63-.81,8.57-1.2,11.69-.04.31-.3.53-.6.53Z"/>
  <path class="cls-1" d="M63.78,167.34s-.03,0-.05,0c-.33-.03-.58-.32-.56-.65.29-3.62.58-7.53.87-11.69.02-.33.31-.59.65-.56.33.02.59.31.56.65-.29,4.16-.58,8.07-.87,11.7-.02.32-.29.56-.6.56Z"/>
  <path class="cls-1" d="M65.11,148.82s-.03,0-.04,0c-.33-.02-.59-.31-.57-.65.25-3.74.49-7.65.74-11.7.02-.33.27-.61.64-.57.33.02.59.31.57.64-.25,4.05-.49,7.96-.74,11.7-.02.32-.29.57-.61.57Z"/>
  <path class="cls-1" d="M66.25,130.3s-.02,0-.04,0c-.34-.02-.59-.31-.57-.64.22-3.8.44-7.71.67-11.7.02-.34.3-.6.64-.57.34.02.59.3.57.64-.22,4-.44,7.9-.67,11.7-.02.32-.29.57-.61.57Z"/>
  <path class="cls-1" d="M67.29,111.77s-.02,0-.03,0c-.34-.02-.59-.3-.57-.64.21-3.84.41-7.74.62-11.7.02-.34.34-.56.64-.58.33.02.59.3.58.64-.2,3.96-.41,7.87-.62,11.71-.02.32-.28.57-.61.57Z"/>
  <path class="cls-1" d="M68.26,93.24h-.03c-.34-.02-.59-.3-.58-.64.2-3.86.39-7.77.58-11.71.02-.34.33-.59.64-.58.34.02.59.3.58.64-.19,3.94-.39,7.85-.58,11.71-.02.32-.28.58-.61.58Z"/>
  <path class="cls-1" d="M69.18,74.7h-.03c-.33-.02-.59-.3-.58-.64.19-3.88.37-7.78.56-11.7.02-.34.33-.57.64-.58.34.02.59.3.58.64-.19,3.91-.37,7.82-.56,11.7-.02.32-.28.58-.61.58Z"/>
  <path class="cls-1" d="M70.06,56.18h-.03c-.33-.02-.59-.3-.58-.64.18-3.9.36-7.81.54-11.71.02-.34.32-.57.63-.58.34.02.59.3.58.63-.18,3.9-.36,7.81-.54,11.71-.02.32-.28.58-.61.58Z"/>
  <path class="cls-1" d="M70.91,37.63h-.03c-.34-.02-.59-.3-.58-.63l.53-11.71c.02-.34.3-.59.63-.58.33.02.59.3.58.63l-.53,11.71c-.02.33-.28.58-.61.58Z"/>
  <path class="cls-1" d="M71.75,19.09h-.03c-.33-.02-.59-.3-.58-.63l.53-11.71c.02-.33.32-.57.63-.58.34.02.59.3.58.63l-.53,11.71c-.02.33-.28.58-.61.58Z"/>
  <path class="cls-1" d="M50.26,297h0c-.34,0-.61-.27-.61-.61,0-3.98.02-7.89.03-11.71,0-.33.27-.61.61-.61h0c.34,0,.61.27.61.61-.01,3.83-.02,7.73-.03,11.71,0,.34-.27.61-.61.61Z"/>
  <path class="cls-1" d="M50.34,273.57h0c-.34,0-.61-.27-.6-.61.02-4.01.04-7.92.06-11.71,0-.33.27-.6.61-.6h0c.34,0,.61.28.6.61-.02,3.79-.04,7.7-.06,11.71,0,.33-.27.6-.61.6Z"/>
  <path class="cls-1" d="M50.49,250.14h0c-.34,0-.61-.28-.6-.61.03-4.08.07-7.99.11-11.71,0-.33.27-.6.61-.6h0c.34,0,.6.28.6.61-.04,3.73-.08,7.64-.11,11.71,0,.33-.27.6-.61.6Z"/>
  <path class="cls-1" d="M50.74,226.71h0c-.34,0-.6-.28-.6-.62.06-4.23.13-8.15.2-11.72,0-.33.28-.59.61-.59h.01c.34,0,.6.28.59.62-.07,3.57-.14,7.48-.2,11.71,0,.33-.28.6-.61.6Z"/>
  <path class="cls-1" d="M51.26,203.29h-.02c-.34-.01-.6-.29-.59-.63.22-6.15.46-10,.74-11.77.05-.33.36-.56.7-.5.33.05.56.36.5.7-.27,1.69-.51,5.6-.72,11.62-.01.33-.28.59-.61.59Z"/>
  <path class="cls-1" d="M53.15,179.92s-.03,0-.04,0c-.34-.02-.59-.31-.56-.65.23-3.29.47-7.23.71-11.7.02-.34.33-.6.64-.57.34.02.59.3.57.64-.24,4.48-.48,8.42-.71,11.72-.02.32-.29.57-.61.57Z"/>
  <path class="cls-1" d="M54.43,156.5h-.03c-.34-.02-.59-.3-.58-.63.17-3.7.34-7.61.51-11.71.01-.33.28-.58.61-.58h.02c.34.01.6.3.58.63-.17,4.1-.34,8.02-.51,11.72-.02.33-.28.58-.61.58Z"/>
  <path class="cls-1" d="M55.41,133.07h-.02c-.34-.01-.6-.3-.58-.63.15-3.79.29-7.7.44-11.71.01-.33.28-.57.63-.59.34.01.6.29.59.63-.14,4.01-.29,7.92-.44,11.72-.01.33-.28.58-.61.58Z"/>
  <path class="cls-1" d="M56.26,109.64h-.02c-.34-.01-.6-.29-.59-.63.13-3.84.26-7.75.39-11.71.01-.34.27-.6.63-.59.34.01.6.29.59.63-.13,3.96-.26,7.88-.39,11.72-.01.33-.28.59-.61.59Z"/>
  <path class="cls-1" d="M57.03,86.21h-.02c-.34-.01-.6-.29-.59-.63.12-3.87.25-7.78.37-11.72.01-.33.28-.59.61-.59h.02c.34.01.6.29.59.63-.12,3.93-.24,7.84-.37,11.72-.01.33-.28.59-.61.59Z"/>
  <path class="cls-1" d="M57.76,62.78h-.02c-.34-.01-.6-.29-.59-.63.12-3.9.24-7.8.35-11.71,0-.33.28-.59.61-.59h.02c.34,0,.6.29.59.63-.12,3.91-.23,7.82-.35,11.71,0,.33-.28.59-.61.59Z"/>
  <path class="cls-1" d="M58.46,39.34h-.02c-.33,0-.6-.29-.59-.63l.34-11.72c0-.34.26-.62.62-.59.34,0,.6.29.59.62l-.34,11.72c0,.33-.28.59-.61.59Z"/>
  <path class="cls-1" d="M59.13,15.9h-.02c-.34,0-.6-.29-.59-.62l.33-11.69c0-.34.26-.62.62-.59.34,0,.6.29.59.62l-.33,11.69c0,.33-.28.59-.61.59Z"/>
  <path class="cls-1" d="M41.91,297h0c-.34,0-.61-.27-.61-.61v-11.71c.01-.34.29-.61.62-.61h0c.34,0,.61.27.61.61v11.71c-.01.33-.29.61-.62.61Z"/>
  <path class="cls-1" d="M41.93,279.43h0c-.34,0-.61-.27-.61-.61l.02-11.71c0-.34.27-.61.61-.61h0c.34,0,.61.27.61.61l-.02,11.71c0,.34-.27.61-.61.61Z"/>
  <path class="cls-1" d="M41.98,261.86h0c-.34,0-.61-.27-.61-.61l.04-11.71c0-.33.27-.61.61-.61h0c.34,0,.61.27.61.61l-.04,11.71c0,.33-.27.61-.61.61Z"/>
  <path class="cls-1" d="M42.04,244.28h0c-.34,0-.61-.27-.6-.61.02-4.1.04-8.01.06-11.72,0-.33.27-.6.61-.6h0c.34,0,.61.28.6.61-.02,3.7-.04,7.61-.06,11.71,0,.33-.27.6-.61.6Z"/>
  <path class="cls-1" d="M42.14,226.71h0c-.34,0-.61-.28-.6-.61.03-4.24.06-8.16.1-11.72,0-.33.27-.6.61-.6h0c.34,0,.61.28.6.61-.04,3.56-.07,7.47-.1,11.71,0,.33-.27.6-.61.6Z"/>
  <path class="cls-1" d="M42.3,209.14h0c-.34,0-.6-.28-.6-.61.06-4.92.13-8.87.21-11.73,0-.33.28-.59.61-.59h.02c.34,0,.6.29.59.62-.08,2.85-.15,6.79-.21,11.71,0,.33-.28.6-.61.6Z"/>
  <path class="cls-1" d="M42.81,191.57s-.07,0-.1,0c-.33-.05-.56-.37-.5-.7.2-1.23.42-5.15.65-11.65.01-.34.3-.56.63-.59.34.01.6.29.59.63-.23,6.65-.45,10.51-.66,11.8-.05.3-.31.51-.6.51Z"/>
  <path class="cls-1" d="M43.65,173.97h-.02c-.34,0-.6-.29-.59-.63.1-3.49.21-7.41.31-11.72,0-.34.25-.62.62-.59.34,0,.6.29.59.62-.1,4.31-.21,8.24-.31,11.73,0,.33-.28.59-.61.59Z"/>
  <path class="cls-1" d="M44.1,156.39h-.01c-.34,0-.6-.28-.59-.62.08-3.69.17-7.61.25-11.72,0-.33.28-.59.61-.59h.01c.34,0,.6.28.59.62-.08,4.11-.17,8.03-.25,11.72,0,.33-.28.59-.61.59Z"/>
  <path class="cls-1" d="M44.46,138.8h-.01c-.34,0-.6-.28-.6-.62.07-3.78.14-7.69.22-11.72,0-.34.26-.58.62-.6.34,0,.6.28.6.62-.07,4.03-.15,7.95-.22,11.72,0,.33-.28.6-.61.6Z"/>
  <path class="cls-1" d="M44.78,121.22h-.01c-.34,0-.6-.28-.6-.62.07-3.82.13-7.73.2-11.72,0-.33.28-.6.61-.6h.01c.33,0,.6.28.6.62-.07,3.99-.13,7.9-.2,11.72,0,.33-.28.6-.61.6Z"/>
  <path class="cls-1" d="M45.08,103.64h0c-.34,0-.6-.28-.6-.62l.19-11.72c0-.34.32-.58.62-.6.34,0,.6.28.6.62l-.19,11.72c0,.33-.28.6-.61.6Z"/>
  <path class="cls-1" d="M45.36,86.06h0c-.34,0-.6-.28-.6-.62l.18-11.72c0-.33.28-.6.61-.6h0c.34,0,.6.28.6.62l-.18,11.72c0,.33-.28.6-.61.6Z"/>
  <path class="cls-1" d="M45.62,68.48h0c-.34,0-.6-.28-.6-.62l.17-11.71c0-.33.28-.6.61-.6h0c.34,0,.6.28.6.62l-.17,11.71c0,.33-.28.6-.61.6Z"/>
  <path class="cls-1" d="M45.87,50.9h0c-.34,0-.6-.28-.6-.62l.17-11.73c0-.34.32-.58.62-.6.34,0,.6.28.6.62l-.17,11.73c0,.33-.28.6-.61.6Z"/>
  <path class="cls-1" d="M46.12,33.31h0c-.34,0-.6-.28-.6-.62l.16-11.72c0-.34.3-.61.62-.6.34,0,.6.28.6.62l-.16,11.72c0,.33-.28.6-.61.6Z"/>
  <path class="cls-1" d="M46.37,15.73h0c-.34,0-.6-.28-.6-.62l.16-11.51c0-.34.28-.64.62-.6.34,0,.6.28.6.62l-.16,11.51c0,.33-.28.6-.61.6Z"/>
  <path class="cls-1" d="M33.59,297c-.34,0-.61-.27-.61-.61v-11.71c0-.34.27-.61.61-.61s.61.27.61.61v11.71c0,.34-.27.61-.61.61Z"/>
  <path class="cls-1" d="M33.59,278.46c-.34,0-.61-.27-.61-.61v-11.71c0-.34.27-.61.61-.61s.61.27.61.61v11.71c0,.34-.27.61-.61.61Z"/>
  <path class="cls-1" d="M33.59,259.91c-.34,0-.61-.27-.61-.61v-11.71c0-.34.27-.61.61-.61s.61.27.61.61v11.71c0,.34-.27.61-.61.61Z"/>
  <path class="cls-1" d="M33.59,241.37c-.34,0-.61-.27-.61-.61v-11.71c0-.34.27-.61.61-.61s.61.27.61.61v11.71c0,.34-.27.61-.61.61Z"/>
  <path class="cls-1" d="M33.59,222.83c-.34,0-.61-.27-.61-.61v-11.71c0-.34.27-.61.61-.61s.61.27.61.61v11.71c0,.34-.27.61-.61.61Z"/>
  <path class="cls-1" d="M33.59,204.28c-.34,0-.61-.27-.61-.61v-11.71c0-.34.27-.61.61-.61s.61.27.61.61v11.71c0,.34-.27.61-.61.61Z"/>
  <path class="cls-1" d="M33.59,185.74c-.34,0-.61-.27-.61-.61v-11.71c0-.34.27-.61.61-.61s.61.27.61.61v11.71c0,.34-.27.61-.61.61Z"/>
  <path class="cls-1" d="M33.59,167.2c-.34,0-.61-.27-.61-.61v-11.71c0-.34.27-.61.61-.61s.61.27.61.61v11.71c0,.34-.27.61-.61.61Z"/>
  <path class="cls-1" d="M33.59,148.66c-.34,0-.61-.27-.61-.61v-11.71c0-.34.27-.61.61-.61s.61.27.61.61v11.71c0,.34-.27.61-.61.61Z"/>
  <path class="cls-1" d="M33.59,130.11c-.34,0-.61-.27-.61-.61v-11.71c0-.34.27-.61.61-.61s.61.27.61.61v11.71c0,.34-.27.61-.61.61Z"/>
  <path class="cls-1" d="M33.59,111.57c-.34,0-.61-.27-.61-.61v-11.71c0-.34.27-.61.61-.61s.61.27.61.61v11.71c0,.34-.27.61-.61.61Z"/>
  <path class="cls-1" d="M33.59,93.03c-.34,0-.61-.27-.61-.61v-11.71c0-.34.27-.61.61-.61s.61.27.61.61v11.71c0,.34-.27.61-.61.61Z"/>
  <path class="cls-1" d="M33.59,74.49c-.34,0-.61-.27-.61-.61v-11.71c0-.34.27-.61.61-.61s.61.27.61.61v11.71c0,.34-.27.61-.61.61Z"/>
  <path class="cls-1" d="M33.59,55.94c-.34,0-.61-.27-.61-.61v-11.71c0-.34.27-.61.61-.61s.61.27.61.61v11.71c0,.34-.27.61-.61.61Z"/>
  <path class="cls-1" d="M33.59,37.4c-.34,0-.61-.27-.61-.61v-11.71c0-.34.27-.61.61-.61s.61.27.61.61v11.71c0,.34-.27.61-.61.61Z"/>
  <path class="cls-1" d="M33.59,18.86c-.34,0-.61-.27-.61-.61V6.54c0-.34.27-.61.61-.61s.61.27.61.61v11.71c0,.34-.27.61-.61.61Z"/>
  <path class="cls-1" d="M21.47,297h0c-.34,0-.6-.28-.6-.62.07-4.91.13-8.16.17-9.15.02-.38.03-1.15.05-2.28,0-.33.27-.6.61-.6h0c.34,0,.6.28.6.61-.01,1.16-.03,1.94-.05,2.32-.04.97-.1,4.21-.17,9.12,0,.33-.28.6-.61.6Z"/>
  <path class="cls-1" d="M21.72,279.71h0c-.34,0-.61-.27-.6-.61.02-3.14.03-7.08.04-11.71,0-.34.27-.61.61-.61h0c.34,0,.61.27.61.61-.01,4.63-.02,8.58-.04,11.72,0,.33-.27.6-.61.6Z"/>
  <path class="cls-1" d="M21.77,262.13h0c-.34,0-.61-.27-.61-.61v-11.71c.01-.33.29-.61.62-.61h0c.34,0,.61.27.61.61v11.71c-.01.34-.29.61-.62.61Z"/>
  <path class="cls-1" d="M21.79,244.56h0c-.34,0-.61-.27-.61-.61v-11.71c0-.34.27-.61.61-.61s.61.27.61.61v11.71c0,.34-.27.61-.61.61Z"/>
  <path class="cls-1" d="M21.79,226.99c-.34,0-.61-.27-.61-.61v-11.73c0-.34.27-.61.61-.61s.61.27.61.61v11.73c0,.34-.27.61-.61.61Z"/>
  <path class="cls-1" d="M21.79,209.4c-.34,0-.61-.27-.61-.61v-11.73c0-.34.26-.61.6-.61.34,0,.61.27.61.61v11.73c0,.34-.26.61-.6.61Z"/>
  <path class="cls-1" d="M21.78,191.82c-.34,0-.61-.27-.61-.61v-11.72c-.01-.34.26-.61.6-.61h0c.34,0,.61.27.61.61v11.73c.01.34-.26.61-.6.61h0Z"/>
  <path class="cls-1" d="M21.76,161.3h0c.33,0,.61.27.61.61v11.73c0,.34-.27.61-.61.61h0c-.33,0-.61-.27-.61-.61v-11.73c0-.34.27-.61.61-.61Z"/>
  <path class="cls-1" d="M21.75,156.65c-.34,0-.61-.27-.61-.61v-11.69s1.2-.04,1.2-.04h-.61s.61.04.61.04v11.69c.01.34-.26.61-.59.61h0Z"/>
  <path class="cls-1" d="M21.73,139.04c-.34,0-.61-.27-.61-.61l-.02-11.72c0-.34.27-.61.61-.61h0c.34,0,.61.27.61.61l.02,11.72c0,.34-.27.61-.61.61h0Z"/>
  <path class="cls-1" d="M21.7,121.48c-.34,0-.61-.27-.61-.61l-.02-11.72c0-.34.27-.61.61-.61h0c.34,0,.61.27.61.61l.02,11.72c0,.34-.27.61-.61.61h0Z"/>
  <path class="cls-1" d="M21.68,103.9c-.34,0-.61-.27-.61-.61l-.02-11.72c0-.34.27-.61.61-.61h0c.34,0,.61.27.61.61l.02,11.72c0,.34-.27.61-.61.61h0Z"/>
  <path class="cls-1" d="M21.65,86.32c-.34,0-.61-.27-.61-.61l-.02-11.73c0-.34.27-.61.61-.61h0c.34,0,.61.27.61.61l.02,11.73c0,.34-.27.61-.61.61h0Z"/>
  <path class="cls-1" d="M21.62,68.73c-.34,0-.61-.27-.61-.61l-.02-11.73c0-.34.27-.61.61-.61h0c.34,0,.61.27.61.61l.02,11.73c0,.34-.27.61-.61.61h0Z"/>
  <path class="cls-1" d="M21.59,51.14c-.33,0-.61-.27-.61-.61l-.02-11.73c0-.34.27-.61.61-.61h0c.34,0,.61.27.61.61l.02,11.73c0,.34-.27.61-.61.61h0Z"/>
  <path class="cls-1" d="M21.56,33.55c-.34,0-.61-.27-.61-.61l-.02-11.73c0-.34.27-.61.61-.61h0c.33,0,.61.27.61.61l.02,11.73c0,.34-.27.61-.61.61h0Z"/>
  <path class="cls-1" d="M21.53,15.96c-.33,0-.61-.27-.61-.61l-.02-11.74c0-.34.27-.61.61-.61h0c.33,0,.61.27.61.61l.02,11.74c0,.34-.27.61-.61.61h0Z"/>
  <path class="cls-1" d="M9.39,297h-.02c-.34,0-.6-.29-.59-.62.13-4.64.22-7.53.29-9.11.02-.57.05-1.35.07-2.33,0-.34.3-.59.62-.59.34,0,.6.28.59.62-.02.99-.05,1.78-.07,2.36-.07,1.57-.17,4.45-.29,9.08,0,.33-.28.59-.61.59Z"/>
  <path class="cls-1" d="M9.9,273.84h0c-.34,0-.61-.28-.6-.61.02-3.42.04-7.34.06-11.71,0-.34.27-.61.61-.61h0c.34,0,.61.27.61.61-.02,4.37-.04,8.3-.06,11.72,0,.33-.27.6-.61.6Z"/>
  <path class="cls-1" d="M9.99,250.42h0c-.34,0-.61-.27-.61-.61,0-3.71.01-7.62.02-11.71,0-.34.27-.61.61-.61h0c.34,0,.61.27.61.61,0,4.09,0,8.01-.02,11.71,0,.34-.27.61-.61.61Z"/>
  <path class="cls-1" d="M10.01,226.99c-.34,0-.61-.27-.61-.61v-11.72c0-.34.27-.61.6-.61.34,0,.61.27.61.61v11.72c0,.34-.27.61-.6.61Z"/>
  <path class="cls-1" d="M9.99,203.55c-.34,0-.61-.27-.61-.61v-11.72c-.02-.34.26-.61.59-.61h0c.34,0,.61.27.61.61v11.72c.02.34-.26.61-.59.61h0Z"/>
  <path class="cls-1" d="M9.96,180.1c-.34,0-.61-.27-.61-.61l-.02-11.72c0-.34.27-.61.61-.61h0c.33,0,.61.27.61.61l.02,11.72c0,.34-.27.61-.61.61h0Z"/>
  <path class="cls-1" d="M9.92,156.65c-.33,0-.61-.27-.61-.61l-.03-11.73c0-.34.27-.61.61-.61h0c.33,0,.61.27.61.61l.03,11.73c0,.34-.27.61-.61.61h0Z"/>
  <path class="cls-1" d="M9.86,133.19c-.33,0-.61-.27-.61-.61l-.03-11.71c0-.34.24-.58.61-.61.33,0,.61.27.61.61l.03,11.71c0,.34-.27.61-.61.61h0Z"/>
  <path class="cls-1" d="M9.8,109.76c-.33,0-.61-.27-.61-.61l-.04-11.72c0-.34.27-.61.61-.61h0c.33,0,.61.27.61.61l.04,11.72c0,.34-.27.61-.61.61h0Z"/>
  <path class="cls-1" d="M9.72,86.31c-.33,0-.61-.27-.61-.61l-.04-11.72c0-.34.27-.61.61-.61h0c.33,0,.61.27.61.61l.04,11.72c0,.34-.27.61-.61.61h0Z"/>
  <path class="cls-1" d="M9.65,62.86c-.33,0-.61-.27-.61-.61l-.04-11.73c0-.34.27-.61.61-.61h0c.33,0,.61.27.61.61l.04,11.73c0,.34-.27.61-.61.61h0Z"/>
  <path class="cls-1" d="M9.56,39.41c-.33,0-.61-.27-.61-.61l-.04-11.73c0-.34.27-.61.61-.61h0c.33,0,.61.27.61.61l.04,11.73c0,.34-.27.61-.61.61h0Z"/>
  <path class="cls-1" d="M9.47,15.96c-.33,0-.61-.27-.61-.61l-.05-11.73c0-.34.27-.61.6-.61h0c.33,0,.61.27.61.6l.05,11.74c0,.34-.27.61-.61.61h0Z"/>
</svg>