<?xml version="1.0" encoding="UTF-8"?>
<!DOCTYPE svg  PUBLIC '-//W3C//DTD SVG 1.1//EN'  'http://www.w3.org/Graphics/SVG/1.1/DTD/svg11.dtd'>
<svg version="1.1" viewBox="0 0 349 25" xml:space="preserve" xmlns="http://www.w3.org/2000/svg">
<g fill="#fff">
    <path d="m8.146 17.938c0 0.917 0.083 1.599 0.248 2.041 0.163 0.44 0.435 0.837 0.816 1.188h-4.92c0.388-0.35 0.664-0.747 0.823-1.188 0.16-0.442 0.24-1.124 0.24-2.041v-13.001h-1.451c-0.994 0-1.802 0.078-2.42 0.234s-1.114 0.41-1.482 0.757l0.887-2.989h12.808l-0.838 2.937c-0.265-0.32-0.617-0.559-1.05-0.711-0.436-0.153-0.983-0.228-1.644-0.228h-2.017v13.001z"/>
    <path d="m17.798 18.368c0 0.802 0.07 1.397 0.208 1.785 0.141 0.387 0.378 0.732 0.716 1.038h-4.303c0.329-0.305 0.565-0.65 0.708-1.038 0.141-0.387 0.213-0.983 0.213-1.785v-10.32c0-0.804-0.072-1.397-0.213-1.78-0.143-0.383-0.379-0.725-0.708-1.023h4.303c-0.337 0.298-0.575 0.64-0.716 1.023-0.137 0.382-0.208 0.976-0.208 1.78v3.571h8.447v-3.571c0-0.804-0.069-1.397-0.209-1.78-0.138-0.383-0.377-0.725-0.713-1.023h4.303c-0.329 0.298-0.566 0.64-0.707 1.023-0.143 0.382-0.215 0.976-0.215 1.78v10.32c0 0.802 0.07 1.397 0.208 1.785 0.14 0.387 0.377 0.732 0.714 1.038h-4.303c0.336-0.305 0.576-0.65 0.713-1.038 0.14-0.387 0.209-0.983 0.209-1.785v-4.912h-8.447v4.912z"/>
    <path d="m31.714 21.19c0.331-0.305 0.566-0.652 0.708-1.039 0.142-0.386 0.215-0.983 0.215-1.786v-10.306c0-0.805-0.073-1.402-0.215-1.787-0.142-0.384-0.377-0.726-0.708-1.026h8.591v2.518c-0.383-0.311-0.806-0.535-1.265-0.674-0.458-0.137-0.989-0.208-1.588-0.208-0.309 0-0.656 0.023-1.04 0.075-0.385 0.05-0.817 0.126-1.298 0.226v4.492h3.852v2.316c-0.181-0.215-0.426-0.368-0.735-0.456-0.311-0.088-0.877-0.134-1.7-0.134h-1.417v5.716c0.594 0.09 1.134 0.159 1.615 0.204 0.482 0.046 0.899 0.071 1.252 0.071 0.8 0 1.552-0.109 2.259-0.326 0.708-0.217 1.404-0.549 2.089-0.997l-1.097 3.121h-9.518z"/>
    <path d="m62.686 21.226v-1.371c-0.873 0.635-1.752 1.107-2.635 1.42-0.891 0.31-1.791 0.467-2.698 0.467-1.039 0-1.967-0.174-2.781-0.521-0.815-0.348-1.518-0.868-2.108-1.566-0.464-0.547-0.796-1.185-0.998-1.913-0.201-0.726-0.303-1.705-0.303-2.932v-8.534c0-0.914-0.08-1.589-0.236-2.024-0.161-0.436-0.425-0.824-0.802-1.164h4.877c-0.375 0.34-0.643 0.728-0.801 1.164-0.156 0.435-0.236 1.11-0.236 2.024v7.971c0 1.246 0.06 2.17 0.179 2.771 0.12 0.599 0.322 1.08 0.606 1.438 0.341 0.425 0.797 0.747 1.368 0.961 0.567 0.212 1.245 0.319 2.037 0.319 0.646 0 1.27-0.098 1.833-0.294 0.566-0.196 1.063-0.481 1.491-0.855 0.376-0.314 0.645-0.723 0.811-1.221 0.162-0.502 0.243-1.184 0.243-2.046v-9.044c0-0.949-0.077-1.634-0.232-2.057-0.157-0.422-0.426-0.798-0.804-1.13h4.913c-0.38 0.332-0.649 0.728-0.814 1.19-0.165 0.461-0.246 1.128-0.246 1.997v11.749c0 0.911 0.081 1.586 0.243 2.025 0.166 0.44 0.434 0.829 0.814 1.176h-3.721z"/>
    <path d="m83.806 5.246c-0.338 0.298-0.575 0.64-0.715 1.022-0.139 0.381-0.208 0.976-0.208 1.779v13.512c-0.549-0.017-1.069-0.197-1.562-0.539-0.493-0.345-1.109-1.002-1.852-1.965l-8.106-10.377v9.687c0 0.837 0.066 1.44 0.203 1.814 0.135 0.377 0.369 0.713 0.702 1.011h-3.564c0.331-0.305 0.567-0.65 0.708-1.039 0.143-0.386 0.215-0.981 0.215-1.786v-10.318c0-0.803-0.072-1.398-0.215-1.779-0.142-0.382-0.377-0.725-0.708-1.022h3.188l9.292 11.973v-9.172c0-0.803-0.07-1.398-0.213-1.779-0.144-0.382-0.377-0.725-0.708-1.022h3.543z"/>
    <path d="m89.759 18.365c0 0.805 0.068 1.4 0.208 1.786 0.139 0.389 0.375 0.734 0.714 1.039h-4.306c0.338-0.305 0.576-0.65 0.714-1.039 0.138-0.386 0.208-0.981 0.208-1.786v-10.318c0-0.803-0.071-1.398-0.208-1.779-0.139-0.382-0.376-0.725-0.714-1.022h4.306c-0.339 0.298-0.575 0.64-0.714 1.022-0.14 0.381-0.208 0.976-0.208 1.779v10.318z"/>
    <path d="m99.798 21.595c-0.67-0.176-1.244-0.56-1.718-1.153-0.474-0.595-0.91-1.48-1.312-2.66l-3.18-9.287c-0.257-0.767-0.499-1.39-0.729-1.871-0.229-0.483-0.488-0.943-0.773-1.379l3.246 0.01c0.016 0.262 0.041 0.503 0.08 0.725 0.037 0.221 0.085 0.432 0.146 0.631l3.823 11.411 3.617-9.505c0.104-0.291 0.189-0.583 0.254-0.879 0.064-0.293 0.098-0.562 0.098-0.809 0-0.213-0.063-0.441-0.183-0.682-0.121-0.243-0.322-0.542-0.607-0.902h3.597l-6.359 16.35z"/>
    <path d="m107.26 21.19c0.33-0.305 0.566-0.652 0.709-1.039 0.143-0.386 0.213-0.983 0.213-1.786v-10.306c0-0.805-0.07-1.402-0.213-1.787-0.143-0.384-0.379-0.726-0.709-1.026h8.578v2.518c-0.382-0.311-0.8-0.535-1.257-0.674-0.456-0.137-0.982-0.208-1.586-0.208-0.308 0-0.654 0.023-1.037 0.075-0.384 0.05-0.816 0.126-1.298 0.226v4.492h3.848v2.316c-0.18-0.215-0.424-0.368-0.732-0.456s-0.876-0.134-1.699-0.134h-1.417v5.716c0.595 0.09 1.133 0.159 1.614 0.204 0.484 0.046 0.899 0.071 1.254 0.071 0.793 0 1.542-0.109 2.244-0.326 0.704-0.217 1.398-0.549 2.085-0.997l-1.099 3.121h-9.498z"/>
    <path d="m122.33 18.368c0 0.802 0.07 1.397 0.209 1.785 0.137 0.387 0.375 0.732 0.714 1.038h-4.306c0.33-0.305 0.565-0.65 0.709-1.038s0.214-0.983 0.214-1.785v-10.315c0-0.805-0.07-1.399-0.214-1.784-0.144-0.382-0.379-0.725-0.709-1.023h5.435c1.549 0 2.8 0.376 3.752 1.125 0.953 0.751 1.43 1.727 1.43 2.929 0 0.872-0.287 1.643-0.858 2.308-0.573 0.667-1.463 1.251-2.667 1.757l4.078 5.52c0.241 0.329 0.531 0.676 0.869 1.044 0.339 0.368 0.727 0.749 1.167 1.146l-1.224 0.115h-0.192c-0.571 0-1.128-0.153-1.671-0.459-0.542-0.305-1.001-0.728-1.379-1.262l-4.671-6.545c1.392-0.315 2.407-0.746 3.052-1.292 0.642-0.548 0.964-1.253 0.964-2.12 0-0.805-0.275-1.459-0.829-1.965-0.55-0.506-1.274-0.758-2.171-0.758-0.203 0-0.447 0.018-0.733 0.051-0.283 0.035-0.608 0.087-0.969 0.155v11.373z"/>
    <path d="m132.91 20.832l-0.751-2.894c0.917 0.619 1.807 1.083 2.669 1.383 0.858 0.304 1.711 0.455 2.553 0.455 1.075 0 1.939-0.236 2.597-0.705 0.652-0.472 0.981-1.083 0.981-1.832 0-0.215-0.034-0.429-0.102-0.645-0.068-0.213-0.162-0.416-0.293-0.608-0.285-0.437-1.246-1.061-2.878-1.874-0.413-0.197-0.733-0.354-0.959-0.469-1.527-0.782-2.58-1.501-3.151-2.16-0.572-0.657-0.857-1.439-0.857-2.343 0-1.295 0.524-2.322 1.569-3.083 1.042-0.763 2.466-1.143 4.277-1.143 0.519 0 1.091 0.034 1.717 0.104 0.625 0.068 1.303 0.175 2.036 0.321v2.68c-0.648-0.5-1.301-0.873-1.954-1.12-0.657-0.245-1.34-0.368-2.046-0.368-0.897 0-1.619 0.195-2.163 0.586-0.547 0.39-0.82 0.9-0.82 1.528 0 0.559 0.215 1.055 0.643 1.482 0.426 0.43 1.391 1.004 2.886 1.725 0.083 0.038 0.211 0.1 0.385 0.184 1.264 0.587 2.209 1.132 2.835 1.628 0.467 0.369 0.83 0.817 1.089 1.345 0.262 0.526 0.389 1.089 0.389 1.688 0 1.369-0.615 2.53-1.851 3.483-1.235 0.953-2.776 1.43-4.63 1.43-0.598 0-1.235-0.065-1.922-0.196-0.687-0.125-1.437-0.32-2.249-0.582z"/>
    <path d="m149.08 18.365c0 0.805 0.069 1.4 0.209 1.786 0.14 0.389 0.375 0.734 0.714 1.039h-4.304c0.337-0.305 0.577-0.65 0.716-1.039 0.137-0.386 0.208-0.981 0.208-1.786v-10.318c0-0.803-0.07-1.398-0.208-1.779-0.14-0.382-0.379-0.725-0.716-1.022h4.304c-0.338 0.298-0.574 0.64-0.714 1.022-0.14 0.381-0.209 0.976-0.209 1.779v10.318z"/>
    <path d="m222.77 0l1.445 3.53 5.498 13.777c0.609 1.532 1.086 3.032 2.592 3.807v0.082h-5.423v-0.082c1.3-0.588 1.083-0.881 0.376-2.756l-1.432-3.785h-6.7l-1.376 3.785c-0.555 1.501-0.739 2.274 0.528 2.756v0.082h-4.866v-0.082c1.532-0.775 1.985-2.275 2.566-3.807l6.791-17.199v-0.108zm-0.311 5.815l-2.646 6.773h5.244l-2.598-6.773z"/>
    <path d="m189.24 21.582c-1.197 0-2.325-0.193-3.386-0.581-1.057-0.389-1.965-0.943-2.729-1.67-0.799-0.763-1.418-1.666-1.848-2.704-0.436-1.037-0.65-2.126-0.65-3.267 0-0.896 0.139-1.765 0.412-2.607 0.276-0.841 0.678-1.626 1.203-2.355 0.821-1.125 1.837-1.989 3.046-2.594 1.21-0.605 2.527-0.908 3.951-0.908 1.221 0 2.362 0.194 3.421 0.581 1.061 0.386 1.967 0.942 2.729 1.671 0.815 0.765 1.434 1.669 1.867 2.714 0.429 1.046 0.644 2.173 0.644 3.381 0 1.112-0.242 2.198-0.724 3.263s-1.162 2.007-2.035 2.824c-0.781 0.742-1.676 1.299-2.68 1.681-1.002 0.379-2.074 0.571-3.221 0.571zm0.089-14.995c-1.748 0-3.189 0.608-4.324 1.823-1.133 1.218-1.701 2.772-1.701 4.662 0 1.953 0.562 3.572 1.685 4.86 1.124 1.292 2.524 1.935 4.205 1.935 1.742 0 3.178-0.609 4.313-1.83 1.13-1.22 1.697-2.78 1.697-4.677 0-1.953-0.559-3.568-1.682-4.85-1.123-1.283-2.52-1.923-4.193-1.923z"/>
    <path d="m202.59 18.383c0 0.806 0.067 1.399 0.206 1.784 0.141 0.382 0.38 0.728 0.72 1.03h-4.307c0.332-0.302 0.568-0.648 0.709-1.03 0.142-0.385 0.215-0.978 0.215-1.784v-10.307c0-0.805-0.073-1.402-0.215-1.787-0.141-0.383-0.377-0.726-0.709-1.025h8.605v2.516c-0.388-0.311-0.806-0.533-1.266-0.674-0.458-0.138-0.99-0.208-1.594-0.208-0.316 0-0.661 0.025-1.047 0.075-0.383 0.051-0.815 0.127-1.298 0.228v4.491h3.866v2.316c-0.184-0.215-0.43-0.368-0.74-0.455-0.31-0.089-0.881-0.133-1.71-0.133h-1.437v4.963z"/>
    <path d="m236.04 18.387c0 0.802 0.068 1.396 0.209 1.779 0.139 0.382 0.379 0.728 0.715 1.03h-4.307c0.331-0.302 0.566-0.648 0.708-1.03 0.146-0.383 0.215-0.978 0.215-1.779v-10.317c0-0.805-0.069-1.4-0.215-1.783-0.142-0.384-0.377-0.727-0.708-1.023h5.436c1.551 0 2.802 0.374 3.755 1.125 0.951 0.749 1.428 1.726 1.428 2.929 0 0.872-0.286 1.642-0.858 2.308s-1.463 1.252-2.668 1.756l4.079 5.521c0.241 0.33 0.529 0.678 0.871 1.042 0.339 0.366 0.722 0.744 1.163 1.141l-1.219 0.111h-0.191c-0.574 0-1.131-0.149-1.672-0.454-0.545-0.305-1.006-0.722-1.379-1.255l-4.677-6.546c1.394-0.314 2.407-0.745 3.055-1.292 0.642-0.549 0.964-1.254 0.964-2.119 0-0.806-0.275-1.46-0.831-1.966-0.548-0.505-1.271-0.758-2.171-0.758-0.203 0-0.447 0.018-0.73 0.052-0.288 0.034-0.609 0.086-0.971 0.156v11.372z"/>
    <path d="m250.58 18.384c0 0.805 0.068 1.399 0.203 1.782 0.141 0.382 0.381 0.728 0.719 1.03h-4.303c0.332-0.302 0.572-0.648 0.711-1.03 0.14-0.383 0.21-0.978 0.21-1.782v-10.32c0-0.804-0.07-1.397-0.21-1.78-0.139-0.382-0.379-0.724-0.711-1.021h4.303c-0.338 0.297-0.578 0.639-0.719 1.021-0.135 0.383-0.203 0.976-0.203 1.78v10.32z"/>
    <path d="m266.51 18.215l-1.141 2.981h-12.246l8.355-13.882c-0.623-0.16-1.211-0.279-1.767-0.356-0.554-0.076-1.069-0.115-1.542-0.115-0.694 0-1.363 0.086-2.01 0.26-0.639 0.173-1.298 0.448-1.968 0.824l1.082-2.663h10.185l-8.355 13.877c0.929 0.11 1.709 0.188 2.344 0.233 0.63 0.048 1.18 0.07 1.639 0.07 1.082 0 2.076-0.102 2.972-0.308 0.898-0.203 1.712-0.511 2.452-0.921z"/>
    <path d="m275.56 21.582c-1.202 0-2.329-0.193-3.388-0.581-1.062-0.389-1.97-0.943-2.728-1.67-0.801-0.763-1.418-1.666-1.852-2.704-0.434-1.037-0.648-2.126-0.648-3.267 0-0.896 0.135-1.765 0.414-2.607 0.271-0.841 0.676-1.626 1.2-2.355 0.821-1.125 1.839-1.989 3.048-2.594 1.207-0.605 2.529-0.908 3.953-0.908 1.22 0 2.357 0.194 3.418 0.581 1.059 0.386 1.966 0.942 2.73 1.671 0.812 0.765 1.433 1.669 1.865 2.714 0.427 1.046 0.642 2.173 0.642 3.381 0 1.112-0.241 2.198-0.724 3.263s-1.159 2.007-2.033 2.824c-0.783 0.742-1.676 1.299-2.681 1.681-0.999 0.379-2.073 0.571-3.216 0.571zm0.086-14.995c-1.754 0-3.191 0.608-4.326 1.823-1.133 1.218-1.701 2.772-1.701 4.662 0 1.953 0.562 3.572 1.688 4.86 1.122 1.292 2.521 1.935 4.202 1.935 1.739 0 3.178-0.609 4.313-1.83 1.133-1.22 1.701-2.78 1.701-4.677 0-1.953-0.562-3.568-1.684-4.85-1.123-1.283-2.523-1.923-4.193-1.923z"/>
    <path d="m300.59 5.264c-0.341 0.297-0.579 0.639-0.715 1.021-0.141 0.383-0.209 0.976-0.209 1.78v13.5c-0.55-0.017-1.07-0.193-1.562-0.536s-1.108-0.994-1.852-1.955l-8.108-10.377v9.688c0 0.833 0.069 1.44 0.204 1.811 0.135 0.372 0.367 0.708 0.7 1.001h-3.561c0.329-0.302 0.563-0.648 0.708-1.03 0.142-0.383 0.217-0.978 0.217-1.782v-10.321c0-0.804-0.075-1.397-0.217-1.78-0.145-0.382-0.379-0.724-0.708-1.021h3.187l9.292 11.972v-9.171c0-0.804-0.074-1.397-0.216-1.78-0.141-0.382-0.379-0.724-0.707-1.021h3.547z"/>
    <path d="m304.26 19.051c-0.068 0.16-0.121 0.327-0.154 0.499-0.033 0.17-0.048 0.348-0.048 0.53 0 0.153 0.054 0.319 0.162 0.5 0.109 0.184 0.283 0.389 0.523 0.616h-3.706c0.308-0.211 0.585-0.504 0.832-0.877 0.244-0.371 0.494-0.882 0.748-1.534l4.422-11.375c0.091-0.215 0.159-0.425 0.205-0.631 0.043-0.208 0.066-0.391 0.066-0.552 0-0.184-0.045-0.352-0.127-0.505-0.089-0.154-0.229-0.306-0.427-0.458h3.571l5.002 13.36c0.23 0.606 0.485 1.096 0.75 1.474 0.271 0.375 0.612 0.743 1.037 1.099h-4.502l0.055-0.055c0.414-0.44 0.621-0.765 0.621-0.97 0-0.243-0.088-0.601-0.271-1.074-0.022-0.078-0.044-0.135-0.056-0.173l-1.348-3.686h-5.855l-1.5 3.812zm2.127-5.413h4.631l-2.226-6.161-2.405 6.161z"/>
    <path d="m164.32 5.247l4.087 6.95 2.752-4.526c0.167-0.276 0.294-0.525 0.379-0.752 0.084-0.226 0.131-0.419 0.131-0.582 0-0.183-0.054-0.364-0.163-0.543-0.11-0.181-0.274-0.364-0.506-0.546h3.677l-5.399 8.776v4.354c0 0.805 0.072 1.4 0.212 1.788 0.148 0.389 0.385 0.733 0.715 1.038h-4.332c0.338-0.305 0.579-0.649 0.716-1.038 0.138-0.388 0.209-0.983 0.209-1.788l6e-3 -4.398-3.693-6.082c-0.372-0.545-0.647-0.629-1.004-0.756-0.382-0.133-1.023-0.147-1.607-0.147h-1.76v11.383c0 0.805 0.067 1.4 0.213 1.788 0.143 0.389 0.38 0.733 0.71 1.038h-4.308c0.333-0.305 0.575-0.649 0.715-1.038 0.136-0.388 0.207-0.983 0.207-1.788v-11.385h-1.262c-0.875 0-1.583 0.068-2.125 0.207-0.541 0.139-0.977 0.36-1.302 0.666l0.779-2.619h11.953z"/>
</g>
</svg>
