<?xml version="1.0" encoding="UTF-8"?>
<svg id="Layer_2" data-name="Layer 2" xmlns="http://www.w3.org/2000/svg" viewBox="0 0 3798.1 3798.1">
  <defs>
    <style>
      .cls-1-black {
        fill: none;
        stroke: #000;
        stroke-linecap: round;
        stroke-linejoin: round;
        stroke-width: 60px;
      }
    </style>
  </defs>
  <g>
    <g>
      <g>
        <g>
          <path class="cls-1-black" d="M1649.91,2810.73V1021.04c0-139.7,113.25-252.94,252.94-252.94h0c139.7,0,252.94,113.25,252.94,252.94v1609.18"/>
          <polyline class="cls-1-black" points="1649.91 3022.52 1649.91 3768.1 2155.8 3768.1 2155.8 2859.28"/>
          <path class="cls-1-black" d="M1642.3,2736.11h0c-221.58,0-401.2-179.62-401.2-401.2v-384.59c0-93.13-75.49-168.62-168.62-168.62h0c-93.13,0-168.62,75.49-168.62,168.62v469.66c0,407.83,330.61,738.44,738.44,738.44h0"/>
          <path class="cls-1-black" d="M2155.8,2981.94h0c407.83,0,738.44-330.61,738.44-738.44v-705.65c0-93.13-75.49-168.62-168.62-168.62h0c-93.13,0-168.62,75.49-168.62,168.62v620.58c0,221.58-179.62,401.2-401.2,401.2h0"/>
        </g>
        <g>
          <line class="cls-1-black" x1="1991.1" y1="3482.81" x2="1991.1" y2="3768.1"/>
          <line class="cls-1-black" x1="1991.1" y1="2297.51" x2="1991.1" y2="3326.92"/>
          <line class="cls-1-black" x1="1991.1" y1="1162.21" x2="1991.1" y2="2056.33"/>
          <line class="cls-1-black" x1="1814.61" y1="3197.52" x2="1814.61" y2="3768.1"/>
          <line class="cls-1-black" x1="1814.61" y1="1723.05" x2="1814.61" y2="3056.34"/>
          <line class="cls-1-black" x1="1814.61" y1="1032.49" x2="1814.61" y2="1556.34"/>
          <path class="cls-1-black" d="M1902.86,923.11c49.63,5.49,88.24,47.56,88.24,98.66h0"/>
          <path class="cls-1-black" d="M1151.77,2692.54c81.29,121,212.98,206.11,367.27,224.09h0"/>
          <line class="cls-1-black" x1="1064.62" y1="2056.34" x2="1064.62" y2="2332.81"/>
          <path class="cls-1-black" d="M2666.74,2491.41c-67.71,129.67-195.46,224.06-349.18,244.33h0"/>
          <line class="cls-1-black" x1="2719.03" y1="1723.05" x2="2719.03" y2="2144.56"/>
        </g>
        <g>
          <line class="cls-1-black" x1="1649.91" y1="1021.04" x2="1541.09" y2="1021.04"/>
          <line class="cls-1-black" x1="1649.91" y1="1232.8" x2="1541.09" y2="1232.8"/>
          <line class="cls-1-black" x1="1649.91" y1="1444.57" x2="1541.09" y2="1444.57"/>
          <line class="cls-1-black" x1="1649.91" y1="1656.33" x2="1541.09" y2="1656.33"/>
          <line class="cls-1-black" x1="1649.91" y1="1868.1" x2="1541.09" y2="1868.1"/>
          <line class="cls-1-black" x1="1649.91" y1="2079.86" x2="1541.09" y2="2079.86"/>
          <line class="cls-1-black" x1="903.86" y1="1950.45" x2="795.04" y2="1950.45"/>
          <line class="cls-1-black" x1="903.86" y1="2162.21" x2="795.04" y2="2162.21"/>
          <line class="cls-1-black" x1="903.86" y1="2373.98" x2="795.04" y2="2373.98"/>
          <line class="cls-1-black" x1="903.86" y1="2585.74" x2="795.04" y2="2585.74"/>
          <line class="cls-1-black" x1="1649.91" y1="2291.63" x2="1541.09" y2="2291.63"/>
          <line class="cls-1-black" x1="1349.92" y1="1991.62" x2="1241.1" y2="1991.62"/>
          <line class="cls-1-black" x1="1349.92" y1="2203.38" x2="1241.1" y2="2203.38"/>
          <line class="cls-1-black" x1="1649.91" y1="2503.39" x2="1541.09" y2="2503.39"/>
          <line class="cls-1-black" x1="1649.91" y1="3350.45" x2="1541.09" y2="3350.45"/>
          <line class="cls-1-black" x1="1649.91" y1="3562.21" x2="1541.09" y2="3562.21"/>
          <line class="cls-1-black" x1="2155.8" y1="1126.93" x2="2264.62" y2="1126.93"/>
          <line class="cls-1-black" x1="2155.8" y1="1338.7" x2="2264.62" y2="1338.7"/>
          <line class="cls-1-black" x1="2155.8" y1="1550.46" x2="2264.62" y2="1550.46"/>
          <line class="cls-1-black" x1="2155.8" y1="1762.22" x2="2264.62" y2="1762.22"/>
          <line class="cls-1-black" x1="2155.8" y1="1973.99" x2="2264.62" y2="1973.99"/>
          <line class="cls-1-black" x1="2448.17" y1="1656.35" x2="2557" y2="1656.35"/>
          <line class="cls-1-black" x1="2448.17" y1="1868.12" x2="2557" y2="1868.12"/>
          <line class="cls-1-black" x1="2448.17" y1="2079.88" x2="2557" y2="2079.88"/>
          <line class="cls-1-black" x1="2155.8" y1="2185.75" x2="2264.62" y2="2185.75"/>
          <line class="cls-1-black" x1="2155.8" y1="2397.52" x2="2264.62" y2="2397.52"/>
          <line class="cls-1-black" x1="2894.24" y1="1550.46" x2="3003.06" y2="1550.46"/>
          <line class="cls-1-black" x1="2894.24" y1="1762.22" x2="3003.06" y2="1762.22"/>
          <line class="cls-1-black" x1="2894.24" y1="1973.99" x2="3003.06" y2="1973.99"/>
          <line class="cls-1-black" x1="2894.24" y1="2185.75" x2="3003.06" y2="2185.75"/>
          <line class="cls-1-black" x1="2878.15" y1="2397.52" x2="2987.62" y2="2397.52"/>
          <line class="cls-1-black" x1="2155.8" y1="3209.26" x2="2264.62" y2="3209.26"/>
          <line class="cls-1-black" x1="2155.8" y1="3421.02" x2="2264.62" y2="3421.02"/>
        </g>
      </g>
      <rect class="cls-1-black" x="30" y="30" width="3738.1" height="3738.1" rx="550" ry="550"/>
    </g>
  </g>
</svg>