<?xml version="1.0" encoding="UTF-8"?>
<svg id="Layer_2" data-name="Layer 2" xmlns="http://www.w3.org/2000/svg" xmlns:xlink="http://www.w3.org/1999/xlink" viewBox="0 0 3798.1 3798.1">
  <defs>
    <style>
      .cls-1-color-bg {
        fill: none;
      }

      .cls-2-color-bg {
        fill: url(#linear-gradient-2);
      }

      .cls-3-color-bg {
        fill: url(#linear-gradient);
      }

      .cls-4-color-bg {
        fill: #fff;
      }
    </style>
    <linearGradient id="linear-gradient" x1="410.17" y1="3826.08" x2="3826.08" y2="410.17" gradientUnits="userSpaceOnUse">
      <stop offset="0" stop-color="#0c234b"/>
      <stop offset=".15" stop-color="#2b1d42"/>
      <stop offset=".44" stop-color="#611233"/>
      <stop offset=".68" stop-color="#890b29"/>
      <stop offset=".88" stop-color="#a20622"/>
      <stop offset="1" stop-color="#ab0520"/>
    </linearGradient>
    <linearGradient id="linear-gradient-2" x1="191.09" y1="3607.01" x2="3607.01" y2="191.09" xlink:href="#linear-gradient"/>
  </defs>
  <g>
    <g>
      <path class="cls-1-color-bg" d="M3684.28,3448.78c4.59-9.27,8.92-18.7,12.97-28.28,4.31-10.2,8.29-20.5,11.92-30.9-3.64,10.4-7.61,20.7-11.92,30.9-4.05,9.58-8.38,19.01-12.97,28.28Z"/>
      <path class="cls-1-color-bg" d="M3420.5,3697.25c-64.09,27.11-132.19,40.85-202.4,40.85H580c-70.21,0-138.31-13.74-202.4-40.85-61.92-26.19-117.53-63.69-165.3-111.45-47.77-47.77-85.26-103.38-111.45-165.3-27.11-64.09-40.85-132.19-40.85-202.4h0c0,70.21,13.74,138.31,40.85,202.4,26.19,61.92,63.69,117.53,111.45,165.3,47.77,47.77,103.38,85.26,165.3,111.45,64.09,27.11,132.19,40.85,202.4,40.85h2638.1c70.21,0,138.31-13.74,202.4-40.85,61.92-26.19,117.53-63.69,165.3-111.45,26.06-26.06,49.05-54.46,68.83-84.94-19.78,30.48-42.77,58.88-68.83,84.94-47.77,47.77-103.38,85.26-165.3,111.45Z"/>
      <path class="cls-1-color-bg" d="M3684.14,3449.05c-1.97,3.98-4,7.93-6.07,11.86,2.07-3.92,4.1-7.88,6.07-11.86Z"/>
      <path class="cls-3-color-bg" d="M2155.8,2829.28c16.57,0,30,13.43,30,30v92.02c85.05-3.51,167.59-21.97,245.75-55.03,84.36-35.68,160.12-86.77,225.2-151.84,65.07-65.07,116.16-140.84,151.84-225.2,17.34-41,30.67-83.2,39.93-126.33.16-1.03.37-2.04.63-3.03,10.04-47.78,15.1-96.7,15.1-146.39v-705.65c0-76.43-62.18-138.62-138.62-138.62s-138.62,62.18-138.62,138.62v620.58c0,58.2-11.41,114.67-33.9,167.85-21.72,51.35-52.81,97.46-92.4,137.05-39.59,39.59-85.7,70.68-137.05,92.4-43.99,18.61-90.24,29.62-137.85,32.87v41.62c0,16.57-13.43,30-30,30s-30-13.43-30-30V1021.04c0-59.55-23.19-115.54-65.3-157.64-42.11-42.11-98.09-65.3-157.64-65.3s-115.54,23.19-157.64,65.3c-42.11,42.11-65.3,98.09-65.3,157.64v1789.69c0,16.57-13.43,30-30,30s-30-13.43-30-30v-45.19c-50.3-2.55-99.13-13.73-145.47-33.33-51.35-21.72-97.46-52.81-137.05-92.4-39.59-39.59-70.68-85.7-92.4-137.05-22.49-53.18-33.9-109.65-33.9-167.85v-384.59c0-76.43-62.18-138.62-138.62-138.62s-138.62,62.18-138.62,138.62v469.66c0,95.65,18.73,188.43,55.66,275.75,35.68,84.36,86.77,160.12,151.84,225.2,65.07,65.07,140.84,116.16,225.19,151.84,80.49,34.04,165.62,52.61,253.36,55.3v-105.55c0-16.57,13.43-30,30-30s30,13.43,30,30v715.58h104.7v-540.58c0-16.57,13.43-30,30-30s30,13.43,30,30v540.58h116.49v-255.29c0-16.57,13.43-30,30-30s30,13.43,30,30v255.29h104.7v-878.81c0-16.57,13.43-30,30-30ZM2689.03,1723.05c0-16.57,13.43-30,30-30s30,13.43,30,30v421.51c0,16.57-13.43,30-30,30s-30-13.43-30-30v-421.51ZM2313.64,2706c69.56-9.17,136.44-35.41,193.4-75.86,55.55-39.45,101.58-92.23,133.12-152.62,7.67-14.69,25.79-20.37,40.48-12.71,14.69,7.67,20.38,25.79,12.71,40.48-35.91,68.76-88.31,128.84-151.56,173.76-64.9,46.09-141.08,75.98-220.29,86.43-1.33.18-2.65.26-3.96.26-14.82,0-27.71-10.98-29.7-26.08-2.17-16.43,9.39-31.5,25.82-33.67ZM1094.62,2332.81c0,16.57-13.43,30-30,30s-30-13.43-30-30v-276.47c0-16.57,13.43-30,30-30s30,13.43,30,30v276.47ZM1548.83,2920.1c-1.78,15.28-14.75,26.53-29.76,26.53-1.16,0-2.33-.07-3.51-.2-158.15-18.43-299.83-104.87-388.7-237.16-9.24-13.75-5.58-32.39,8.17-41.63,13.75-9.24,32.39-5.58,41.63,8.17,79.08,117.71,205.13,194.62,345.83,211.02,16.46,1.92,28.24,16.81,26.33,33.27ZM1844.61,3056.34c0,16.57-13.43,30-30,30s-30-13.43-30-30v-1333.29c0-16.57,13.43-30,30-30s30,13.43,30,30v1333.29ZM1844.61,1556.34c0,16.57-13.43,30-30,30s-30-13.43-30-30v-523.85c0-16.57,13.43-30,30-30s30,13.43,30,30v523.85ZM2021.1,3326.92c0,16.57-13.43,30-30,30s-30-13.43-30-30v-1029.41c0-16.57,13.43-30,30-30s30,13.43,30,30v1029.41ZM2021.1,2056.33c0,16.57-13.43,30-30,30s-30-13.43-30-30v-894.12c0-16.57,13.43-30,30-30s30,13.43,30,30v894.12ZM1991.1,1051.77c-16.57,0-30-13.43-30-30,0-35.37-26.45-64.96-61.53-68.84-16.47-1.82-28.34-16.65-26.52-33.11s16.65-28.35,33.11-26.52c65.53,7.24,114.94,62.48,114.94,128.48,0,16.57-13.43,30-30,30Z"/>
      <path class="cls-2-color-bg" d="M3738.1,580c0-70.21-13.74-138.31-40.85-202.4-26.19-61.92-63.69-117.53-111.45-165.3-47.77-47.76-103.38-85.26-165.3-111.45-64.09-27.11-132.19-40.85-202.4-40.85H580c-70.21,0-138.31,13.75-202.4,40.85-61.92,26.19-117.53,63.69-165.3,111.45-47.77,47.77-85.26,103.38-111.45,165.3-27.11,64.09-40.85,132.19-40.85,202.4v2638.1c0,70.21,13.74,138.31,40.85,202.4,26.19,61.92,63.69,117.53,111.45,165.3,47.77,47.77,103.38,85.26,165.3,111.45,64.09,27.11,132.19,40.85,202.4,40.85h1039.91v-145.88h-78.82c-16.57,0-30-13.43-30-30s13.43-30,30-30h78.82v-151.77h-78.82c-16.57,0-30-13.43-30-30s13.43-30,30-30h78.82v-132.35c-95.82-2.72-188.81-22.88-276.74-60.07-91.51-38.71-173.69-94.11-244.25-164.67-70.56-70.56-125.97-152.74-164.67-244.25-14.27-33.75-26.03-68.25-35.27-103.36h-103.96c-16.57,0-30-13.43-30-30s13.43-30,30-30h90.74c-7.92-44.49-11.92-89.82-11.92-135.76v-16.01h-78.82c-16.57,0-30-13.43-30-30s13.43-30,30-30h78.82v-151.76h-78.82c-16.57,0-30-13.43-30-30s13.43-30,30-30h78.82v-151.77h-78.82c-16.57,0-30-13.43-30-30s13.43-30,30-30h81.07c14.45-95.4,97.01-168.75,196.37-168.75,109.52,0,198.62,89.1,198.62,198.62v11.29h78.82c16.57,0,30,13.43,30,30s-13.43,30-30,30h-78.82v151.77h78.82c16.57,0,30,13.43,30,30s-13.43,30-30,30h-78.82v101.53c0,99.15,38.61,192.37,108.72,262.48,64.81,64.81,149.36,102.67,240.09,108.04v-172.04h-78.82c-16.57,0-30-13.43-30-30s13.43-30,30-30h78.82v-151.76h-78.82c-16.57,0-30-13.43-30-30s13.43-30,30-30h78.82v-151.77h-78.82c-16.57,0-30-13.43-30-30s13.43-30,30-30h78.82v-151.76h-78.82c-16.57,0-30-13.43-30-30s13.43-30,30-30h78.82v-151.76h-78.82c-16.57,0-30-13.43-30-30s13.43-30,30-30h78.82v-151.76h-78.82c-16.57,0-30-13.43-30-30s13.43-30,30-30h78.82v-151.76h-78.82c-16.57,0-30-13.43-30-30s13.43-30,30-30h78.82v-151.77h-78.82c-16.57,0-30-13.43-30-30s13.43-30,30-30h80.4c6.73-64.23,34.99-123.77,81.29-170.07,53.44-53.44,124.49-82.87,200.07-82.87s146.63,29.43,200.07,82.87,82.87,124.49,82.87,200.07v75.89h78.82c16.57,0,30,13.43,30,30s-13.43,30-30,30h-78.82v151.76h78.82c16.57,0,30,13.43,30,30s-13.43,30-30,30h-78.82v151.76h78.82c16.57,0,30,13.43,30,30s-13.43,30-30,30h-78.82v151.76h78.82c16.57,0,30,13.43,30,30s-13.43,30-30,30h-78.82v151.76h78.82c16.57,0,30,13.43,30,30s-13.43,30-30,30h-78.82v151.76h78.82c16.57,0,30,13.43,30,30s-13.43,30-30,30h-78.82v151.77h78.82c16.57,0,30,13.43,30,30s-13.43,30-30,30h-78.82v100.9c87.84-6.98,169.49-44.52,232.48-107.51,70.11-70.11,108.72-163.33,108.72-262.48v-48.54h-78.82c-16.57,0-30-13.43-30-30s13.43-30,30-30h78.82v-151.76h-78.82c-16.57,0-30-13.43-30-30s13.43-30,30-30h78.82v-151.76h-78.82c-16.57,0-30-13.43-30-30s13.43-30,30-30h78.82v-88.51c0-109.52,89.1-198.62,198.62-198.62,103.66,0,189.02,79.83,197.85,181.24h79.59c16.57,0,30,13.43,30,30s-13.43,30-30,30h-78.82v151.76h78.82c16.57,0,30,13.43,30,30s-13.43,30-30,30h-78.82v151.76h78.82c16.57,0,30,13.43,30,30s-13.43,30-30,30h-78.82v151.76h78.82c16.57,0,30,13.43,30,30s-13.43,30-30,30h-78.82v27.74c0,41.91-3.32,83.31-9.92,124.02h73.3c16.57,0,30,13.43,30,30s-13.43,30-30,30h-85.53c-9.64,39.17-22.39,77.6-38.25,115.1-38.71,91.51-94.11,173.69-164.67,244.25s-152.74,125.96-244.25,164.67c-85.59,36.21-175.99,56.28-269.12,59.83v167.9h78.82c16.57,0,30,13.43,30,30s-13.43,30-30,30h-78.82v151.76h78.82c16.57,0,30,13.43,30,30s-13.43,30-30,30h-78.82v287.07h1032.3c70.21,0,138.31-13.74,202.4-40.85,61.92-26.19,117.53-63.69,165.3-111.45,26.06-26.06,49.05-54.46,68.83-84.94,8.4-12.95,16.23-26.27,23.45-39.95,2.07-3.92,4.1-7.87,6.07-11.86.04-.09.09-.18.13-.27,4.59-9.27,8.92-18.7,12.97-28.28,4.31-10.2,8.29-20.5,11.92-30.9,19.21-54.92,28.93-112.46,28.93-171.5V580Z"/>
      <path class="cls-4-color-bg" d="M1991.1,2267.51c-16.57,0-30,13.43-30,30v1029.41c0,16.57,13.43,30,30,30s30-13.43,30-30v-1029.41c0-16.57-13.43-30-30-30Z"/>
      <path class="cls-4-color-bg" d="M1991.1,1132.21c-16.57,0-30,13.43-30,30v894.12c0,16.57,13.43,30,30,30s30-13.43,30-30v-894.12c0-16.57-13.43-30-30-30Z"/>
      <path class="cls-4-color-bg" d="M1814.61,1693.05c-16.57,0-30,13.43-30,30v1333.29c0,16.57,13.43,30,30,30s30-13.43,30-30v-1333.29c0-16.57-13.43-30-30-30Z"/>
      <path class="cls-4-color-bg" d="M1814.61,1002.49c-16.57,0-30,13.43-30,30v523.85c0,16.57,13.43,30,30,30s30-13.43,30-30v-523.85c0-16.57-13.43-30-30-30Z"/>
      <path class="cls-4-color-bg" d="M1906.16,893.3c-16.46-1.83-31.29,10.05-33.11,26.52s10.05,31.29,26.52,33.11c35.08,3.88,61.53,33.47,61.53,68.84,0,16.57,13.43,30,30,30s30-13.43,30-30c0-66-49.41-121.24-114.94-128.48Z"/>
      <path class="cls-4-color-bg" d="M1522.51,2886.83c-140.71-16.39-266.76-93.31-345.83-211.02-9.24-13.75-27.88-17.41-41.63-8.17-13.75,9.24-17.41,27.88-8.17,41.63,88.87,132.29,230.54,218.73,388.7,237.16,1.18.14,2.35.2,3.51.2,15.02,0,27.98-11.25,29.76-26.53,1.92-16.46-9.87-31.35-26.33-33.27Z"/>
      <path class="cls-4-color-bg" d="M1064.62,2026.34c-16.57,0-30,13.43-30,30v276.47c0,16.57,13.43,30,30,30s30-13.43,30-30v-276.47c0-16.57-13.43-30-30-30Z"/>
      <path class="cls-4-color-bg" d="M2317.52,2765.74c1.31,0,2.63-.09,3.96-.26,79.22-10.45,155.39-40.33,220.29-86.43,63.25-44.92,115.65-105,151.56-173.76,7.67-14.69,1.98-32.81-12.71-40.48-14.69-7.67-32.81-1.98-40.48,12.71-31.54,60.39-77.57,113.16-133.12,152.62-56.96,40.45-123.83,66.69-193.4,75.86-16.43,2.17-27.99,17.24-25.82,33.67,1.99,15.1,14.88,26.08,29.7,26.08Z"/>
      <path class="cls-4-color-bg" d="M2719.03,2174.56c16.57,0,30-13.43,30-30v-421.51c0-16.57-13.43-30-30-30s-30,13.43-30,30v421.51c0,16.57,13.43,30,30,30Z"/>
      <path class="cls-4-color-bg" d="M3684.28,3448.78c-.04.09-.09.18-.13.27.04-.09.09-.18.13-.27Z"/>
      <path class="cls-4-color-bg" d="M3678.07,3460.91c-7.22,13.68-15.05,27-23.45,39.95,8.4-12.95,16.23-26.27,23.45-39.95Z"/>
      <path class="cls-4-color-bg" d="M3585.79,212.3c-47.77-47.76-103.38-85.26-165.3-111.45-64.09-27.11-132.19-40.85-202.4-40.85h0c70.21,0,138.31,13.75,202.4,40.85,61.92,26.19,117.53,63.69,165.3,111.45,47.77,47.77,85.26,103.38,111.45,165.3,27.11,64.09,40.85,132.19,40.85,202.4v2638.1c0,59.04-9.72,116.58-28.93,171.5,19.21-54.92,28.93-112.46,28.93-171.5V580c0-70.21-13.74-138.31-40.85-202.4-26.19-61.92-63.69-117.53-111.45-165.3Z"/>
      <path class="cls-4-color-bg" d="M1991.1,3452.81c-16.57,0-30,13.43-30,30v255.29h60v-255.29c0-16.57-13.43-30-30-30Z"/>
      <path class="cls-4-color-bg" d="M1814.61,3167.52c-16.57,0-30,13.43-30,30v540.58h60v-540.58c0-16.57-13.43-30-30-30Z"/>
      <path class="cls-4-color-bg" d="M3752.51,354.23c-29.21-69.07-71.03-131.09-124.29-184.35-53.26-53.26-115.28-95.07-184.35-124.29-71.53-30.25-147.49-45.59-225.77-45.59H580c-78.29,0-154.25,15.34-225.77,45.59-69.07,29.21-131.09,71.03-184.35,124.29-53.26,53.26-95.07,115.28-124.29,184.35C15.34,425.75,0,501.71,0,580v2638.1c0,78.29,15.34,154.25,45.59,225.77,29.21,69.07,71.03,131.09,124.29,184.35,53.26,53.26,115.28,95.07,184.35,124.29,71.52,30.25,147.49,45.59,225.77,45.59h2638.1c78.29,0,154.25-15.34,225.77-45.59,69.07-29.21,131.09-71.03,184.35-124.29,53.26-53.26,95.07-115.28,124.29-184.35,30.25-71.53,45.59-147.49,45.59-225.77V580c0-78.29-15.34-154.25-45.59-225.77ZM2021.1,3738.1h-341.18v-715.58c0-16.57-13.43-30-30-30s-30,13.43-30,30v105.55c-87.74-2.7-172.87-21.26-253.36-55.3-84.36-35.68-160.12-86.77-225.19-151.84-65.07-65.07-116.16-140.84-151.84-225.2-36.93-87.32-55.66-180.09-55.66-275.75v-469.66c0-76.43,62.18-138.62,138.62-138.62s138.62,62.18,138.62,138.62v384.59c0,58.2,11.41,114.67,33.9,167.85,21.72,51.35,52.81,97.46,92.4,137.05,39.59,39.59,85.7,70.68,137.05,92.4,46.33,19.6,95.17,30.78,145.47,33.33v45.19c0,16.57,13.43,30,30,30s30-13.43,30-30V1021.04c0-59.55,23.19-115.54,65.3-157.64,42.11-42.11,98.09-65.3,157.64-65.3s115.54,23.19,157.64,65.3c42.11,42.11,65.3,98.09,65.3,157.64v1609.18c0,16.57,13.43,30,30,30s30-13.43,30-30v-41.62c47.61-3.25,93.86-14.26,137.85-32.87,51.35-21.72,97.46-52.8,137.05-92.4,39.59-39.59,70.68-85.7,92.4-137.05,22.49-53.18,33.9-109.65,33.9-167.85v-620.58c0-76.43,62.18-138.62,138.62-138.62s138.62,62.18,138.62,138.62v705.65c0,49.69-5.07,98.61-15.1,146.39-.26.99-.47,2-.63,3.03-9.26,43.14-22.59,85.33-39.93,126.33-35.68,84.36-86.77,160.12-151.84,225.2-65.07,65.07-140.84,116.16-225.2,151.84-78.16,33.06-160.69,51.52-245.75,55.03v-92.02c0-16.57-13.43-30-30-30s-30,13.43-30,30v878.81h-104.7ZM3738.1,3218.1c0,59.04-9.72,116.58-28.93,171.5-3.64,10.4-7.61,20.7-11.92,30.9-4.05,9.58-8.38,19.01-12.97,28.28-.04.09-.09.18-.13.27-1.97,3.98-4,7.93-6.07,11.86-7.22,13.68-15.05,27-23.45,39.95-19.78,30.48-42.77,58.88-68.83,84.94-47.77,47.77-103.38,85.26-165.3,111.45-64.09,27.11-132.19,40.85-202.4,40.85h-1032.3v-287.07h78.82c16.57,0,30-13.43,30-30s-13.43-30-30-30h-78.82v-151.76h78.82c16.57,0,30-13.43,30-30s-13.43-30-30-30h-78.82v-167.9c93.13-3.54,183.53-23.62,269.12-59.83,91.51-38.71,173.69-94.11,244.25-164.67s125.96-152.74,164.67-244.25c15.86-37.5,28.62-75.93,38.25-115.1h85.53c16.57,0,30-13.43,30-30s-13.43-30-30-30h-73.3c6.6-40.71,9.92-82.12,9.92-124.02v-27.74h78.82c16.57,0,30-13.43,30-30s-13.43-30-30-30h-78.82v-151.76h78.82c16.57,0,30-13.43,30-30s-13.43-30-30-30h-78.82v-151.76h78.82c16.57,0,30-13.43,30-30s-13.43-30-30-30h-78.82v-151.76h78.82c16.57,0,30-13.43,30-30s-13.43-30-30-30h-79.59c-8.83-101.41-94.19-181.24-197.85-181.24-109.52,0-198.62,89.1-198.62,198.62v88.51h-78.82c-16.57,0-30,13.43-30,30s13.43,30,30,30h78.82v151.76h-78.82c-16.57,0-30,13.43-30,30s13.43,30,30,30h78.82v151.76h-78.82c-16.57,0-30,13.43-30,30s13.43,30,30,30h78.82v48.54c0,99.15-38.61,192.37-108.72,262.48-62.99,62.99-144.64,100.53-232.48,107.51v-100.9h78.82c16.57,0,30-13.43,30-30s-13.43-30-30-30h-78.82v-151.77h78.82c16.57,0,30-13.43,30-30s-13.43-30-30-30h-78.82v-151.76h78.82c16.57,0,30-13.43,30-30s-13.43-30-30-30h-78.82v-151.76h78.82c16.57,0,30-13.43,30-30s-13.43-30-30-30h-78.82v-151.76h78.82c16.57,0,30-13.43,30-30s-13.43-30-30-30h-78.82v-151.76h78.82c16.57,0,30-13.43,30-30s-13.43-30-30-30h-78.82v-151.76h78.82c16.57,0,30-13.43,30-30s-13.43-30-30-30h-78.82v-75.89c0-75.58-29.43-146.63-82.87-200.07s-124.49-82.87-200.07-82.87-146.63,29.43-200.07,82.87c-46.3,46.3-74.57,105.83-81.29,170.07h-80.4c-16.57,0-30,13.43-30,30s13.43,30,30,30h78.82v151.77h-78.82c-16.57,0-30,13.43-30,30s13.43,30,30,30h78.82v151.76h-78.82c-16.57,0-30,13.43-30,30s13.43,30,30,30h78.82v151.76h-78.82c-16.57,0-30,13.43-30,30s13.43,30,30,30h78.82v151.76h-78.82c-16.57,0-30,13.43-30,30s13.43,30,30,30h78.82v151.76h-78.82c-16.57,0-30,13.43-30,30s13.43,30,30,30h78.82v151.77h-78.82c-16.57,0-30,13.43-30,30s13.43,30,30,30h78.82v151.76h-78.82c-16.57,0-30,13.43-30,30s13.43,30,30,30h78.82v172.04c-90.73-5.36-175.29-43.23-240.09-108.04-70.11-70.11-108.72-163.33-108.72-262.48v-101.53h78.82c16.57,0,30-13.43,30-30s-13.43-30-30-30h-78.82v-151.77h78.82c16.57,0,30-13.43,30-30s-13.43-30-30-30h-78.82v-11.29c0-109.52-89.1-198.62-198.62-198.62-99.37,0-181.92,73.35-196.37,168.75h-81.07c-16.57,0-30,13.43-30,30s13.43,30,30,30h78.82v151.77h-78.82c-16.57,0-30,13.43-30,30s13.43,30,30,30h78.82v151.76h-78.82c-16.57,0-30,13.43-30,30s13.43,30,30,30h78.82v16.01c0,45.94,3.99,91.27,11.92,135.76h-90.74c-16.57,0-30,13.43-30,30s13.43,30,30,30h103.96c9.24,35.12,20.99,69.61,35.27,103.36,38.7,91.51,94.11,173.69,164.67,244.25,70.56,70.56,152.74,125.96,244.25,164.67,87.92,37.19,180.92,57.35,276.74,60.07v132.35h-78.82c-16.57,0-30,13.43-30,30s13.43,30,30,30h78.82v151.77h-78.82c-16.57,0-30,13.43-30,30s13.43,30,30,30h78.82v145.88H580c-70.21,0-138.31-13.74-202.4-40.85-61.92-26.19-117.53-63.69-165.3-111.45-47.77-47.77-85.26-103.38-111.45-165.3-27.11-64.09-40.85-132.19-40.85-202.4V580c0-70.21,13.74-138.31,40.85-202.4,26.19-61.92,63.69-117.53,111.45-165.3,47.77-47.76,103.38-85.26,165.3-111.45,64.09-27.11,132.19-40.85,202.4-40.85h2638.1c70.21,0,138.31,13.75,202.4,40.85,61.92,26.19,117.53,63.69,165.3,111.45,47.77,47.77,85.26,103.38,111.45,165.3,27.11,64.09,40.85,132.19,40.85,202.4v2638.1Z"/>
    </g>
  </g>
</svg>