<svg xmlns="http://www.w3.org/2000/svg" width="150" height="35.558" viewBox="0 0 150 35.558"><defs><style>.cls-1{fill:#fff}</style></defs><g id="ua_rev_horiz_rgb_1" transform="translate(75 17.779)"><g id="ua_rev_horiz_rgb_1-2" data-name="ua_rev_horiz_rgb_1" transform="translate(-75 -17.779)"><path id="Path_1457" d="M112.106 26.262a4 4 0 0 0 .156 1.29 1.9 1.9 0 0 0 .515.748h-3.107a1.9 1.9 0 0 0 .519-.748 4 4 0 0 0 .152-1.29v-8.211h-.915a6.5 6.5 0 0 0-1.529.147 2.1 2.1 0 0 0-.936.479l.561-1.888h8.09l-.53 1.855a1.5 1.5 0 0 0-.663-.449 3.2 3.2 0 0 0-1.039-.144h-1.273v8.21Z" class="cls-1" data-name="Path 1457" transform="translate(-69.144 -10.853)"/><path id="Path_1458" d="M134.91 28.791a3.7 3.7 0 0 0 .134 1.149 1.7 1.7 0 0 0 .461.669h-2.772a1.7 1.7 0 0 0 .456-.669 3.6 3.6 0 0 0 .138-1.149v-6.647a3.5 3.5 0 0 0-.138-1.144 1.7 1.7 0 0 0-.456-.658h2.767a1.6 1.6 0 0 0-.461.658 3.7 3.7 0 0 0-.134 1.148v2.3h5.444v-2.3a3.6 3.6 0 0 0-.131-1.148 1.6 1.6 0 0 0-.461-.658h2.773a1.66 1.66 0 0 0-.456.658 3.6 3.6 0 0 0-.138 1.148v6.648a3.6 3.6 0 0 0 .134 1.149 1.7 1.7 0 0 0 .46.669h-2.773a1.65 1.65 0 0 0 .461-.669 3.7 3.7 0 0 0 .135-1.149v-3.169h-5.443z" class="cls-1" data-name="Path 1458" transform="translate(-85.805 -13.147)"/><path id="Path_1459" d="M164.249 30.609a1.7 1.7 0 0 0 .456-.669 3.5 3.5 0 0 0 .138-1.151V22.15A3.5 3.5 0 0 0 164.7 21a1.66 1.66 0 0 0-.456-.661h5.535v1.621a2.4 2.4 0 0 0-.815-.433 3.6 3.6 0 0 0-1.024-.134 5 5 0 0 0-.67.048c-.249.032-.525.082-.837.146v2.893h2.483v1.493a.95.95 0 0 0-.475-.294 4.7 4.7 0 0 0-1.094-.086h-.914v3.683q.576.086 1.042.13c.466.044.578.045.806.045a5 5 0 0 0 1.456-.209 5.4 5.4 0 0 0 1.347-.641l-.707 2.01h-6.133Z" class="cls-1" data-name="Path 1459" transform="translate(-106.179 -13.147)"/><path id="Path_1460" d="M205.614 28.391v-.867a6.6 6.6 0 0 1-1.666.9 5.1 5.1 0 0 1-1.7.3 4.5 4.5 0 0 1-1.757-.33 3.55 3.55 0 0 1-1.331-.99 3.1 3.1 0 0 1-.63-1.208 7.2 7.2 0 0 1-.191-1.851v-5.396a4.1 4.1 0 0 0-.149-1.279 1.84 1.84 0 0 0-.508-.735h3.08a1.8 1.8 0 0 0-.5.735 4 4 0 0 0-.149 1.279v5.034a10 10 0 0 0 .112 1.75 2.1 2.1 0 0 0 .383.907 1.96 1.96 0 0 0 .865.608 3.7 3.7 0 0 0 1.286.2 3.5 3.5 0 0 0 1.159-.187 2.75 2.75 0 0 0 .94-.539 1.64 1.64 0 0 0 .514-.771 4.4 4.4 0 0 0 .153-1.291v-5.711a4.1 4.1 0 0 0-.148-1.3 1.75 1.75 0 0 0-.508-.713h3.1a1.75 1.75 0 0 0-.515.751 4 4 0 0 0-.153 1.262v7.417a4 4 0 0 0 .153 1.28 1.9 1.9 0 0 0 .515.744h-2.35Z" class="cls-1" data-name="Path 1460" transform="translate(-127.789 -10.948)"/><path id="Path_1461" d="M240.847 20.338a1.6 1.6 0 0 0-.461.658 3.6 3.6 0 0 0-.134 1.146v8.705a1.83 1.83 0 0 1-1.007-.348 6.3 6.3 0 0 1-1.193-1.266l-5.223-6.686v6.241a3.7 3.7 0 0 0 .133 1.171 1.6 1.6 0 0 0 .451.649h-2.3a1.7 1.7 0 0 0 .457-.669 3.5 3.5 0 0 0 .138-1.151v-6.646a3.5 3.5 0 0 0-.135-1.142 1.63 1.63 0 0 0-.457-.658h2.055l5.986 7.713v-5.913A3.6 3.6 0 0 0 239.02 21a1.7 1.7 0 0 0-.457-.658Z" class="cls-1" data-name="Path 1461" transform="translate(-149.405 -13.147)"/><path id="Path_1462" d="M265.5 28.789a3.6 3.6 0 0 0 .134 1.151 1.65 1.65 0 0 0 .46.669h-2.773a1.66 1.66 0 0 0 .461-.669 3.7 3.7 0 0 0 .133-1.151v-6.647A3.7 3.7 0 0 0 263.78 21a1.6 1.6 0 0 0-.461-.658h2.773a1.6 1.6 0 0 0-.46.658 3.6 3.6 0 0 0-.134 1.146v6.647Z" class="cls-1" data-name="Path 1462" transform="translate(-170.222 -13.147)"/><path id="Path_1463" d="M278.692 30.869a2.06 2.06 0 0 1-1.1-.744 5.7 5.7 0 0 1-.847-1.711l-2.048-5.983a11 11 0 0 0-.47-1.206 7.5 7.5 0 0 0-.5-.887l2.091.007a4 4 0 0 0 .052.466 3 3 0 0 0 .093.407l2.462 7.35 2.33-6.122a5 5 0 0 0 .164-.567 2.5 2.5 0 0 0 .062-.521 1 1 0 0 0-.117-.439 3.6 3.6 0 0 0-.392-.581h2.319l-4.1 10.532Z" class="cls-1" data-name="Path 1463" transform="translate(-176.95 -13.147)"/><path id="Path_1464" d="M301.358 30.609a1.7 1.7 0 0 0 .457-.669 3.5 3.5 0 0 0 .14-1.151V22.15a3.5 3.5 0 0 0-.14-1.151 1.65 1.65 0 0 0-.457-.661h5.535v1.621a2.4 2.4 0 0 0-.814-.433 3.6 3.6 0 0 0-1.026-.134 5 5 0 0 0-.666.048q-.375.049-.838.146v2.893h2.482v1.493a.94.94 0 0 0-.475-.294 4.7 4.7 0 0 0-1.094-.086h-.913v3.683q.576.086 1.041.13c.465.044.579.045.808.045a5 5 0 0 0 1.453-.209 5.4 5.4 0 0 0 1.349-.641l-.707 2.01z" class="cls-1" data-name="Path 1464" transform="translate(-194.813 -13.147)"/><path id="Path_1465" d="M324.873 28.791a3.6 3.6 0 0 0 .135 1.149 1.64 1.64 0 0 0 .459.669h-2.773a1.7 1.7 0 0 0 .457-.669 3.5 3.5 0 0 0 .137-1.149v-6.645a3.5 3.5 0 0 0-.137-1.146 1.7 1.7 0 0 0-.457-.659h3.5a3.8 3.8 0 0 1 2.417.724 2.3 2.3 0 0 1 .922 1.887 2.2 2.2 0 0 1-.554 1.487 4.56 4.56 0 0 1-1.718 1.133l2.629 3.556a7 7 0 0 0 .559.672q.327.356.748.739l-.785.073h-.124a2.16 2.16 0 0 1-1.078-.3 2.7 2.7 0 0 1-.887-.812l-3.011-4.216a4.7 4.7 0 0 0 1.966-.834 1.7 1.7 0 0 0 .62-1.366 1.63 1.63 0 0 0-.533-1.265 1.98 1.98 0 0 0-1.4-.489 4 4 0 0 0-.474.033q-.276.035-.624.1v7.326Z" class="cls-1" data-name="Path 1465" transform="translate(-208.605 -13.147)"/><path id="Path_1466" d="m347.261 29.99-.481-1.864a7.5 7.5 0 0 0 1.707.89 5 5 0 0 0 1.647.293 2.8 2.8 0 0 0 1.673-.455 1.4 1.4 0 0 0 .631-1.179 1.45 1.45 0 0 0-.255-.806 5.5 5.5 0 0 0-1.853-1.206q-.398-.193-.619-.3a6.9 6.9 0 0 1-2.024-1.392 2.23 2.23 0 0 1-.55-1.51 2.34 2.34 0 0 1 1.006-1.987 4.57 4.57 0 0 1 2.752-.737A10 10 0 0 1 352 19.8q.6.065 1.312.206v1.726a4.9 4.9 0 0 0-1.26-.721 3.7 3.7 0 0 0-1.317-.238 2.35 2.35 0 0 0-1.4.378 1.16 1.16 0 0 0-.527.984 1.31 1.31 0 0 0 .418.956 7.7 7.7 0 0 0 1.856 1.111q.081.037.25.118a9.6 9.6 0 0 1 1.827 1.05 2.5 2.5 0 0 1 .7.864 2.4 2.4 0 0 1 .251 1.089 2.75 2.75 0 0 1-1.193 2.246 4.74 4.74 0 0 1-2.983.92 6.7 6.7 0 0 1-1.236-.126 12 12 0 0 1-1.443-.377Z" class="cls-1" data-name="Path 1466" transform="translate(-224.176 -12.758)"/><path id="Path_1467" d="M373.593 28.789a3.6 3.6 0 0 0 .136 1.151 1.64 1.64 0 0 0 .461.669h-2.776a1.64 1.64 0 0 0 .462-.669 3.6 3.6 0 0 0 .135-1.151v-6.647a3.6 3.6 0 0 0-.135-1.142 1.6 1.6 0 0 0-.462-.658h2.776a1.6 1.6 0 0 0-.461.658 3.6 3.6 0 0 0-.136 1.146v6.647Z" class="cls-1" data-name="Path 1467" transform="translate(-240.1 -13.147)"/><path id="Path_1468" d="m206.343 62.469-1.675 4.276h3.315zm.193-3.674.914 2.229 3.475 8.7a3.95 3.95 0 0 0 1.635 2.4v.052h-3.425v-.052c.82-.37.685-.555.236-1.74L208.47 68h-4.24l-.867 2.392c-.352.949-.468 1.438.333 1.74v.052h-3.073v-.052a3.8 3.8 0 0 0 1.619-2.4l4.3-10.864V58.8Z" class="cls-1" data-name="Path 1468" transform="translate(-129.693 -38.008)"/><path id="Path_1469" d="M146.408 68.047a3.64 3.64 0 0 0-2.784 1.175 4.23 4.23 0 0 0-1.1 3 4.6 4.6 0 0 0 1.085 3.132 3.44 3.44 0 0 0 2.71 1.246 3.63 3.63 0 0 0 2.779-1.179 4.26 4.26 0 0 0 1.091-3.014 4.56 4.56 0 0 0-1.083-3.124 3.44 3.44 0 0 0-2.7-1.24Zm-.055 9.662a6.3 6.3 0 0 1-2.182-.375 5 5 0 0 1-1.757-1.074 5.1 5.1 0 0 1-1.193-1.742 5.5 5.5 0 0 1-.152-3.785 5.5 5.5 0 0 1 .776-1.519 5.36 5.36 0 0 1 1.961-1.668 5.6 5.6 0 0 1 2.547-.585 6.4 6.4 0 0 1 2.2.374 4.9 4.9 0 0 1 1.758 1.076 5 5 0 0 1 1.2 1.75 5.7 5.7 0 0 1 .415 2.178 5.1 5.1 0 0 1-.465 2.1 5.7 5.7 0 0 1-1.312 1.819 5.15 5.15 0 0 1-1.726 1.083 5.8 5.8 0 0 1-2.074.367Z" class="cls-1" data-name="Path 1469" transform="translate(-91.023 -43.286)"/><path id="Path_1470" d="M176.845 76.083a3.6 3.6 0 0 0 .133 1.149 1.66 1.66 0 0 0 .464.664h-2.775a1.7 1.7 0 0 0 .457-.664 3.6 3.6 0 0 0 .138-1.149v-6.64a3.6 3.6 0 0 0-.138-1.152 1.7 1.7 0 0 0-.457-.66h5.542v1.621a2.4 2.4 0 0 0-.812-.436 3.6 3.6 0 0 0-1.03-.133 5 5 0 0 0-.673.048q-.372.048-.837.148v2.892h2.491v1.492a.93.93 0 0 0-.477-.293 4.7 4.7 0 0 0-1.1-.086h-.925v3.2Z" class="cls-1" data-name="Path 1470" transform="translate(-112.913 -43.72)"/><path id="Path_1471" d="M238.669 76.086a3.6 3.6 0 0 0 .135 1.146 1.66 1.66 0 0 0 .46.664h-2.773a1.7 1.7 0 0 0 .457-.664 3.5 3.5 0 0 0 .138-1.146v-6.649a3.5 3.5 0 0 0-.138-1.149 1.65 1.65 0 0 0-.457-.657h3.5a3.8 3.8 0 0 1 2.42.724 2.3 2.3 0 0 1 .919 1.887 2.2 2.2 0 0 1-.552 1.487 4.55 4.55 0 0 1-1.718 1.131l2.627 3.558a7 7 0 0 0 .562.671q.325.353.748.735l-.786.073h-.124a2.15 2.15 0 0 1-1.076-.294 2.7 2.7 0 0 1-.888-.806l-3.011-4.22a4.64 4.64 0 0 0 1.965-.833 1.72 1.72 0 0 0 .622-1.364 1.63 1.63 0 0 0-.535-1.266 2 2 0 0 0-1.4-.49 4 4 0 0 0-.472.036 8 8 0 0 0-.626.1v7.328Z" class="cls-1" data-name="Path 1471" transform="translate(-152.879 -43.72)"/><path id="Path_1472" d="M265.178 76.083a3.6 3.6 0 0 0 .133 1.149 1.63 1.63 0 0 0 .461.664H263a1.7 1.7 0 0 0 .459-.664 3.6 3.6 0 0 0 .135-1.149v-6.649a3.6 3.6 0 0 0-.135-1.146 1.6 1.6 0 0 0-.459-.657h2.773a1.6 1.6 0 0 0-.461.657 3.6 3.6 0 0 0-.133 1.146v6.649Z" class="cls-1" data-name="Path 1472" transform="translate(-170.015 -43.72)"/><path id="Path_1473" d="m282.413 75.976-.736 1.921h-7.888l5.384-8.946a11 11 0 0 0-1.138-.229 7 7 0 0 0-.994-.075 4.9 4.9 0 0 0-1.293.169 5.5 5.5 0 0 0-1.269.53l.7-1.715h6.56l-5.379 8.941q.898.104 1.508.149c.61.045.758.047 1.055.047a8.6 8.6 0 0 0 1.914-.2 6 6 0 0 0 1.579-.594Z" class="cls-1" data-name="Path 1473" transform="translate(-176.99 -43.72)"/><path id="Path_1474" d="M304.571 68.047a3.64 3.64 0 0 0-2.787 1.175 4.24 4.24 0 0 0-1.1 3 4.6 4.6 0 0 0 1.087 3.132 3.44 3.44 0 0 0 2.708 1.246 3.63 3.63 0 0 0 2.779-1.179 4.26 4.26 0 0 0 1.094-3.014 4.57 4.57 0 0 0-1.083-3.124 3.44 3.44 0 0 0-2.7-1.24Zm-.055 9.662a6.3 6.3 0 0 1-2.182-.375 5 5 0 0 1-1.76-1.074 5.1 5.1 0 0 1-1.19-1.742 5.4 5.4 0 0 1-.417-2.106 5.3 5.3 0 0 1 .265-1.679 5.45 5.45 0 0 1 2.738-3.188 5.6 5.6 0 0 1 2.547-.585 6.3 6.3 0 0 1 2.2.374 5.01 5.01 0 0 1 2.961 2.826 5.7 5.7 0 0 1 .414 2.178 5 5 0 0 1-.467 2.1 5.7 5.7 0 0 1-1.309 1.819 5.2 5.2 0 0 1-1.726 1.083 5.8 5.8 0 0 1-2.075.367Z" class="cls-1" data-name="Path 1474" transform="translate(-193.267 -43.286)"/><path id="Path_1475" d="M342.489 67.631a1.57 1.57 0 0 0-.461.657 3.6 3.6 0 0 0-.134 1.146v8.7a1.84 1.84 0 0 1-1.008-.345 6.3 6.3 0 0 1-1.193-1.259l-5.222-6.687v6.243a3.7 3.7 0 0 0 .131 1.167 1.6 1.6 0 0 0 .45.646h-2.294a1.7 1.7 0 0 0 .456-.664 3.5 3.5 0 0 0 .14-1.149v-6.652a3.5 3.5 0 0 0-.14-1.146 1.7 1.7 0 0 0-.456-.657h2.051l5.99 7.713v-5.91a3.5 3.5 0 0 0-.14-1.146 1.65 1.65 0 0 0-.457-.657Z" class="cls-1" data-name="Path 1475" transform="translate(-215.112 -43.72)"/><path id="Path_1476" d="M364.538 73.025h2.983l-1.43-3.969zm-1.367 3.487a1.4 1.4 0 0 0-.1.322 2 2 0 0 0-.03.341.6.6 0 0 0 .1.323 2 2 0 0 0 .341.4h-2.389a2 2 0 0 0 .534-.565 5.6 5.6 0 0 0 .485-.989l2.847-7.331a2.4 2.4 0 0 0 .131-.406 1.7 1.7 0 0 0 .043-.354.66.66 0 0 0-.081-.326 1.1 1.1 0 0 0-.275-.3h2.3l3.22 8.609a4.3 4.3 0 0 0 .485.949 4 4 0 0 0 .667.709h-2.9l.037-.037q.402-.427.4-.624a2.2 2.2 0 0 0-.174-.693l-.037-.11-.867-2.376h-3.773l-.966 2.457Z" class="cls-1" data-name="Path 1476" transform="translate(-233.429 -43.72)"/><path id="Path_1477" d="m390.4 20.293 2.634 4.477 1.77-2.915a3 3 0 0 0 .246-.485 1.1 1.1 0 0 0 .082-.375.66.66 0 0 0-.1-.349 1.4 1.4 0 0 0-.326-.352h2.368l-3.474 5.653v2.8a3.6 3.6 0 0 0 .137 1.152 1.7 1.7 0 0 0 .459.669h-2.79a1.6 1.6 0 0 0 .461-.669 3.7 3.7 0 0 0 .133-1.148v-2.834L389.626 22a1.06 1.06 0 0 0-.646-.487 3.7 3.7 0 0 0-1.034-.095h-1.136v7.335a3.5 3.5 0 0 0 .138 1.15 1.7 1.7 0 0 0 .459.669h-2.776a1.67 1.67 0 0 0 .461-.669 3.7 3.7 0 0 0 .131-1.15v-7.335h-.812a5.7 5.7 0 0 0-1.369.133 1.9 1.9 0 0 0-.84.429l.5-1.687Z" class="cls-1" data-name="Path 1477" transform="translate(-247.075 -13.118)"/><path id="Path_1478" d="M31.031 0v11.551l-1.17-.005L34.523 24l4 .005v11.553H0v-11.54h3.968l4.7-12.487H7.473L7.48 0Z" class="cls-1" data-name="Path 1478"/><path id="Path_1479" d="M21.791 6.832h7.439v2.976h-3.09l8.126 20.942h2.4v3.081H26.6v-3h-2.829v5.877h15.9v-8.76l-3.569.006L30.375 12.7h1.8V3.94H11.41v8.76h1.8L7.485 27.935l-3.569.013v8.764h15.9v-5.878h-2.832v3H6.913V30.75h2.4l8.129-20.942h-3.09V6.832z" data-name="Path 1479" style="fill:#0c234b" transform="translate(-2.531 -2.547)"/><path id="Path_1480" d="M113.34 88.655a1.47 1.47 0 0 1 0 2.087 1.55 1.55 0 0 1-2.131 0 1.47 1.47 0 0 1 0-2.087 1.543 1.543 0 0 1 2.129 0Zm-.211.177a1.2 1.2 0 0 0-1.706 0 1.255 1.255 0 0 0 0 1.734 1.206 1.206 0 0 0 1.7 0 1.254 1.254 0 0 0 0-1.734Zm-1.5.017h.681a.7.7 0 0 1 .432.122.4.4 0 0 1 .156.339.46.46 0 0 1-.157.369.57.57 0 0 1-.3.125l.489.744h-.309l-.44-.734h-.284v.733h-.267v-1.7Zm.267.74h.362a.45.45 0 0 0 .275-.067.25.25 0 0 0 .087-.211.21.21 0 0 0-.087-.186.5.5 0 0 0-.275-.059h-.362z" class="cls-1" data-name="Path 1480" transform="translate(-71.611 -57.036)"/><path id="Path_1481" d="m34.324 12.2 8.25 21.393s1.057 2.6 2.774 2.6h-6.007s.3.044.6-.457a1 1 0 0 0 .027-.715l-1.858-4.776h-7.56l-1.86 4.775a1 1 0 0 0 .03.715c.3.5.6.457.6.457h-6.006c1.716 0 2.774-2.6 2.774-2.6zm-.006 15.781h2.907l-2.9-7.5-2.9 7.5Z" data-name="Path 1481" style="fill:#ab0520" transform="translate(-15.071 -7.884)"/></g></g></svg>