<svg xmlns="http://www.w3.org/2000/svg" xmlns:xlink="http://www.w3.org/1999/xlink" width="440" height="502" viewBox="0 0 440 502"><defs><path id="a" d="M.7.9H32v62.7H.7z"/></defs><g fill="none" fill-rule="evenodd"><g fill-rule="nonzero"><path fill="none" d="m62.698 251.1 31.3 31.4 31.4-31.4zm62.7 0 31.3 31.4 31.4-31.4z"/><path fill="#081e3f" d="m438.998 251.1-31.4 31.4-31.3-31.4zm-62.7 0-31.4 31.4-31.4-31.4z"/></g><path fill="none" d="m313.6 251.1-31.4 31.4-31.4-31.4zm-62.8 0-31.3 31.4-31.4-31.4zm-188.1 0-31.4 31.4-31.4-31.4z"/><g fill="none" fill-opacity="0" fill-rule="nonzero"><path d="m62.7 251.11 31.3-31.3 31.4 31.3zm62.7 0 31.3-31.3 31.4 31.3zm313.6 0-31.4-31.3-31.3 31.3z"/><path d="m250.8 251.11-31.3-31.3-31.4 31.3zm-188.1 0-31.4-31.3-31.4 31.3z"/></g><g fill-rule="nonzero"><path fill="none" d="m439.1 313.81-31.4-31.3 31.4-31.4z"/><path fill="#082046" d="m376.4 313.81 31.3-31.3-31.3-31.4z"/><path fill="none" d="m376.4 313.81-31.4-31.3 31.4-31.4z"/></g><path fill="#081b3f" fill-rule="nonzero" d="m250.9 313.8 31.4-31.3-31.4-31.4z"/><g fill-rule="nonzero"><path fill="#081e3f" d="m313.68 313.8 31.3-31.3-31.3-31.4z"/><path fill="none" d="m313.68 313.8-31.4-31.3 31.4-31.4zm-125.5 0 31.4-31.3-31.4-31.4zm0 0-31.3-31.3 31.3-31.4zm-125.4-62.7 31.4 31.4-31.4 31.3zm62.7 0-31.3 31.4 31.3 31.3z"/></g><g fill-rule="nonzero"><path fill="none" d="m62.8 313.82-31.4-31.3 31.4-31.4z"/><path fill="none" d="m.1 313.82 31.3-31.3-31.3-31.4z"/><path fill="none" d="m.1 313.82-31.4-31.3 31.4-31.4z"/><path fill="#081e3f" d="m376.4 188.42-31.4 31.4-31.3-31.4zm62.7 0-31.3 31.4-31.4-31.4zm-125.4 0-31.4 31.4-31.3-31.4zm-62.7 0-31.4 31.4-31.4-31.4z"/><path fill="none" d="m188.2 188.42-31.3 31.4-31.4-31.4zm-125.4 0-31.4 31.4-31.3-31.4z"/></g><path fill="none" d="m-62.7 188.4 31.4 31.4L.1 188.4zM62.788 188.43l31.3-31.3 31.4 31.3zm250.912-.03-31.4-31.3-31.4 31.3z"/><path fill="none" fill-opacity="0" fill-rule="nonzero" d="m250.9 188.43-31.3-31.3-31.4 31.3zm-62.7 0-31.4-31.3-31.3 31.3zm-125.5 0-31.3-31.3L0 188.43z"/><path fill="none" d="m-62.7 188.4 31.3-31.3L0 188.4z"/><g fill-rule="nonzero"><path fill="#081e3f" d="m376.3 62.8 31.4-31.3L439 62.8z"/><path fill="none" d="m62.7 62.8 31.4-31.3 31.3 31.3z"/><path fill="#081e3f" d="m376.3 62.8-31.4-31.3-31.3 31.3z"/><path fill="none" d="m188.2 62.8-31.4-31.3-31.4 31.3z"/><path fill="none" d="m188.1 62.8 31.4-31.3 31.4 31.3z"/></g><g fill-rule="nonzero"><path fill="none" d="m-62.7 62.8 31.3-31.3L0 62.8zm125.4 0L31.3 31.5 0 62.8z"/><path fill="#081e3f" d="m376.4 62.8 31.4 31.4 31.3-31.4z"/><path fill="none" d="m62.8 62.8 31.4 31.4 31.4-31.4z"/><path fill="none" d="m188.3 62.8-31.4 31.4-31.4-31.4z"/><path fill="#081e3f" d="m251 62.8 31.3 31.4 31.4-31.4z"/><path fill="#082046" d="m188.2 62.8 31.4 31.4L251 62.8z"/></g><g fill-rule="nonzero"><path fill="none" d="m-62.7 62.79 31.4 31.4L0 62.79z"/><path fill="#082046" d="m62.8 62.79-31.4 31.4L.1 62.79z"/><path fill="none" d="m439.1 125.49-31.3-31.3 31.3-31.4zm-188.2 0 31.4-31.3-31.4-31.4zm-62.7 0 31.4-31.3-31.4-31.4z"/><path fill="#081e3f" d="m313.7 62.79 31.3 31.4-31.3 31.3z"/><path fill="#082046" d="m125.5 62.79-31.4 31.4 31.4 31.3z"/><path fill="none" d="m125.5 62.79 31.3 31.4-31.3 31.3zm-62.8 0 31.4 31.4-31.4 31.3zm-62.7 0-31.4 31.4L0 125.49zm0 62.7 31.4-31.3L0 62.79zm62.8.1 31.4-31.3 31.3 31.3zm250.9 0-31.4-31.3-31.3 31.3zm-62.7 0-31.4-31.3-31.4 31.3zm-125.5.1 31.4-31.4 31.3 31.4zm-188.2 0 31.4-31.3 31.4 31.3zm125.5 0-31.4-31.4-31.3 31.4z"/><path fill="#081e3f" d="m439.1 125.69-31.3 31.4-31.4-31.4z"/><path fill="none" d="m62.8 125.69 31.4 31.4 31.3-31.4zm313.6 0-31.4 31.4-31.3-31.4z"/><path fill="#082046" d="m125.5 125.69 31.4 31.4 31.3-31.4z"/><path fill="none" d="m-62.7 125.69 31.4 31.4 31.4-31.4zm125.5 0-31.4 31.4-31.3-31.4z"/></g><path fill="#081b3f" fill-rule="nonzero" d="m313.7 251.5-31.4-31.3 31.4-31.4z"/><g transform="translate(407.134 187.92)"><mask id="b" fill="#fff"><use xlink:href="#a"/></mask><path fill="#081e3f" fill-rule="nonzero" d="M32 63.6.7 32.3 32 .9z" mask="url(#b)"/></g><path fill="none" d="m376.4 251.52-31.3-31.3 31.3-31.4zm-188.1-.02 31.3-31.3-31.3-31.4z"/><g fill="none" fill-opacity="0" fill-rule="nonzero"><path d="m62.88 188.82 31.3 31.4-31.3 31.3zm62.7 0-31.4 31.4 31.4 31.3z"/><path d="m125.58 188.82 31.3 31.4-31.3 31.3z"/></g><path fill="none" d="m.1 251.5 31.4-31.3L.1 188.8zm0 0-31.3-31.3L.1 188.8z"/><g fill-rule="nonzero"><path fill="none" d="m439.1 188.54-31.4-31.3 31.4-31.4zm-62.7 0-31.4-31.3 31.4-31.3z"/><path fill="#081e3f" d="m251 188.64-31.4-31.4 31.4-31.3z"/><path fill="none" d="m188.2 188.54-31.3-31.3 31.3-31.4zm-62.7 0-31.3-31.3 31.3-31.4z"/><path fill="none" d="m125.5 188.54 31.4-31.3-31.4-31.4zm-62.7-62.6 31.4 31.3-31.4 31.4z"/></g><path fill="none" d="m.1 125.9-31.4 31.4L.1 188.6zm62.7 62.7-31.4-31.3 31.4-31.4zM.1 188.4l31.3-31.3L.1 125.7z"/><path fill="none" fill-opacity="0" fill-rule="nonzero" d="m439.1 439.269-31.3-31.4-31.4 31.4zm-376.3 0 31.3-31.4 31.4 31.4zm313.6 0-31.4-31.4-31.3 31.4zm-62.7 0-31.4-31.4-31.3 31.4zm-188.2 0 31.4-31.4 31.3 31.4z"/><g fill-rule="nonzero"><path fill="none" d="m0 .11 31.4 31.4L0 62.81z"/><path fill="#082046" d="m62.8 62.81 31.3-31.3L62.8.11z"/><path fill="none" d="m62.8 62.81-31.4-31.3L62.8.11zm62.7 0-31.4-31.3L125.5.11z"/><path fill="#082046" d="m125.5.11 31.4 31.4-31.4 31.3z"/><path fill="#081e3f" d="m250.9.11 31.4 31.4-31.4 31.3zm0 0-31.3 31.4 31.3 31.3z"/><path fill="none" d="m313.7.11 31.3 31.4-31.3 31.3z"/><path fill="#082046" d="m188.2 62.81 31.4-31.3L188.2.11z"/><path fill="#081e3f" d="m188.2 62.81-31.3-31.3L188.2.11z"/><path fill="none" d="m439.1 62.81-31.3-31.3L439.1.11zM125.5.11l-31.4 31.4L62.8.11zm-188.2 0 31.4 31.4L.1.11z"/><path fill="none" d="m62.8.11-31.4 31.4L0 .11zm62.8 0 31.4 31.4L188.3.11zm125.4 0 31.4 31.4L313.8.11zm188.1 0-31.3 31.4L376.4.11zm-62.8 376.4 31.4-31.3 31.3 31.3zm-313.6 0 31.4-31.3 31.3 31.3z"/><path fill="none" d="m188.2 376.51-31.4-31.3-31.4 31.3z"/><path fill="none" d="m188.1 376.51 31.4-31.3 31.4 31.3zm-250.8 0 31.3-31.3L0 376.51zm125.4 0-31.4-31.3L0 376.51zm313.7 0 31.4 31.4 31.3-31.4zm0 0-31.3 31.4-31.4-31.4zm-188.1 0-31.4 31.4-31.4-31.4zm62.7 0 31.3 31.4 31.4-31.4z"/></g><path fill="none" d="m188.2 376.5 31.4 31.4 31.4-31.4z"/><g fill-rule="nonzero"><path fill="none" d="m-62.7 376.53 31.4 31.3L0 376.53zm125.5 0-31.4 31.3-31.3-31.3z"/><path fill="#082046" d="m376.4 439.23-31.4-31.4 31.4-31.3z"/><path fill="none" d="m376.4 439.23 31.4-31.4-31.4-31.3zm62.7 0-31.3-31.4 31.3-31.3zm-188.2 0-31.3-31.4 31.3-31.3z"/></g><path fill="none" d="m250.9 439.2 31.4-31.3-31.4-31.4z"/><g fill-rule="nonzero"><path fill="none" d="m188.224 439.23-31.4-31.4 31.4-31.3z"/><path fill="#082046" d="m313.624 376.53-31.3 31.3 31.3 31.4z"/></g><path fill="none" d="m313.7 376.5 31.3 31.4-31.3 31.3zm-188.22.03-31.4 31.3 31.4 31.4z"/><path fill="none" fill-opacity="0" fill-rule="nonzero" d="m62.7 439.251-31.3-31.4 31.3-31.3zm-62.7 0 31.4-31.4-31.4-31.3zm0-125.4 31.4 31.3-31.4 31.4zm0 0-31.3 31.3 31.3 31.4z"/><path fill="none" d="m62.8 376.5 31.3-31.3-31.3-31.4z"/><g fill-rule="nonzero"><path fill="none" d="m125.5 313.851 31.4 31.3-31.4 31.4zm125.4 0 31.4 31.3-31.4 31.4zm0 0-31.3 31.3 31.3 31.4zm62.8 0 31.3 31.3-31.3 31.4zm0 0-31.4 31.3 31.4 31.4z"/><path fill="#082046" d="m188.2 376.551 31.4-31.4-31.4-31.3z"/><path fill="none" d="m188.2 376.551-31.3-31.4 31.3-31.3z"/><path fill="#082046" d="m376.4 376.551 31.4-31.4-31.4-31.3z"/><path fill="none" d="m376.4 376.551-31.4-31.4 31.4-31.3zm62.7 0-31.3-31.4 31.3-31.3z"/></g><path fill="none" d="m125.5 313.8-31.4 31.4-31.3-31.4zm-188.212.051 31.4 31.3 31.4-31.3z"/><path fill="none" d="m62.8 313.8-31.4 31.4L0 313.8zm62.8 0 31.4 31.4 31.3-31.4z"/><g fill="none" fill-opacity="0" fill-rule="nonzero"><path d="m188.298 313.851 31.4 31.3 31.3-31.3z"/><path d="m250.998 313.851 31.4 31.3 31.4-31.3z"/><path d="m376.498 313.851-31.4 31.3-31.4-31.3z"/><path d="m439.098 313.851-31.3 31.3-31.4-31.3z"/></g><path fill="none" d="m439 501.971-31.3-31.4-31.4 31.4z"/><g fill-rule="nonzero"><path fill="#082046" d="m376.3 439.282-31.4 31.3 31.4 31.4z"/><path fill="none" d="m439 439.282-31.4 31.3 31.4 31.4z"/></g><path fill="none" d="m313.6 502 31.3-31.4-31.3-31.3z"/><path fill="none" fill-opacity="0" fill-rule="nonzero" d="m439 439.282-31.4 31.3-31.4-31.3zm-62.8 0-31.3 31.3-31.4-31.3z"/></g></svg>