<svg xmlns="http://www.w3.org/2000/svg" xmlns:xlink="http://www.w3.org/1999/xlink" width="691" height="502" viewBox="0 0 691 502"><defs><path id="a" d="M.653.92h31.366v62.693H.653z"/></defs><g fill="none" fill-rule="evenodd" opacity=".5"><path fill="none" d="m377.346 251.125-31.365 31.347-31.366-31.347z"/><path fill="none" d="m314.624 251.125-31.367 31.347-31.365-31.347z"/><path fill="#8e051c" d="m1.001 251.125 31.366 31.348 31.366-31.348z"/><path fill="#8e051c" d="m63.724 251.125 31.366 31.347 31.366-31.347z"/><path fill="none" d="m126.446 251.125 31.366 31.347 31.367-31.347z"/><path fill="none" d="m189.17 251.125 31.365 31.348 31.366-31.348z"/><path fill="none" fill-opacity="0" d="m690.959 251.127-31.367 31.347-31.365-31.347zm-313.622 0 31.365 31.347 31.366-31.347z"/><path fill="none" d="m628.237 251.127-31.366 31.347-31.367-31.347z"/><g fill="none" fill-opacity="0"><path d="m502.782 251.127 31.367 31.347 31.365-31.347z"/><path d="m502.79 251.127-31.365 31.348-31.366-31.348zm-125.443-.001-31.364-31.348-31.367 31.348z"/><path d="m314.625 251.126-31.367-31.348-31.366 31.348zm-313.624 0 31.366-31.348 31.366 31.348z"/><path d="m189.17 251.126 31.365-31.348 31.366 31.348zm501.789 0-31.367-31.346-31.365 31.346zm-313.622 0 31.365-31.348 31.366 31.348z"/></g><path fill="none" d="m628.236 251.126-31.366-31.348-31.367 31.348z"/><path fill="none" d="m502.781 251.126 31.367-31.348 31.365 31.348z"/><path fill="none" d="m502.79 251.126-31.365-31.348-31.366 31.348zM690.814 313.82l-31.364-31.347 31.364-31.348zm-689.904 0 31.368-31.347L.91 251.125z"/><path fill="#8e051c" d="m63.636 313.82-31.367-31.347 31.367-31.348z"/><path fill="none" d="m63.63 313.82 31.365-31.347-31.366-31.348z"/><path fill="#8b051b" d="m189.072 313.82-31.367-31.347 31.367-31.348z"/><path fill="#8e051c" d="m126.351 313.82-31.364-31.348 31.364-31.347z"/><path fill="none" d="m126.345 313.82 31.367-31.347-31.367-31.348zm125.445 0-31.367-31.347 31.367-31.348z"/><path fill="none" d="m251.782 313.82 31.366-31.347-31.366-31.348zm376.31-62.695 31.365 31.348-31.365 31.348zm-250.866 0-31.367 31.348 31.367 31.348z"/><path fill="none" d="m314.5 251.125 31.367 31.348-31.366 31.348zm313.6 0-31.368 31.347L628.1 313.82zm-125.444 0 31.365 31.347-31.365 31.347z"/><path fill="none" d="m502.663 251.125-31.367 31.347 31.367 31.347zM377.218 313.82l31.367-31.347-31.367-31.348z"/><path fill="none" d="m439.943 313.82-31.365-31.347 31.365-31.348z"/><path fill="none" d="m439.936 313.82 31.367-31.347-31.367-31.348z"/><path fill="#8e051c" d="m63.593 188.43 31.366 31.348 31.365-31.348z"/><path fill="#8e051c" d="m.87 188.43 31.366 31.348L63.6 188.43zm125.445 0 31.366 31.348 31.366-31.348z"/><path fill="#8e051c" d="m189.038 188.43 31.366 31.349 31.366-31.349z"/><path fill="none" d="m251.76 188.43 31.366 31.349 31.364-31.349zm439.067 0-31.367 31.35-31.365-31.349zm-313.622 0 31.367 31.348 31.365-31.348zm188.178 0-31.367 31.346-31.364-31.346z"/><path fill="none" d="m502.66 188.43-31.367 31.349-31.365-31.349z"/><path fill="none" fill-opacity="0" d="m565.372 188.43 31.367 31.348 31.367-31.348zm-188.118 0-31.365-31.347-31.362 31.347z"/><path fill="none" d="m126.333 188.43 31.365-31.347 31.365 31.347z"/><path fill="none" fill-opacity="0" d="m189.063 188.43 31.366-31.347 31.366 31.347zm62.732 0 31.365-31.347 31.366 31.347zm439.117 0-31.367-31.347-31.364 31.347zm-313.658 0 31.367-31.347 31.363 31.347zm188.193 0-31.365-31.347-31.367 31.347z"/><path fill="none" d="m502.716 188.43-31.365-31.347-31.367 31.347zM565.447 188.43l31.367-31.347 31.367 31.347z"/><path fill="#8e051c" d="M63.698 62.833 32.332 31.487.967 62.833z"/><path fill="none" d="M377.293 62.833 345.93 31.487l-31.364 31.346zm313.603.001-31.365-31.346-31.363 31.346z"/><path fill="#8e051c" d="M63.687 62.833 95.05 31.487l31.365 31.346z"/><path fill="none" d="m251.846 62.833 31.367-31.346 31.363 31.346z"/><path fill="none" d="m251.857 62.833-31.365-31.346-31.365 31.346zm313.587.001 31.367-31.346 31.367 31.346zm-62.71.002L471.37 31.488l-31.364 31.348z"/><path fill="none" d="m377.286 62.836 31.364-31.348 31.367 31.348z"/><path fill="#8e051c" d="M63.602 62.836 32.236 94.183.87 62.836z"/><path fill="none" d="m377.168 62.836-31.365 31.347-31.365-31.347zm313.632.001-31.365 31.348-31.364-31.348z"/><path fill="none" d="M251.735 62.836 283.1 94.183l31.364-31.347z"/><path fill="#8e051c" d="m189.02 62.836-31.364 31.347-31.366-31.347zm62.731 0-31.366 31.347-31.364-31.347z"/><path fill="none" d="m565.434 62.837-31.367 31.348-31.365-31.348z"/><path fill="none" d="m565.37 62.837 31.366 31.347 31.367-31.347zm-62.667 0-31.365 31.346-31.364-31.346z"/><path fill="#8e051c" d="m377.205 62.837 31.365 31.348 31.367-31.348z"/><path fill="none" d="m.87 125.53 31.366-31.346L.87 62.836zm690.04 0-31.365-31.346 31.364-31.348zm-501.847 0L157.7 94.185l31.364-31.348zm62.732 0L220.43 94.185l31.365-31.348z"/><path fill="#8e051c" d="M126.333 62.836 94.966 94.183l31.367 31.347zm188.193 0 31.364 31.347-31.364 31.347z"/><path fill="none" d="M314.526 62.836 283.16 94.183l31.367 31.347zm313.654 0 31.365 31.347-31.364 31.347zm-250.924 0-31.367 31.347 31.367 31.347zm188.194 0-31.367 31.347 31.367 31.347zm0 0 31.367 31.347-31.367 31.347zm-62.731 0 31.364 31.347-31.364 31.347zm-62.732 0 31.365 31.347-31.365 31.347zm0 62.696-31.365-31.348 31.365-31.348zm-62.774.098L345.85 94.283l-31.366 31.347zm-250.898.008 31.366-31.349 31.367 31.349z"/><path fill="none" d="m189.038 125.638 31.366-31.349 31.366 31.349zm125.452.021L283.128 94.31l-31.368 31.35zm376.337-.128L659.46 94.183l-31.365 31.348zm-62.721.204-31.367-31.347-31.364 31.347zm-125.446-.008L471.292 94.38l-31.365 31.347zm-125.455-.073 31.367-31.347 31.365 31.347z"/><path fill="#8e051c" d="m.87 125.735 31.366 31.348L63.6 125.735z"/><path fill="none" d="m377.213 125.735-31.364 31.348-31.366-31.348zm-313.621 0 31.365 31.347 31.365-31.347z"/><path fill="#8e051c" d="m314.49 125.735-31.364 31.348-31.366-31.348z"/><path fill="none" d="m690.827 125.735-31.367 31.348-31.365-31.348zm-125.446 0-31.365 31.346-31.366-31.346z"/><path fill="none" d="m565.37 125.735 31.367 31.346 31.367-31.346zm-62.712 0-31.366 31.346-31.365-31.346z"/><path fill="none" d="m377.204 125.735 31.368 31.347 31.365-31.347z"/><path fill="#8b051b" d="m126.284 251.534 31.367-31.347-31.367-31.348z"/><g transform="matrix(-1 0 0 1 32.866 187.92)"><mask id="b" fill="#fff"><use xlink:href="#a"/></mask><path fill="#8e051c" d="M32.02 63.613.653 32.266 32.02.92z" mask="url(#b)"/></g><path fill="none" d="m690.758 251.533-31.366-31.347 31.366-31.346zm-627.191.001 31.364-31.347-31.364-31.348zM251.728 251.533l-31.366-31.347 31.366-31.346z"/><g fill="none" fill-opacity="0"><path d="m628.034 188.84 31.364 31.347-31.364 31.346zm-250.868 0L345.8 220.187l31.366 31.346z"/><path d="m314.44 188.84 31.366 31.347-31.366 31.346z"/><path d="m314.447 188.84-31.367 31.347 31.367 31.346z"/></g><path fill="none" d="m565.321 188.839-31.365 31.348 31.365 31.347z"/><path fill="none" d="m502.596 188.839 31.367 31.348-31.367 31.347z"/><path fill="none" d="m439.884 251.534-31.366-31.347 31.366-31.348zm62.719-62.694-31.367 31.347 31.367 31.346z"/><path fill="none" d="m439.877 251.534 31.367-31.347-31.367-31.348zM628.039 251.534l-31.365-31.347 31.365-31.348z"/><path fill="none" d="m565.315 251.534 31.367-31.347-31.367-31.348zM.889 188.57l31.367-31.349L.889 125.874zm689.911 0-31.366-31.349 31.366-31.347zm-627.192.016 31.365-31.347-31.365-31.348z"/><path fill="#8e051c" d="m189.045 188.602 31.365-31.347-31.365-31.348z"/><path fill="none" d="m251.764 188.58 31.365-31.346-31.365-31.346zm62.716 0 31.369-31.346-31.368-31.346z"/><path fill="none" d="m314.489 188.58-31.366-31.346 31.366-31.346zm313.586-62.845 31.365 31.348-31.365 31.346zm-250.867.168L345.84 157.25l31.367 31.347zM565.363 125.92l-31.366 31.345 31.366 31.347zM502.638 125.94l31.366 31.347-31.366 31.347zm-62.718-.03 31.365 31.348-31.365 31.347z"/><path fill="none" d="m502.645 125.91-31.367 31.348 31.367 31.347zM377.2 188.618l31.369-31.347-31.37-31.348zm62.726-.188-31.366-31.347 31.366-31.347z"/><g fill="none" fill-opacity="0"><path d="m628.08 125.91-31.365 31.348 31.365 31.347z"/><path d="m565.356 188.605 31.367-31.347-31.367-31.347zM.87 439.253l31.366-31.347L63.6 439.253zm376.346 0-31.364-31.347-31.365 31.347z"/><path d="m63.593 439.253 31.366-31.346 31.365 31.346z"/><path d="m126.316 439.253 31.366-31.347 31.366 31.347zm188.178 0-31.366-31.348-31.364 31.348zm250.884.003 31.367-31.348 31.363 31.348z"/><path d="m690.832 439.256-31.364-31.348-31.367 31.348zm-125.447 0-31.364-31.348-31.367 31.348z"/></g><path fill="none" d="m628.151.129-31.364 31.346 31.364 31.348z"/><path fill="none" d="m628.149.129 31.367 31.346-31.367 31.348zm62.731.014-31.367 31.348 31.367 31.347zM502.697.136 471.33 31.484l31.367 31.347z"/><path fill="none" d="m502.694.136 31.367 31.348-31.367 31.347zm-62.726 0-31.367 31.348 31.367 31.347z"/><path fill="none" d="m439.966.136 31.364 31.348-31.364 31.347z"/><path fill="#8e051c" d="m377.24 62.846-31.365-31.348L377.24.151z"/><path fill="none" d="m377.237 62.846 31.367-31.348L377.237.151zm-62.727 0 31.369-31.348L314.51.151z"/><path fill="#8e051c" d="m314.513.129-31.366 31.346 31.366 31.348zM189.057.136 157.69 31.484l31.367 31.347z"/><path fill="#8e051c" d="m189.055.136 31.365 31.348-31.365 31.347z"/><path fill="none" d="M126.328.136 94.961 31.484l31.367 31.347z"/><path fill="#8e051c" d="m251.784 62.846-31.367-31.348L251.784.151z"/><path fill="#8e051c" d="m251.783 62.846 31.365-31.348L251.783.151z"/><path fill="none" d="m.87 62.846 31.367-31.348L.87.151zM690.83.129l-31.365 31.347L628.098.129zm-376.32 0 31.365 31.347L377.24.129zm313.588 0-31.365 31.346L565.366.129z"/><path fill="none" d="m565.407.129-31.365 31.347L502.675.129z"/><path fill="none" d="m502.676.129-31.367 31.347L439.945.129z"/><path fill="none" d="m377.227.129 31.364 31.348L439.958.129zm-62.832 0-31.364 31.346L251.665.129zm-125.422 0-31.367 31.347L126.241.129zM.87.129l31.367 31.348L63.604.129zm62.828 376.393-31.366-31.346L.967 376.522zm313.595 0-31.363-31.346-31.364 31.346zm313.603.001-31.365-31.346-31.363 31.346z"/><path fill="none" d="m251.846 376.522 31.367-31.346 31.363 31.346z"/><path fill="none" d="m251.857 376.522-31.365-31.346-31.365 31.346zm313.598.002-31.365-31.348-31.366 31.348z"/><path fill="none" d="m565.444 376.523 31.367-31.346 31.367 31.346zm-62.71.001-31.364-31.347-31.364 31.347z"/><path fill="none" d="m377.286 376.524 31.364-31.348 31.367 31.348zm-313.684 0-31.366 31.348L.87 376.524zm627.198.002-31.365 31.348-31.364-31.348z"/><path fill="none" d="m63.578 376.524 31.363 31.348 31.366-31.348zm188.157 0 31.365 31.348 31.364-31.348z"/><path fill="none" d="m189.02 376.524-31.364 31.348-31.366-31.348zM251.751 376.524l-31.366 31.348-31.364-31.348zM565.434 376.526l-31.367 31.348-31.365-31.348z"/><path fill="none" d="m565.37 376.526 31.366 31.347 31.367-31.347zm-62.667 0-31.365 31.346-31.364-31.346zm-125.498 0 31.365 31.348 31.367-31.348z"/><path fill="#8e051c" d="m63.602 439.219 31.363-31.348-31.363-31.347z"/><path fill="none" d="M63.602 439.219 32.236 407.87l31.366-31.347zM.87 439.22l31.366-31.348L.87 376.525zm690.04 0-31.365-31.348 31.364-31.347zm-501.847 0 31.366-31.348-31.366-31.347z"/><path fill="none" d="M189.063 439.22 157.7 407.871l31.364-31.347zM251.795 439.22l31.364-31.348-31.364-31.347z"/><path fill="#8e051c" d="m126.333 376.524 31.365 31.348-31.365 31.347z"/><path fill="none" d="m126.333 376.524-31.367 31.348 31.367 31.347z"/><g fill="none" fill-opacity="0"><path d="m314.526 376.524 31.364 31.348-31.364 31.347zm313.654 0 31.365 31.348-31.364 31.347z"/><path d="m628.18 376.524-31.364 31.346 31.365 31.348zm-62.73 0-31.367 31.348 31.367 31.347zm-62.731 0 31.364 31.348-31.364 31.347z"/></g><path fill="none" d="m502.719 376.524-31.367 31.348 31.367 31.347z"/><g fill="none" fill-opacity="0"><path d="m377.256 439.22 31.367-31.348-31.367-31.347z"/><path d="m439.987 439.22-31.365-31.348 31.365-31.347zm188.162-125.403 31.367 31.346-31.367 31.348zm62.731.014-31.367 31.349 31.367 31.347zm-188.186-.006 31.367 31.347-31.367 31.347zm-62.726 0-31.367 31.347 31.367 31.347z"/><path d="m439.966 313.825 31.364 31.347-31.364 31.347zM565.423 376.535l-31.367-31.348 31.367-31.348zm0 0 31.367-31.348-31.367-31.348z"/></g><path fill="none" d="m377.24 376.535-31.365-31.348 31.365-31.348zM314.513 313.817l-31.366 31.346 31.366 31.348zm-125.456.008-31.367 31.347 31.367 31.347z"/><path fill="none" d="m189.055 313.825 31.365 31.347-31.365 31.347zm-62.727 0-31.367 31.347 31.367 31.347z"/><path fill="none" d="m126.327 313.825 31.365 31.347-31.365 31.347z"/><path fill="#8e051c" d="m251.784 376.535-31.367-31.348 31.367-31.348z"/><path fill="none" d="m251.783 376.535 31.365-31.348-31.365-31.348z"/><path fill="#8e051c" d="m63.6 376.535-31.365-31.348L63.6 313.839z"/><path fill="none" d="m63.597 376.535 31.367-31.348-31.367-31.348zm-62.727 0 31.367-31.348L.87 313.839zm689.96-62.718-31.365 31.347-31.367-31.347zM314.51 313.817l31.365 31.347 31.365-31.347z"/><g fill="none" fill-opacity="0"><path d="m628.098 313.817-31.365 31.346-31.367-31.346z"/><path d="m565.407 313.817-31.365 31.347-31.367-31.347z"/><path d="m502.676 313.817-31.367 31.347-31.364-31.347z"/></g><path fill="none" d="m377.227 313.817 31.364 31.348 31.367-31.348zm-62.832 0-31.364 31.346-31.366-31.346z"/><g fill="none" fill-opacity="0"><path d="m251.704 313.817-31.366 31.347-31.365-31.347zm-62.731 0-31.367 31.347-31.365-31.347z"/><path d="m63.522 313.817 31.366 31.348 31.365-31.348z"/><path d="m.87 313.817 31.367 31.348 31.367-31.348z"/></g><path fill="none" fill-opacity="0" d="m.975 501.961 31.363-31.346 31.365 31.346z"/><path fill="#8e051c" d="m63.719 439.256 31.364 31.346-31.364 31.347z"/><path fill="none" d="m.99 439.27 31.367 31.35L.99 501.964zM126.447 501.973 95.08 470.626l31.367-31.347z"/><path fill="none" fill-opacity="0" d="m1.042 439.256 31.363 31.347 31.367-31.347zm62.731 0 31.363 31.346 31.367-31.346z"/></g></svg>