<svg xmlns="http://www.w3.org/2000/svg" xmlns:xlink="http://www.w3.org/1999/xlink" width="440" height="502" viewBox="0 0 440 502"><defs><path id="a" d="M.653.92h31.366v62.693H.653z"/></defs><g fill="none" fill-rule="evenodd" opacity=".5"><g fill-rule="nonzero"><path fill="none" d="m62.654 251.125 31.365 31.347 31.366-31.347z"/><path fill="none" d="m125.376 251.125 31.367 31.347 31.365-31.347z"/><path fill="#c9e9ef" d="m438.999 251.125-31.366 31.348-31.366-31.348z"/><path fill="#c9e9ef" d="m376.276 251.125-31.366 31.347-31.366-31.347z"/></g><path fill="none" d="m313.554 251.125-31.366 31.347-31.367-31.347z"/><path fill="none" d="m250.83 251.125-31.365 31.348-31.366-31.348zm-188.167.002-31.365 31.347-31.366-31.347z"/><g fill="none" fill-opacity="0" fill-rule="nonzero"><path d="m62.653 251.126 31.364-31.348 31.367 31.348z"/><path d="m125.375 251.126 31.367-31.348 31.366 31.348zm313.624 0-31.366-31.348-31.366 31.348z"/><path d="m250.83 251.126-31.365-31.348-31.366 31.348zm-188.167 0-31.365-31.348-31.366 31.348z"/></g><g fill-rule="nonzero"><path fill="none" d="m439.09 313.82-31.368-31.347 31.367-31.348z"/><path fill="#cadad9" d="m376.364 313.82 31.367-31.347-31.367-31.348z"/><path fill="none" d="m376.37 313.82-31.365-31.347 31.366-31.348z"/></g><path fill="#bfc4d7" fill-rule="nonzero" d="m250.928 313.82 31.367-31.347-31.367-31.348z"/><g fill-rule="nonzero"><path fill="#c9e9ef" d="m313.649 313.82 31.364-31.348-31.364-31.347z"/><path fill="none" d="m313.655 313.82-31.367-31.347 31.367-31.348zm-125.445 0 31.367-31.347-31.367-31.348z"/><path fill="none" d="m188.218 313.82-31.366-31.347 31.366-31.348zM62.774 251.125l31.367 31.348-31.367 31.348z"/><path fill="none" d="m125.5 251.125-31.367 31.348 31.366 31.348z"/></g><g fill-rule="nonzero"><path fill="none" d="m62.782 313.82-31.367-31.347 31.367-31.348z"/><path fill="none" d="m.057 313.82 31.365-31.347L.057 251.125z"/><path fill="none" d="m.064 313.82-31.367-31.347L.064 251.125z"/><path fill="#c9e9ef" d="m376.407 188.43-31.366 31.348-31.365-31.348z"/><path fill="#c9e9ef" d="m439.13 188.43-31.366 31.348L376.4 188.43zm-125.445 0-31.366 31.348-31.366-31.348z"/><path fill="#c9e9ef" d="m250.962 188.43-31.366 31.349-31.366-31.349z"/><path fill="none" d="m188.24 188.43-31.366 31.349-31.364-31.349zm-125.445 0-31.367 31.348L.063 188.43z"/></g><path fill="none" d="m-62.66 188.43 31.367 31.349L.072 188.43zM62.746 188.43l31.365-31.347 31.362 31.347zm250.921 0-31.365-31.347-31.365 31.347z"/><path fill="none" fill-opacity="0" fill-rule="nonzero" d="m250.937 188.43-31.366-31.347-31.366 31.347zm-62.732 0-31.365-31.347-31.366 31.347zm-125.459 0L31.38 157.083.016 188.43z"/><path fill="none" d="m-62.716 188.43 31.365-31.347L.016 188.43z"/><g fill-rule="nonzero"><path fill="#c9e9ef" d="m376.302 62.833 31.366-31.346 31.365 31.346z"/><path fill="none" d="M62.707 62.833 94.07 31.487l31.364 31.346z"/><path fill="#c9e9ef" d="M376.313 62.833 344.95 31.487l-31.365 31.346z"/><path fill="none" d="m188.154 62.833-31.367-31.346-31.363 31.346z"/><path fill="none" d="m188.143 62.833 31.365-31.346 31.365 31.346z"/></g><g fill-rule="nonzero"><path fill="none" d="M62.714 62.836 31.35 31.488-.017 62.836z"/><path fill="#c9e9ef" d="m376.398 62.836 31.366 31.347 31.366-31.347z"/><path fill="none" d="m62.832 62.836 31.365 31.347 31.365-31.347z"/><path fill="none" d="M188.265 62.836 156.9 94.183l-31.364-31.347z"/><path fill="#c9e9ef" d="m250.98 62.836 31.364 31.347 31.366-31.347z"/><path fill="#cadad9" d="m188.249 62.836 31.366 31.347 31.364-31.347z"/></g><g fill-rule="nonzero"><path fill="none" d="m-62.703 62.837 31.365 31.346L.026 62.837z"/><path fill="#cadad9" d="M62.795 62.837 31.43 94.185.063 62.837z"/><path fill="none" d="m439.13 125.53-31.366-31.346 31.366-31.348zm-188.193 0L282.3 94.185l-31.364-31.348zm-62.732 0 31.365-31.346-31.365-31.348z"/><path fill="#c9e9ef" d="m313.667 62.836 31.367 31.347-31.367 31.347z"/><path fill="#cadad9" d="M125.474 62.836 94.11 94.183l31.364 31.347z"/><path fill="none" d="m125.474 62.836 31.367 31.347-31.367 31.347zm-62.73 0 31.367 31.347-31.367 31.347zm-62.731 0-31.365 31.347L.013 125.53zm0 62.696 31.365-31.348L.013 62.836zm62.774.098L94.15 94.283l31.366 31.347zm250.898.008-31.366-31.349-31.367 31.349z"/><path fill="none" d="m250.962 125.638-31.366-31.349-31.366 31.349zm-125.452.021 31.363-31.349 31.367 31.349zm-188.17.068 31.367-31.347L.072 125.727zm125.455-.073L31.428 94.307.063 125.654z"/><path fill="#c9e9ef" d="m439.13 125.735-31.366 31.348-31.365-31.348z"/><path fill="none" d="m62.787 125.735 31.364 31.348 31.366-31.348zm313.621 0-31.365 31.347-31.365-31.347z"/><path fill="#cadad9" d="m125.51 125.735 31.364 31.348 31.366-31.348z"/><path fill="none" d="m-62.658 125.735 31.366 31.346L.073 125.735z"/><path fill="none" d="m62.796 125.735-31.368 31.347L.063 125.735z"/></g><path fill="#bfc4d7" fill-rule="nonzero" d="m313.716 251.534-31.367-31.347 31.367-31.348z"/><g transform="translate(407.134 187.92)"><mask id="b" fill="#fff"><use xlink:href="#a"/></mask><path fill="#c9e9ef" fill-rule="nonzero" d="M32.02 63.613.653 32.266 32.02.92z" mask="url(#b)"/></g><path fill="none" d="m376.433 251.534-31.364-31.347 31.364-31.348zm-188.161-.001 31.366-31.347-31.366-31.346z"/><g fill="none" fill-opacity="0" fill-rule="nonzero"><path d="M62.834 188.84 94.2 220.187l-31.366 31.346z"/><path d="m125.56 188.84-31.366 31.347 31.366 31.346z"/><path d="m125.553 188.84 31.367 31.347-31.367 31.346z"/></g><path fill="none" d="m.116 251.534 31.366-31.347L.116 188.839z"/><path fill="none" d="m.123 251.534-31.367-31.347L.123 188.839z"/><g fill-rule="nonzero"><path fill="none" d="m439.111 188.57-31.367-31.349 31.367-31.347zm-62.719.016-31.365-31.347 31.365-31.348z"/><path fill="#c9e9ef" d="m250.955 188.602-31.365-31.347 31.365-31.348z"/><path fill="none" d="m188.236 188.58-31.365-31.346 31.365-31.346zm-62.716 0-31.37-31.345 31.368-31.346z"/><path fill="none" d="m125.511 188.58 31.366-31.346-31.366-31.346zm-62.719-62.677L94.16 157.25l-31.367 31.347z"/></g><path fill="none" d="m.08 125.91-31.365 31.348L.079 188.605zm62.72 62.708-31.369-31.347 31.37-31.348z"/><path fill="none" d="m.074 188.43 31.366-31.347L.074 125.736z"/><g fill="none" fill-opacity="0" fill-rule="nonzero"><path d="m439.13 439.253-31.366-31.347-31.365 31.347zm-376.346 0 31.364-31.347 31.365 31.347z"/><path d="m376.407 439.253-31.366-31.346-31.365 31.346z"/><path d="m313.684 439.253-31.366-31.347-31.366 31.347zm-188.178 0 31.366-31.348 31.364 31.348z"/></g><g fill-rule="nonzero"><path fill="none" d="m.032.136 31.367 31.348L.032 62.83z"/><path fill="none" d="M.034.136-31.33 31.484.034 62.83z"/><path fill="#cadad9" d="m62.76 62.846 31.365-31.348L62.76.151z"/><path fill="none" d="M62.763 62.846 31.396 31.498 62.763.151zm62.727 0L94.12 31.498 125.49.151z"/><path fill="#cadad9" d="m125.487.129 31.366 31.346-31.366 31.348z"/><path fill="#c9e9ef" d="m250.943.136 31.367 31.348-31.367 31.347z"/><path fill="#c9e9ef" d="M250.945.136 219.58 31.484l31.365 31.347z"/><path fill="none" d="m313.672.136 31.367 31.348-31.367 31.347z"/><path fill="#cadad9" d="m188.216 62.846 31.367-31.348L188.216.151z"/><path fill="#c9e9ef" d="m188.217 62.846-31.365-31.348L188.217.151z"/><path fill="none" d="m439.13 62.846-31.367-31.348L439.13.151zM125.49.129 94.124 31.476 62.76.129zm-188.166 0 31.367 31.347L.055.129z"/><path fill="none" d="M62.773.129 31.41 31.477.042.129zm62.832 0 31.364 31.346L188.335.129zm125.422 0 31.367 31.347L313.759.129zm188.103 0-31.367 31.348L376.396.129zm-62.828 376.393 31.366-31.346 31.365 31.346zm-313.595 0 31.363-31.346 31.364 31.346z"/><path fill="none" d="m188.154 376.522-31.367-31.346-31.363 31.346z"/><path fill="none" d="m188.143 376.522 31.365-31.346 31.365 31.346zm-125.429.002L31.35 345.176-.017 376.524zm313.684 0 31.366 31.348 31.366-31.348z"/><path fill="none" d="m376.422 376.524-31.363 31.348-31.366-31.348zm-188.157 0L156.9 407.872l-31.364-31.348z"/><path fill="none" d="m250.98 376.524 31.364 31.348 31.366-31.348z"/></g><path fill="none" d="m188.249 376.524 31.366 31.348 31.364-31.348z"/><g fill-rule="nonzero"><path fill="none" d="m-62.703 376.526 31.365 31.346L.026 376.526zm125.498 0L31.43 407.874.063 376.526z"/><path fill="#cadad9" d="m376.398 439.219-31.363-31.348 31.363-31.347z"/><path fill="none" d="m376.398 439.219 31.366-31.348-31.366-31.347zm62.732.001-31.366-31.348 31.366-31.347zm-188.193 0-31.366-31.348 31.366-31.347z"/></g><path fill="none" d="m250.937 439.22 31.364-31.348-31.364-31.347z"/><g fill-rule="nonzero"><path fill="none" d="m188.205 439.22-31.364-31.348 31.364-31.347z"/><path fill="#cadad9" d="m313.667 376.524-31.365 31.348 31.365 31.347z"/></g><path fill="none" d="m313.667 376.524 31.367 31.348-31.367 31.347zm-188.193 0L94.11 407.872l31.364 31.347z"/><g fill="none" fill-opacity="0" fill-rule="nonzero"><path d="m62.744 439.22-31.367-31.348 31.367-31.347z"/><path d="m.013 439.22 31.365-31.348L.013 376.525zm.019-125.395 31.367 31.347L.032 376.519z"/><path d="m.034 313.825-31.364 31.347L.034 376.519z"/></g><path fill="none" d="m62.76 376.535 31.365-31.348-31.365-31.348z"/><g fill-rule="nonzero"><path fill="none" d="m125.487 313.817 31.366 31.346-31.366 31.348zm125.456.008 31.367 31.347-31.367 31.347z"/><path fill="none" d="m250.945 313.825-31.365 31.347 31.365 31.347zm62.727 0 31.367 31.347-31.367 31.347z"/><path fill="none" d="m313.673 313.825-31.365 31.347 31.365 31.347z"/><path fill="#cadad9" d="m188.216 376.535 31.367-31.348-31.367-31.348z"/><path fill="none" d="m188.217 376.535-31.365-31.348 31.365-31.348z"/><path fill="#cadad9" d="m376.4 376.535 31.365-31.348-31.365-31.348z"/><path fill="none" d="m376.403 376.535-31.367-31.348 31.367-31.348zm62.727 0-31.367-31.348 31.367-31.348z"/></g><path fill="none" d="m125.49 313.817-31.365 31.347-31.365-31.347zm-188.166 0 31.367 31.347L.055 313.817z"/><path fill="none" d="M62.773 313.817 31.41 345.165.042 313.817zm62.832 0 31.364 31.346 31.366-31.346z"/><g fill="none" fill-opacity="0" fill-rule="nonzero"><path d="m188.296 313.817 31.366 31.347 31.365-31.347zm62.731 0 31.367 31.347 31.365-31.347z"/><path d="m376.478 313.817-31.366 31.348-31.365-31.348z"/><path d="m439.13 313.817-31.367 31.348-31.367-31.348z"/></g><path fill="none" d="m439.025 501.961-31.363-31.346-31.365 31.346z"/><g fill-rule="nonzero"><path fill="#cadad9" d="m376.281 439.256-31.364 31.346 31.364 31.347z"/><path fill="none" d="m439.01 439.27-31.367 31.35 31.367 31.345z"/></g><path fill="none" d="m313.553 501.973 31.367-31.347-31.367-31.347z"/><path fill="none" fill-opacity="0" fill-rule="nonzero" d="m438.958 439.256-31.363 31.347-31.367-31.347zm-62.731 0-31.363 31.346-31.367-31.346z"/></g></svg>