<svg xmlns="http://www.w3.org/2000/svg" xmlns:xlink="http://www.w3.org/1999/xlink" width="1130" height="252" viewBox="0 0 1130 252"><defs><path id="a" d="M.653.92h31.366v62.693H.653z"/><path id="c" d="M.653.92h31.366v62.693H.653z"/></defs><g fill="none" fill-rule="evenodd" opacity=".5"><path fill="none" d="m941.347 251.126-31.364-31.348-31.367 31.348z"/><path fill="#0a1c37" d="m878.625 251.126-31.367-31.348-31.366 31.348z"/><path fill="none" d="m565.001 251.126 31.366-31.348 31.366 31.348zm188.169 0 31.365-31.348 31.366 31.348zm188.167 0 31.365-31.348 31.366 31.348zm125.444 0 31.367-31.348 31.365 31.348z"/><path fill="#0a1c37" d="m1066.79 251.126-31.365-31.348-31.366 31.348zM627.593 188.43l31.366 31.348 31.366-31.348z"/><path fill="none" d="m564.87 188.43 31.366 31.348L627.6 188.43zm125.445 0 31.366 31.348 31.366-31.348z"/><path fill="#0a1c37" d="m753.038 188.43 31.366 31.349 31.366-31.349z"/><path fill="none" d="m815.76 188.43 31.366 31.349 31.364-31.349zm125.445 0 31.367 31.348 31.365-31.348zm188.178 0-31.367 31.346-31.364-31.346z"/><path fill="#0a1c37" d="m1066.66 188.43-31.367 31.349-31.365-31.349z"/><path fill="none" d="m941.254 188.43-31.365-31.347-31.362 31.347zm-250.921 0 31.365-31.347 31.365 31.347zm62.73 0 31.366-31.347 31.366 31.347z"/><path fill="#0a1c37" d="m815.795 188.43 31.365-31.347 31.366 31.347z"/><path fill="none" d="m941.254 188.43 31.367-31.347 31.363 31.347zm188.193 0-31.365-31.347-31.367 31.347z"/><path fill="none" d="m1066.716 188.43-31.365-31.347-31.367 31.347zM941.293 62.833 909.93 31.487l-31.364 31.346z"/><path fill="#0a1c37" d="m627.687 62.833 31.364-31.346 31.365 31.346z"/><path fill="none" d="m815.846 62.833 31.367-31.346 31.363 31.346z"/><path fill="none" d="m815.857 62.833-31.365-31.346-31.365 31.346zM1129.455 62.836l-31.365-31.348-31.366 31.348z"/><path fill="none" d="m1066.734 62.836-31.364-31.348-31.364 31.348z"/><path fill="none" d="m941.286 62.836 31.364-31.348 31.367 31.348z"/><path fill="#0a1c37" d="m627.602 62.836-31.366 31.347-31.366-31.347z"/><path fill="none" d="m941.168 62.836-31.365 31.347-31.365-31.347z"/><path fill="none" d="M815.735 62.836 847.1 94.183l31.364-31.347z"/><path fill="#0a1c37" d="m753.02 62.836-31.364 31.347-31.366-31.347zm62.731 0-31.366 31.347-31.364-31.347z"/><path fill="none" d="m1129.434 62.837-31.367 31.348-31.365-31.348z"/><path fill="none" d="m1066.703 62.837-31.365 31.346-31.364-31.346z"/><path fill="#0a1c37" d="m627.602 125.53-31.366-31.347 31.366-31.347z"/><path fill="none" d="m564.87 125.53 31.366-31.346-31.366-31.348zm188.193 0L721.7 94.185l31.364-31.348zm62.732 0L784.43 94.185l31.365-31.348z"/><path fill="#0a1c37" d="m690.333 62.836-31.367 31.347 31.367 31.347z"/><path fill="none" d="m878.526 62.836 31.364 31.347-31.364 31.347z"/><path fill="none" d="M878.526 62.836 847.16 94.183l31.367 31.347zm62.73 0-31.367 31.347 31.367 31.347zm188.194 0-31.367 31.347 31.367 31.347zm-62.731 0 31.364 31.347-31.364 31.347zM1066.719 62.836l-31.367 31.347 31.367 31.347zM1003.987 62.836l31.365 31.347-31.365 31.347z"/><path fill="none" d="m1003.987 125.532-31.365-31.348 31.365-31.348zm-62.774.098L909.85 94.283l-31.366 31.347z"/><path fill="#0a1c37" d="m690.315 125.638 31.366-31.349 31.367 31.349z"/><path fill="none" d="m753.038 125.638 31.366-31.349 31.366 31.349zm125.452.021L847.128 94.31l-31.368 31.35zm188.17.068-31.367-31.347-31.365 31.347zm-125.455-.073 31.367-31.347 31.365 31.347z"/><path fill="#0a1c37" d="m564.87 125.735 31.366 31.348 31.365-31.348z"/><path fill="none" d="m941.213 125.735-31.364 31.348-31.366-31.348zm-313.621 0 31.365 31.347 31.365-31.347z"/><path fill="#0a1c37" d="m878.49 125.735-31.364 31.348-31.366-31.348z"/><path fill="none" d="m1129.381 125.735-31.365 31.346-31.366-31.346z"/><path fill="none" d="m1066.658 125.735-31.366 31.346-31.365-31.346z"/><path fill="none" d="m941.204 125.735 31.368 31.347 31.365-31.347z"/><path fill="#0a1a37" d="m690.284 251.534 31.367-31.347-31.367-31.348z"/><g transform="matrix(-1 0 0 1 596.866 187.92)"><mask id="b" fill="#fff"><use xlink:href="#a"/></mask><path fill="#0a1c37" d="M32.02 63.613.653 32.266 32.02.92z" mask="url(#b)"/></g><path fill="none" d="m627.573 251.534-31.367-31.347 31.367-31.348z"/><path fill="none" d="m627.567 251.534 31.364-31.347-31.364-31.348zM815.728 251.533l-31.366-31.347 31.366-31.346zM941.166 188.84 909.8 220.187l31.366 31.346z"/><path fill="#0a1c37" d="m878.44 188.84 31.366 31.347-31.366 31.346z"/><path fill="none" d="m878.447 188.84-31.367 31.347 31.367 31.346zM1129.321 188.839l-31.365 31.348 31.365 31.347z"/><path fill="none" d="m1066.596 188.839 31.367 31.348-31.367 31.347z"/><path fill="none" d="m1003.884 251.534-31.366-31.347 31.366-31.348zm62.719-62.694-31.367 31.347 31.367 31.346z"/><path fill="none" d="m1003.877 251.534 31.367-31.347-31.367-31.348zM564.889 188.57l31.367-31.349-31.367-31.347zm62.719.016 31.365-31.347-31.365-31.348z"/><path fill="#0a1c37" d="m753.045 188.602 31.365-31.347-31.365-31.348z"/><path fill="none" d="m815.764 188.58 31.365-31.346-31.365-31.346zm62.716 0 31.369-31.346-31.368-31.346z"/><path fill="none" d="m878.489 188.58-31.366-31.346 31.366-31.346zm62.719-62.677L909.84 157.25l31.367 31.347zM1129.363 125.92l-31.366 31.345 31.366 31.347zM1066.638 125.94l31.366 31.347-31.366 31.347zm-62.718-.03 31.365 31.348-31.365 31.347z"/><path fill="none" d="m1066.645 125.91-31.367 31.348 31.367 31.347zM941.2 188.618l31.369-31.347-31.37-31.348zm62.726-.188-31.366-31.347 31.366-31.347zM1066.697.136l-31.367 31.348 31.367 31.347z"/><path fill="none" d="m1066.694.136 31.367 31.348-31.367 31.347zm-62.726 0-31.367 31.348 31.367 31.347z"/><path fill="none" d="m1003.966.136 31.364 31.348-31.364 31.347zM1129.423 62.846l-31.367-31.348L1129.423.151zm-188.183 0-31.365-31.348L941.24.151z"/><path fill="none" d="m941.237 62.846 31.367-31.348L941.237.151zm-62.727 0 31.369-31.348L878.51.151z"/><path fill="none" d="m878.513.129-31.366 31.346 31.366 31.348zM753.057.136 721.69 31.484l31.367 31.347z"/><path fill="#0a1c37" d="m753.055.136 31.365 31.348-31.365 31.347z"/><path fill="none" d="m690.328.136-31.367 31.348 31.367 31.347zM815.784 62.846l-31.367-31.348L815.784.151z"/><path fill="none" d="m815.783 62.846 31.365-31.348L815.783.151zM564.87 62.846l31.367-31.348L564.87.151zM878.51.129l31.365 31.347L941.24.129zm250.897 0-31.365 31.347L1066.675.129z"/><path fill="none" d="m1066.676.129-31.367 31.347L1003.945.129z"/><path fill="none" d="m941.227.129 31.364 31.348L1003.958.129zm-62.832 0-31.364 31.346L815.665.129z"/><path fill="none" d="m815.704.129-31.366 31.347L752.973.129zM752.973.129l-31.367 31.347L690.241.129zm-188.103 0 31.367 31.348L627.604.129z"/><g fill="none" fill-opacity="0"><path d="m188.653 251.126 31.364-31.348 31.367 31.348z"/><path d="m251.375 251.126 31.367-31.348 31.366 31.348zm313.624 0-31.366-31.348-31.366 31.348z"/><path d="m376.83 251.126-31.365-31.348-31.366 31.348zm-188.167 0-31.365-31.348-31.366 31.348z"/></g><path fill="none" d="m63.219 251.126-31.367-31.348L.487 251.126z"/><path fill="#0a1c37" d="m63.21 251.126 31.365-31.348 31.366 31.348zm439.197-62.696-31.366 31.348-31.365-31.348z"/><path fill="none" d="m439.685 188.43-31.366 31.348-31.366-31.348z"/><path fill="#0a1c37" d="m376.962 188.43-31.366 31.349-31.366-31.349z"/><path fill="none" d="m314.24 188.43-31.366 31.349-31.364-31.349zm-125.445 0-31.367 31.348-31.365-31.348zm-188.178 0 31.367 31.346 31.364-31.346z"/><path fill="none" d="m63.34 188.43 31.367 31.349 31.365-31.349zm125.406 0 31.365-31.347 31.362 31.347zM439.667 188.43l-31.365-31.347-31.365 31.347z"/><path fill="none" d="m376.937 188.43-31.366-31.347-31.366 31.347z"/><path fill="#0a1c37" d="m314.205 188.43-31.365-31.347-31.366 31.347zm-125.459 0-31.367-31.347-31.363 31.347z"/><path fill="none" d="m.553 188.43 31.365-31.347 31.367 31.347z"/><path fill="none" d="m63.284 188.43 31.365-31.347 31.367 31.347z"/><path fill="#0a1c37" d="m502.302 62.833 31.366-31.346 31.365 31.346z"/><path fill="none" d="m188.707 62.833 31.363-31.346 31.364 31.346z"/><path fill="#0a1c37" d="M502.313 62.833 470.95 31.487l-31.365 31.346z"/><path fill="none" d="m314.154 62.833-31.367-31.346-31.363 31.346z"/><path fill="none" d="m314.143 62.833 31.365-31.346 31.365 31.346zM.545 62.836 31.91 31.488l31.366 31.348z"/><path fill="none" d="M63.266 62.836 94.63 31.488l31.364 31.348z"/><path fill="none" d="M188.714 62.836 157.35 31.488l-31.367 31.348zm.118 0 31.365 31.347 31.365-31.347z"/><path fill="none" d="M314.265 62.836 282.9 94.183l-31.364-31.347z"/><path fill="#0a1c37" d="m376.98 62.836 31.364 31.347 31.366-31.347zm-62.731 0 31.366 31.347 31.364-31.347z"/><path fill="none" d="m.566 62.837 31.367 31.348 31.365-31.348z"/><path fill="none" d="m63.297 62.837 31.365 31.346 31.364-31.346zM188.795 62.837 157.43 94.185l-31.367-31.348z"/><path fill="#0a1c37" d="m502.398 125.53 31.366-31.347-31.366-31.347z"/><path fill="none" d="m565.13 125.53-31.366-31.346 31.366-31.348zm-188.193 0L408.3 94.185l-31.364-31.348zm-62.732 0 31.365-31.346-31.365-31.348z"/><path fill="#0a1c37" d="m439.667 62.836 31.367 31.347-31.367 31.347z"/><path fill="none" d="M251.474 62.836 220.11 94.183l31.364 31.347z"/><path fill="none" d="m251.474 62.836 31.367 31.347-31.367 31.347zm-62.73 0 31.367 31.347-31.367 31.347zm-188.194 0 31.367 31.347L.55 125.53zm62.731 0L31.917 94.183 63.28 125.53zm62.732 0L94.648 94.183l31.365 31.347zm0 62.696 31.365-31.348-31.365-31.348zm62.774.098 31.364-31.347 31.366 31.347zm250.898.008-31.366-31.349-31.367 31.349z"/><path fill="none" d="m376.962 125.638-31.366-31.349-31.366 31.349zm-125.452.021 31.363-31.349 31.367 31.349zm-188.17.068L94.707 94.38l31.365 31.347z"/><path fill="#0a1c37" d="m565.13 125.735-31.366 31.348-31.365-31.348z"/><path fill="none" d="m188.787 125.735 31.364 31.348 31.366-31.348zm313.621 0-31.365 31.347-31.365-31.347z"/><path fill="none" d="m251.51 125.735 31.364 31.348 31.366-31.348zM.619 125.735l31.365 31.346 31.366-31.346z"/><path fill="none" d="m63.342 125.735 31.366 31.346 31.365-31.346z"/><path fill="none" d="m188.796 125.735-31.368 31.347-31.365-31.347z"/><path fill="#0a1a37" d="m439.716 251.534-31.367-31.347 31.367-31.348z"/><g transform="translate(533.134 187.92)"><mask id="d" fill="#fff"><use xlink:href="#c"/></mask><path fill="#0a1c37" d="M32.02 63.613.653 32.266 32.02.92z" mask="url(#d)"/></g><path fill="#0a1c37" d="m502.427 251.534 31.367-31.347-31.367-31.348z"/><path fill="none" d="m502.433 251.534-31.364-31.347 31.364-31.348zM314.272 251.533l31.366-31.347-31.366-31.346z"/><g fill="none" fill-opacity="0"><path d="m188.834 188.84 31.366 31.347-31.366 31.346z"/><path d="m251.56 188.84-31.366 31.347 31.366 31.346z"/><path d="m251.553 188.84 31.367 31.347-31.367 31.346z"/></g><path fill="none" d="m.679 188.839 31.365 31.348L.68 251.534zm125.437 62.695 31.366-31.347-31.366-31.348zM63.397 188.84l31.367 31.347-31.367 31.346z"/><path fill="none" d="m126.123 251.534-31.367-31.347 31.367-31.348zM565.111 188.57l-31.367-31.349 31.367-31.347zm-62.719.016-31.365-31.347 31.365-31.348z"/><path fill="#0a1c37" d="m376.955 188.602-31.365-31.347 31.365-31.348z"/><path fill="none" d="m314.236 188.58-31.365-31.346 31.365-31.346zm-62.716 0-31.369-31.346 31.368-31.346z"/><path fill="none" d="m251.511 188.58 31.366-31.346-31.366-31.346zm-62.719-62.677 31.367 31.347-31.367 31.347zM.637 125.92l31.366 31.345L.637 188.612zM63.362 125.94l-31.366 31.347 31.366 31.347zm62.718-.03-31.365 31.348 31.364 31.347z"/><path fill="none" d="m63.355 125.91 31.367 31.348-31.367 31.347zM188.8 188.618l-31.369-31.347 31.37-31.348zm-62.726-.188 31.366-31.347-31.366-31.347zM63.303.136 94.67 31.484 63.303 62.83z"/><path fill="none" d="M63.306.136 31.939 31.484 63.306 62.83zm62.726 0 31.367 31.348-31.367 31.347z"/><path fill="none" d="M126.034.136 94.67 31.484l31.364 31.347zM.577 62.846l31.367-31.348L.577.151zm188.183 0 31.365-31.348L188.76.151z"/><path fill="none" d="m188.763 62.846-31.367-31.348L188.763.151zm62.727 0-31.37-31.348L251.49.151z"/><path fill="none" d="m251.487.129 31.366 31.346-31.366 31.348z"/><path fill="#0a1c37" d="m376.943.136 31.367 31.348-31.367 31.347z"/><path fill="#0a1c37" d="M376.945.136 345.58 31.484l31.365 31.347z"/><path fill="none" d="m439.672.136 31.367 31.348-31.367 31.347z"/><path fill="#0a1c37" d="m314.216 62.846 31.367-31.348L314.216.151z"/><path fill="none" d="m314.217 62.846-31.365-31.348L314.217.151z"/><path fill="#0a1c37" d="m565.13 62.846-31.367-31.348L565.13.151z"/><path fill="none" d="m251.49.129-31.365 31.347L188.76.129zM.593.129l31.365 31.347L63.325.129z"/><path fill="none" d="m63.324.129 31.367 31.347L126.055.129z"/><path fill="none" d="M188.773.129 157.41 31.477 126.042.129zm62.832 0 31.364 31.346L314.335.129z"/><path fill="none" d="m314.296.129 31.366 31.347L377.027.129zM377.027.129l31.367 31.347L439.759.129zm188.103 0-31.367 31.348L502.396.129z"/></g></svg>