<svg xmlns="http://www.w3.org/2000/svg" viewBox="0 0 72.5 63.8"><defs><clipPath id="a"><path fill="none" d="M72.6.1-3.1-.2l.3 63.3 75.6.3"/></clipPath></defs><g clip-path="url(#a)"><path fill="none" stroke="#83d2e2" stroke-miterlimit="10" stroke-width=".1" d="m36.5 9.1-9.1-9-9 9zm18 0-9-9-9 9zm18 0-9-9-9 9zm-27 9-9-9-9.1 9zm18 0-9-9-9 9zm9-9-9 9m-27 9-9.1-9-9 9zm18 0-9-9-9 9zm18 0-9-9-9 9zm-63.1 9L5 31.6.5 36.1zM27.4 36.1l-9-9-9 9zm18.1 0-9-9-9.1 9zm18 0-9-9-9 9zm9-9-9 9m-27 9-9.1-9-9 9zm18 0-9-9-9 9zm18 0-9-9-9 9zm-27 9-9-9-9.1 9zm18 0-9-9-9 9zm9-9-9 9m-45 9-4.6-4.5-4.5 4.5z"/><path fill="none" stroke="#83d2e2" stroke-miterlimit="10" stroke-width=".1" d="m36.5 63.1-9.1-9-9 9zm14.2-3.8-5.2-5.2-5.3 5.2zm21.8 3.8-9-9-9 9z"/><path fill="none" stroke="#83d2e2" stroke-miterlimit="10" stroke-width=".1" d="m13.9 58.6-4.5-4.5-4.5 4.5z" opacity=".96"/><path fill="#b5bdc0" d="m9.4 72.1-8.9-9-9.1 9z"/></g></svg>