<?xml version="1.0" encoding="UTF-8"?>
<svg id="Layer_2" data-name="Layer 2" xmlns="http://www.w3.org/2000/svg" viewBox="0 0 737.6 737.6">
  <defs>
    <style>
      .cls-1-solid-cactus-white-bg {
        fill: none;
      }

      .cls-2-solid-cactus-white-bg {
        fill: #fff;
      }
    </style>
  </defs>
  <g>
    <g>
      <path class="cls-1-solid-cactus-white-bg" d="M715.5,669.76c.89-1.8,1.73-3.63,2.52-5.49.84-1.98,1.61-3.98,2.32-6-.71,2.02-1.48,4.02-2.32,6-.79,1.86-1.63,3.69-2.52,5.49Z"/>
      <path class="cls-1-solid-cactus-white-bg" d="M715.47,669.81c-.38.77-.78,1.54-1.18,2.3.4-.76.8-1.53,1.18-2.3Z"/>
      <path class="cls-2-solid-cactus-white-bg" d="M725.95,112.64c0-13.64-2.67-26.86-7.93-39.31-5.09-12.02-12.37-22.82-21.64-32.1-9.28-9.28-20.08-16.56-32.1-21.64-12.45-5.26-25.67-7.93-39.31-7.93H112.64c-13.64,0-26.86,2.67-39.31,7.93-12.02,5.09-22.82,12.37-32.1,21.64-9.28,9.28-16.56,20.08-21.64,32.1-5.26,12.45-7.93,25.67-7.93,39.31v512.32c0,13.64,2.67,26.86,7.93,39.31,5.09,12.02,12.37,22.82,21.64,32.1,9.28,9.28,20.08,16.56,32.1,21.64,12.45,5.26,25.67,7.93,39.31,7.93h201.95v-28.33h-15.31c-3.22,0-5.83-2.61-5.83-5.83s2.61-5.83,5.83-5.83h15.31v-29.47h-15.31c-3.22,0-5.83-2.61-5.83-5.83s2.61-5.83,5.83-5.83h15.31v-25.7c-18.61-.53-36.67-4.44-53.74-11.67-17.77-7.52-33.73-18.28-47.43-31.98-13.7-13.7-24.46-29.66-31.98-47.43-2.77-6.55-5.05-13.25-6.85-20.07h-20.19c-3.22,0-5.83-2.61-5.83-5.83s2.61-5.83,5.83-5.83h17.62c-1.54-8.64-2.31-17.44-2.31-26.36v-3.11h-15.31c-3.22,0-5.83-2.61-5.83-5.83s2.61-5.83,5.83-5.83h15.31v-29.47h-15.31c-3.22,0-5.83-2.61-5.83-5.83s2.61-5.83,5.83-5.83h15.31v-29.47h-15.31c-3.22,0-5.83-2.61-5.83-5.83s2.61-5.83,5.83-5.83h15.74c2.81-18.53,18.84-32.77,38.14-32.77,21.27,0,38.57,17.3,38.57,38.57v2.19h15.31c3.22,0,5.83,2.61,5.83,5.83s-2.61,5.83-5.83,5.83h-15.31v29.47h15.31c3.22,0,5.83,2.61,5.83,5.83s-2.61,5.83-5.83,5.83h-15.31v19.72c0,19.26,7.5,37.36,21.11,50.97,12.59,12.59,29.01,19.94,46.63,20.98v-33.41h-15.31c-3.22,0-5.83-2.61-5.83-5.83s2.61-5.83,5.83-5.83h15.31v-29.47h-15.31c-3.22,0-5.83-2.61-5.83-5.83s2.61-5.83,5.83-5.83h15.31v-29.47h-15.31c-3.22,0-5.83-2.61-5.83-5.83s2.61-5.83,5.83-5.83h15.31v-29.47h-15.31c-3.22,0-5.83-2.61-5.83-5.83s2.61-5.83,5.83-5.83h15.31v-29.47h-15.31c-3.22,0-5.83-2.61-5.83-5.83s2.61-5.83,5.83-5.83h15.31v-29.47h-15.31c-3.22,0-5.83-2.61-5.83-5.83s2.61-5.83,5.83-5.83h15.31v-29.47h-15.31c-3.22,0-5.83-2.61-5.83-5.83s2.61-5.83,5.83-5.83h15.31v-29.47h-15.31c-3.22,0-5.83-2.61-5.83-5.83s2.61-5.83,5.83-5.83h15.61c1.31-12.47,6.79-24.04,15.79-33.03,10.38-10.38,24.18-16.09,38.85-16.09s28.48,5.72,38.85,16.09,16.09,24.18,16.09,38.85v14.74h15.31c3.22,0,5.83,2.61,5.83,5.83s-2.61,5.83-5.83,5.83h-15.31v29.47h15.31c3.22,0,5.83,2.61,5.83,5.83s-2.61,5.83-5.83,5.83h-15.31v29.47h15.31c3.22,0,5.83,2.61,5.83,5.83s-2.61,5.83-5.83,5.83h-15.31v29.47h15.31c3.22,0,5.83,2.61,5.83,5.83s-2.61,5.83-5.83,5.83h-15.31v29.47h15.31c3.22,0,5.83,2.61,5.83,5.83s-2.61,5.83-5.83,5.83h-15.31v29.47h15.31c3.22,0,5.83,2.61,5.83,5.83s-2.61,5.83-5.83,5.83h-15.31v29.47h15.31c3.22,0,5.83,2.61,5.83,5.83s-2.61,5.83-5.83,5.83h-15.31v19.59c17.06-1.36,32.91-8.65,45.15-20.88,13.62-13.62,21.11-31.72,21.11-50.97v-9.43h-15.31c-3.22,0-5.83-2.61-5.83-5.83s2.61-5.83,5.83-5.83h15.31v-29.47h-15.31c-3.22,0-5.83-2.61-5.83-5.83s2.61-5.83,5.83-5.83h15.31v-29.47h-15.31c-3.22,0-5.83-2.61-5.83-5.83s2.61-5.83,5.83-5.83h15.31v-17.19c0-21.27,17.3-38.57,38.57-38.57,20.13,0,36.71,15.5,38.42,35.2h15.46c3.22,0,5.83,2.61,5.83,5.83s-2.61,5.83-5.83,5.83h-15.31v29.47h15.31c3.22,0,5.83,2.61,5.83,5.83s-2.61,5.83-5.83,5.83h-15.31v29.47h15.31c3.22,0,5.83,2.61,5.83,5.83s-2.61,5.83-5.83,5.83h-15.31v29.47h15.31c3.22,0,5.83,2.61,5.83,5.83s-2.61,5.83-5.83,5.83h-15.31v5.39c0,8.14-.64,16.18-1.93,24.09h14.24c3.22,0,5.83,2.61,5.83,5.83s-2.61,5.83-5.83,5.83h-16.61c-1.87,7.61-4.35,15.07-7.43,22.35-7.52,17.77-18.28,33.73-31.98,47.43-13.7,13.7-29.66,24.46-47.43,31.98-16.62,7.03-34.18,10.93-52.26,11.62v32.61h15.31c3.22,0,5.83,2.61,5.83,5.83s-2.61,5.83-5.83,5.83h-15.31v29.47h15.31c3.22,0,5.83,2.61,5.83,5.83s-2.61,5.83-5.83,5.83h-15.31v55.75h200.48c13.64,0,26.86-2.67,39.31-7.93,12.02-5.09,22.82-12.37,32.1-21.64,5.06-5.06,9.53-10.58,13.37-16.49,1.63-2.51,3.15-5.1,4.55-7.76.4-.76.8-1.53,1.18-2.3,0-.02.02-.04.03-.05.89-1.8,1.73-3.63,2.52-5.49.84-1.98,1.61-3.98,2.32-6,3.73-10.67,5.62-21.84,5.62-33.31V112.64Z"/>
      <path class="cls-2-solid-cactus-white-bg" d="M715.5,669.76s-.02.04-.03.05c0-.02.02-.04.03-.05Z"/>
      <path class="cls-2-solid-cactus-white-bg" d="M714.29,672.12c-1.4,2.66-2.92,5.24-4.55,7.76,1.63-2.51,3.15-5.1,4.55-7.76Z"/>
      <path class="cls-2-solid-cactus-white-bg" d="M696.37,41.23c-9.28-9.28-20.08-16.56-32.1-21.64-12.45-5.26-25.67-7.93-39.31-7.93h0c13.64,0,26.86,2.67,39.31,7.93,12.02,5.09,22.82,12.37,32.1,21.64,9.28,9.28,16.56,20.08,21.64,32.1,5.26,12.45,7.93,25.67,7.93,39.31v512.32c0,11.47-1.89,22.64-5.62,33.31,3.73-10.67,5.62-21.84,5.62-33.31V112.64c0-13.64-2.67-26.86-7.93-39.31-5.09-12.02-12.37-22.82-21.64-32.1Z"/>
      <path d="M728.75,68.79c-5.67-13.41-13.79-25.46-24.14-35.8-10.34-10.34-22.39-18.46-35.8-24.14-13.89-5.87-28.64-8.85-43.85-8.85H112.64c-15.2,0-29.96,2.98-43.85,8.85-13.41,5.67-25.46,13.79-35.8,24.14-10.34,10.34-18.46,22.39-24.14,35.8C2.98,82.68,0,97.43,0,112.64v512.32c0,15.2,2.98,29.95,8.85,43.85,5.67,13.41,13.79,25.46,24.14,35.8,10.34,10.34,22.39,18.46,35.8,24.14,13.89,5.87,28.64,8.85,43.85,8.85h512.32c15.2,0,29.95-2.98,43.85-8.85,13.41-5.67,25.46-13.79,35.8-24.14,10.34-10.34,18.46-22.39,24.14-35.8,5.88-13.89,8.85-28.64,8.85-43.85V112.64c0-15.2-2.98-29.96-8.85-43.85ZM725.95,624.96c0,11.47-1.89,22.64-5.62,33.31-.71,2.02-1.48,4.02-2.32,6-.79,1.86-1.63,3.69-2.52,5.49,0,.02-.02.04-.03.05-.38.77-.78,1.54-1.18,2.3-1.4,2.66-2.92,5.24-4.55,7.76-.47.73-.96,1.45-1.45,2.17-.08.12-.16.24-.25.35-.16.23-.32.47-.49.7-.1.14-.2.28-.3.42-.15.21-.3.42-.45.62-.11.15-.22.3-.33.45-.14.2-.29.39-.43.59-.11.15-.23.31-.34.46-.14.19-.29.38-.43.57-.12.15-.24.31-.36.46-.14.19-.29.37-.43.56-.12.15-.24.31-.37.46-.14.18-.29.36-.43.54-.12.16-.25.31-.38.46-.15.18-.29.36-.44.54-.13.15-.25.31-.38.46-.15.18-.3.35-.45.53-.13.15-.26.3-.39.45-.15.18-.3.35-.46.53-.13.15-.26.3-.39.45-.15.18-.31.35-.47.53-.13.15-.26.29-.39.44-.16.18-.32.35-.48.53-.13.14-.26.29-.39.43-.17.18-.34.36-.51.54-.13.13-.25.27-.38.4-.19.2-.37.39-.56.58-.11.12-.23.24-.34.35-.27.27-.54.55-.81.82-.03.03-.07.07-.1.1-9.28,9.28-20.08,16.56-32.1,21.64-12.45,5.26-25.67,7.93-39.31,7.93h-200.48v-55.75h15.31c3.22,0,5.83-2.61,5.83-5.83s-2.61-5.83-5.83-5.83h-15.31v-29.47h15.31c3.22,0,5.83-2.61,5.83-5.83s-2.61-5.83-5.83-5.83h-15.31v-32.61c18.09-.69,35.64-4.59,52.26-11.62,17.77-7.52,33.73-18.28,47.43-31.98,13.7-13.7,24.46-29.66,31.98-47.43,3.08-7.28,5.56-14.75,7.43-22.35h16.61c3.22,0,5.83-2.61,5.83-5.83s-2.61-5.83-5.83-5.83h-14.24c1.28-7.91,1.93-15.95,1.93-24.09v-5.39h15.31c3.22,0,5.83-2.61,5.83-5.83s-2.61-5.83-5.83-5.83h-15.31v-29.47h15.31c3.22,0,5.83-2.61,5.83-5.83s-2.61-5.83-5.83-5.83h-15.31v-29.47h15.31c3.22,0,5.83-2.61,5.83-5.83s-2.61-5.83-5.83-5.83h-15.31v-29.47h15.31c3.22,0,5.83-2.61,5.83-5.83s-2.61-5.83-5.83-5.83h-15.46c-1.72-19.69-18.29-35.2-38.42-35.2-21.27,0-38.57,17.3-38.57,38.57v17.19h-15.31c-3.22,0-5.83,2.61-5.83,5.83s2.61,5.83,5.83,5.83h15.31v29.47h-15.31c-3.22,0-5.83,2.61-5.83,5.83s2.61,5.83,5.83,5.83h15.31v29.47h-15.31c-3.22,0-5.83,2.61-5.83,5.83s2.61,5.83,5.83,5.83h15.31v9.43c0,19.26-7.5,37.36-21.11,50.97-12.23,12.23-28.09,19.52-45.15,20.88v-19.59h15.31c3.22,0,5.83-2.61,5.83-5.83s-2.61-5.83-5.83-5.83h-15.31v-29.47h15.31c3.22,0,5.83-2.61,5.83-5.83s-2.61-5.83-5.83-5.83h-15.31v-29.47h15.31c3.22,0,5.83-2.61,5.83-5.83s-2.61-5.83-5.83-5.83h-15.31v-29.47h15.31c3.22,0,5.83-2.61,5.83-5.83s-2.61-5.83-5.83-5.83h-15.31v-29.47h15.31c3.22,0,5.83-2.61,5.83-5.83s-2.61-5.83-5.83-5.83h-15.31v-29.47h15.31c3.22,0,5.83-2.61,5.83-5.83s-2.61-5.83-5.83-5.83h-15.31v-29.47h15.31c3.22,0,5.83-2.61,5.83-5.83s-2.61-5.83-5.83-5.83h-15.31v-14.74c0-14.68-5.72-28.48-16.09-38.85-10.38-10.38-24.18-16.09-38.85-16.09s-28.48,5.72-38.85,16.09c-8.99,8.99-14.48,20.55-15.79,33.03h-15.61c-3.22,0-5.83,2.61-5.83,5.83s2.61,5.83,5.83,5.83h15.31v29.47h-15.31c-3.22,0-5.83,2.61-5.83,5.83s2.61,5.83,5.83,5.83h15.31v29.47h-15.31c-3.22,0-5.83,2.61-5.83,5.83s2.61,5.83,5.83,5.83h15.31v29.47h-15.31c-3.22,0-5.83,2.61-5.83,5.83s2.61,5.83,5.83,5.83h15.31v29.47h-15.31c-3.22,0-5.83,2.61-5.83,5.83s2.61,5.83,5.83,5.83h15.31v29.47h-15.31c-3.22,0-5.83,2.61-5.83,5.83s2.61,5.83,5.83,5.83h15.31v29.47h-15.31c-3.22,0-5.83,2.61-5.83,5.83s2.61,5.83,5.83,5.83h15.31v29.47h-15.31c-3.22,0-5.83,2.61-5.83,5.83s2.61,5.83,5.83,5.83h15.31v33.41c-17.62-1.04-34.04-8.39-46.63-20.98-13.62-13.62-21.11-31.72-21.11-50.97v-19.72h15.31c3.22,0,5.83-2.61,5.83-5.83s-2.61-5.83-5.83-5.83h-15.31v-29.47h15.31c3.22,0,5.83-2.61,5.83-5.83s-2.61-5.83-5.83-5.83h-15.31v-2.19c0-21.27-17.3-38.57-38.57-38.57-19.3,0-35.33,14.24-38.14,32.77h-15.74c-3.22,0-5.83,2.61-5.83,5.83s2.61,5.83,5.83,5.83h15.31v29.47h-15.31c-3.22,0-5.83,2.61-5.83,5.83s2.61,5.83,5.83,5.83h15.31v29.47h-15.31c-3.22,0-5.83,2.61-5.83,5.83s2.61,5.83,5.83,5.83h15.31v3.11c0,8.92.78,17.73,2.31,26.36h-17.62c-3.22,0-5.83,2.61-5.83,5.83s2.61,5.83,5.83,5.83h20.19c1.79,6.82,4.08,13.52,6.85,20.07,7.52,17.77,18.28,33.73,31.98,47.43,13.7,13.7,29.66,24.46,47.43,31.98,17.08,7.22,35.13,11.14,53.74,11.67v25.7h-15.31c-3.22,0-5.83,2.61-5.83,5.83s2.61,5.83,5.83,5.83h15.31v29.47h-15.31c-3.22,0-5.83,2.61-5.83,5.83s2.61,5.83,5.83,5.83h15.31v28.33H112.64c-13.64,0-26.86-2.67-39.31-7.93-12.02-5.09-22.82-12.37-32.1-21.64-9.28-9.28-16.56-20.08-21.64-32.1-5.26-12.45-7.93-25.67-7.93-39.31V112.64c0-13.64,2.67-26.86,7.93-39.31,5.09-12.02,12.37-22.82,21.64-32.1,9.28-9.28,20.08-16.56,32.1-21.64,12.45-5.26,25.67-7.93,39.31-7.93h512.32c13.64,0,26.86,2.67,39.31,7.93,12.02,5.09,22.82,12.37,32.1,21.64,9.28,9.28,16.56,20.08,21.64,32.1,5.26,12.45,7.93,25.67,7.93,39.31v512.32ZM522.6,272.58c1.06-.27,2.14-.48,3.24-.63-1.1.14-2.19.35-3.24.63Z"/>
    </g>
  </g>
</svg>